<svg width="70" height="71" viewBox="0 0 70 71" fill="none" xmlns="http://www.w3.org/2000/svg">
<path fill-rule="evenodd" clip-rule="evenodd" d="M16.5887 10.5508C13.1214 10.5508 10.3105 13.3616 10.3105 16.8289C10.3105 20.2962 13.1214 23.107 16.5887 23.107C20.056 23.107 22.8668 20.2962 22.8668 16.8289C22.8668 13.3616 20.056 10.5508 16.5887 10.5508ZM8.12305 16.8289C8.12305 12.1535 11.9132 8.36328 16.5887 8.36328C21.2641 8.36328 25.0543 12.1535 25.0543 16.8289C25.0543 21.5043 21.2641 25.2945 16.5887 25.2945C11.9132 25.2945 8.12305 21.5043 8.12305 16.8289Z" fill="#3B3C3D"/>
<path d="M17.1192 21.8178V20.553C18.4376 20.4137 19.4451 19.8241 19.4451 18.2913C19.4451 15.6331 15.6507 16.1476 15.6507 15.1722C15.6507 14.8935 15.8758 14.7006 16.6047 14.6898C17.4729 14.6791 18.3197 14.9149 18.9628 15.3973V13.5751C18.4912 13.3071 17.8159 13.1142 17.1192 13.0284V11.7422H15.7257V13.0177C14.4931 13.1785 13.6141 13.8859 13.6141 15.1829C13.6141 17.8626 17.4086 17.2838 17.4086 18.3664C17.4086 18.7415 17.0763 18.8702 16.2938 18.8702C15.4363 18.8702 14.4502 18.6343 13.5605 18.0234V19.8992C14.1715 20.2422 14.9218 20.4672 15.7257 20.553V21.8178H17.1192Z" fill="#3B3C3D"/>
<path fill-rule="evenodd" clip-rule="evenodd" d="M62.4609 62.4609H7.77344V60.2734H62.4609V62.4609Z" fill="#3B3C3D"/>
<path fill-rule="evenodd" clip-rule="evenodd" d="M11.7832 40.5859H20.5332V58.4505H18.3457V42.7734H13.9707V58.4505H11.7832V40.5859Z" fill="#3B3C3D"/>
<path fill-rule="evenodd" clip-rule="evenodd" d="M24.9082 34.0234H33.6582V58.4505H31.4707V36.2109H27.0957V58.4505H24.9082V34.0234Z" fill="#3B3C3D"/>
<path fill-rule="evenodd" clip-rule="evenodd" d="M37.3047 27.4609H46.0547V58.4505H43.8672V29.6484H39.4922V58.4505H37.3047V27.4609Z" fill="#3B3C3D"/>
<path fill-rule="evenodd" clip-rule="evenodd" d="M50.4297 20.8984H59.1797V58.4505H56.9922V23.0859H52.6172V58.4505H50.4297V20.8984Z" fill="#3B3C3D"/>
<path fill-rule="evenodd" clip-rule="evenodd" d="M36.6915 24.1595C27.5526 28.6376 17.2013 32.5384 10.0747 33.2885L9.8457 31.1131C16.5732 30.4049 26.6386 26.6494 35.7289 22.1952C40.2555 19.9772 44.5001 17.6056 47.9201 15.3894C51.3757 13.15 53.8806 11.1377 55.0344 9.6543L56.7611 10.9973C55.3627 12.7951 52.5812 14.9755 49.1097 17.2251C45.6026 19.4978 41.2795 21.9114 36.6915 24.1595Z" fill="#3B3C3D"/>
<path fill-rule="evenodd" clip-rule="evenodd" d="M50.0645 8.50195H57.7207V16.1582H55.5332V10.6895H50.0645V8.50195Z" fill="#3B3C3D"/>
</svg>
