<svg width="693" height="153" viewBox="0 0 693 153" fill="none" xmlns="http://www.w3.org/2000/svg">
<path d="M1.15234 24.1561H71.9562V49.7863H100.19V72.7207H162.624V82.7545H219.17V110.849H232.819V119.45H275.892V131.249V151.649" stroke="#808080"/>
<path d="M691.798 151.649L691.798 24.1562H643.769V33.2164H599.821V47.4763H580.878V94.9823H550.569V102.558H486.92V131.249H443.636H416.712V151.649" stroke="#808080"/>
<path d="M72.908 49.7726H100.139V72.1326" stroke="#E30D1A"/>
<path d="M163.593 82.7512H219.191V110.288" stroke="#E30D1A"/>
<path d="M233.78 119.457H275.891V151.242" stroke="#E30D1A"/>
<path d="M416.726 151.251L416.726 131.241L487.878 131.241" stroke="#E30D1A"/>
<path d="M486.914 130.985L486.914 102.555L551.559 102.555" stroke="#E30D1A"/>
<path d="M580.919 95.545L580.919 47.4835L598.86 47.4835" stroke="#E30D1A"/>
<path d="M1.15234 0.758545V151.649H691.798" stroke="black"/>
</svg>
