<svg width="70" height="71" viewBox="0 0 70 71" fill="none" xmlns="http://www.w3.org/2000/svg">
<path fill-rule="evenodd" clip-rule="evenodd" d="M7.62695 12.3008H62.3145V52.405H7.62695V12.3008ZM9.81445 14.4883V50.2175H60.127V14.4883H9.81445Z" fill="#3B3C3D"/>
<path fill-rule="evenodd" clip-rule="evenodd" d="M60.4915 47.3008H8.7207V45.1133H60.4915V47.3008Z" fill="#3B3C3D"/>
<path fill-rule="evenodd" clip-rule="evenodd" d="M51.0423 60.4258H18.959V58.2383H51.0423V60.4258Z" fill="#3B3C3D"/>
<path fill-rule="evenodd" clip-rule="evenodd" d="M30.9472 51.6103L28.7524 59.3249L26.6484 58.7263L28.8432 51.0117L30.9472 51.6103Z" fill="#3B3C3D"/>
<path fill-rule="evenodd" clip-rule="evenodd" d="M41.1567 51.0117L43.3515 58.7263L41.2475 59.3249L39.0527 51.6103L41.1567 51.0117Z" fill="#3B3C3D"/>
<path fill-rule="evenodd" clip-rule="evenodd" d="M19.4766 19.2793H50.5172V41.0158H19.4766V19.2793ZM21.6641 21.4668V38.8283H48.3297V21.4668H21.6641Z" fill="#3B3C3D"/>
<path fill-rule="evenodd" clip-rule="evenodd" d="M49.4307 28.6133H20.5703V26.4258H49.4307V28.6133Z" fill="#3B3C3D"/>
<path fill-rule="evenodd" clip-rule="evenodd" d="M32.4466 36.6348H24.4258V34.4473H32.4466V36.6348Z" fill="#3B3C3D"/>
<path fill-rule="evenodd" clip-rule="evenodd" d="M25.1562 24.9668H22.9688V22.7793H25.1562V24.9668Z" fill="#3B3C3D"/>
<path fill-rule="evenodd" clip-rule="evenodd" d="M28.8008 24.9668H26.6133V22.7793H28.8008V24.9668Z" fill="#3B3C3D"/>
</svg>
