<svg width="694" height="155" viewBox="0 0 694 155" fill="none" xmlns="http://www.w3.org/2000/svg">
<path d="M635.423 127.393L637.161 126.953V130.671H641.385V132.299H637.161V137.755C637.161 138.532 637.337 139.075 637.689 139.383C638.056 139.691 638.635 139.845 639.427 139.845C640.19 139.845 640.967 139.683 641.759 139.361V140.989C640.865 141.311 639.919 141.473 638.921 141.473C637.851 141.473 637 141.187 636.369 140.615C635.739 140.028 635.423 139.177 635.423 138.063V132.299H633.443V130.671H635.423V127.393Z" fill="black"/>
<path d="M645.547 141.231H643.787V130.671H645.547V141.231ZM645.481 126.491C645.701 126.681 645.811 126.953 645.811 127.305C645.811 127.657 645.701 127.935 645.481 128.141C645.261 128.331 644.989 128.427 644.667 128.427C644.344 128.427 644.073 128.331 643.853 128.141C643.633 127.935 643.523 127.657 643.523 127.305C643.523 126.953 643.633 126.681 643.853 126.491C644.073 126.285 644.344 126.183 644.667 126.183C644.989 126.183 645.261 126.285 645.481 126.491Z" fill="black"/>
<path d="M650.616 141.231H648.856V130.671H650.44V132.079C651.481 130.964 652.684 130.407 654.048 130.407C655.617 130.407 656.747 131.001 657.436 132.189C658.595 131.001 659.878 130.407 661.286 130.407C662.562 130.407 663.552 130.81 664.256 131.617C664.96 132.409 665.312 133.443 665.312 134.719V141.231H663.552V134.675C663.552 133.868 663.332 133.23 662.892 132.761C662.452 132.277 661.851 132.035 661.088 132.035C659.959 132.035 658.932 132.614 658.008 133.773C658.052 134.081 658.074 134.396 658.074 134.719V141.231H656.314V134.675C656.314 133.868 656.094 133.23 655.654 132.761C655.214 132.277 654.613 132.035 653.85 132.035C652.677 132.035 651.599 132.673 650.616 133.949V141.231Z" fill="black"/>
<path d="M667.702 135.951C667.702 134.22 668.23 132.863 669.286 131.881C670.357 130.898 671.582 130.407 672.96 130.407C674.251 130.407 675.314 130.729 676.15 131.375C677.001 132.02 677.558 132.819 677.822 133.773C678.086 134.711 678.101 135.694 677.866 136.721H669.462C669.565 137.762 670.027 138.547 670.848 139.075C671.67 139.603 672.66 139.867 673.818 139.867C675.109 139.867 676.268 139.581 677.294 139.009V140.725C676.312 141.238 675.065 141.495 673.554 141.495C671.882 141.495 670.489 141.018 669.374 140.065C668.26 139.111 667.702 137.74 667.702 135.951ZM676.304 135.181C676.348 134.873 676.326 134.55 676.238 134.213C676.15 133.875 675.989 133.538 675.754 133.201C675.534 132.863 675.19 132.585 674.72 132.365C674.251 132.145 673.701 132.035 673.07 132.035C672.117 132.035 671.288 132.313 670.584 132.871C669.895 133.428 669.521 134.198 669.462 135.181H676.304Z" fill="black"/>
<path d="M26.7746 6.01154H28.7326L24.0686 16.5715H22.2206L17.5566 6.01154H19.5146L23.1446 14.5915L26.7746 6.01154Z" fill="black"/>
<path d="M31.2308 15.3615C30.1162 14.3642 29.5588 13.0075 29.5588 11.2915C29.5588 9.57554 30.1162 8.2262 31.2308 7.24354C32.3455 6.2462 33.6655 5.74754 35.1908 5.74754C36.7308 5.74754 38.0508 6.2462 39.1508 7.24354C40.2655 8.2262 40.8228 9.57554 40.8228 11.2915C40.8228 13.0075 40.2655 14.3642 39.1508 15.3615C38.0508 16.3442 36.7308 16.8355 35.1908 16.8355C33.6655 16.8355 32.3455 16.3442 31.2308 15.3615ZM37.9628 14.1295C38.6962 13.4255 39.0628 12.4795 39.0628 11.2915C39.0628 10.1035 38.6962 9.16487 37.9628 8.47554C37.2295 7.77154 36.3055 7.41954 35.1908 7.41954C34.0762 7.41954 33.1522 7.77154 32.4188 8.47554C31.6855 9.16487 31.3188 10.1035 31.3188 11.2915C31.3188 12.4795 31.6855 13.4255 32.4188 14.1295C33.1522 14.8189 34.0762 15.1635 35.1908 15.1635C36.3055 15.1635 37.2295 14.8189 37.9628 14.1295Z" fill="black"/>
<path d="M43.3913 0.511536H45.1513V16.5715H43.3913V0.511536Z" fill="black"/>
<path d="M56.3586 6.01154H58.1186V16.5715H56.5346V15.0095C56.1533 15.5229 55.618 15.9555 54.9286 16.3075C54.254 16.6595 53.5206 16.8355 52.7286 16.8355C51.3646 16.8355 50.2866 16.4469 49.4946 15.6695C48.7173 14.8775 48.3286 13.8289 48.3286 12.5235V6.01154H50.0886V12.3035C50.0886 14.2395 51.0346 15.2075 52.9266 15.2075C54.276 15.2075 55.42 14.5035 56.3586 13.0955V6.01154Z" fill="black"/>
<path d="M63.1327 16.5715H61.3727V6.01154H62.9567V7.41954C63.9981 6.30487 65.2007 5.74754 66.5647 5.74754C68.1341 5.74754 69.2634 6.34154 69.9527 7.52954C71.1114 6.34154 72.3947 5.74754 73.8027 5.74754C75.0787 5.74754 76.0687 6.15087 76.7727 6.95754C77.4767 7.74954 77.8287 8.78354 77.8287 10.0595V16.5715H76.0687V10.0155C76.0687 9.20887 75.8487 8.57087 75.4087 8.10154C74.9687 7.61754 74.3674 7.37554 73.6047 7.37554C72.4754 7.37554 71.4487 7.95487 70.5247 9.11354C70.5687 9.42154 70.5907 9.73687 70.5907 10.0595V16.5715H68.8307V10.0155C68.8307 9.20887 68.6107 8.57087 68.1707 8.10154C67.7307 7.61754 67.1294 7.37554 66.3667 7.37554C65.1934 7.37554 64.1154 8.01354 63.1327 9.28954V16.5715Z" fill="black"/>
<path d="M80.219 11.2915C80.219 9.56087 80.747 8.2042 81.803 7.22154C82.8737 6.23887 84.0983 5.74754 85.477 5.74754C86.7677 5.74754 87.831 6.0702 88.667 6.71554C89.5177 7.36087 90.075 8.1602 90.339 9.11354C90.603 10.0522 90.6177 11.0349 90.383 12.0615H81.979C82.0817 13.1029 82.5437 13.8875 83.365 14.4155C84.1863 14.9435 85.1763 15.2075 86.335 15.2075C87.6257 15.2075 88.7843 14.9215 89.811 14.3495V16.0655C88.8283 16.5789 87.5817 16.8355 86.071 16.8355C84.399 16.8355 83.0057 16.3589 81.891 15.4055C80.7763 14.4522 80.219 13.0809 80.219 11.2915ZM88.821 10.5215C88.865 10.2135 88.843 9.89087 88.755 9.55354C88.667 9.2162 88.5057 8.87887 88.271 8.54154C88.051 8.2042 87.7063 7.92554 87.237 7.70554C86.7677 7.48554 86.2177 7.37554 85.587 7.37554C84.6337 7.37554 83.805 7.6542 83.101 8.21154C82.4117 8.76887 82.0377 9.53887 81.979 10.5215H88.821Z" fill="black"/>
<path d="M1.36621 25.9691H72.1701V51.5992H100.404V74.5336H162.838V84.5674H219.384V112.662H233.033V121.263H276.106V133.062V153.462" stroke="#808080" stroke-width="2"/>
<path d="M692.012 153.462L692.012 25.9691H643.982V35.0292H600.034V49.2891H581.091V96.7951H550.782V104.371H487.134V133.062H443.849H416.926V153.462" stroke="#808080" stroke-width="2"/>
<path d="M73.1221 51.5858H100.353V73.9457" stroke="#808080" stroke-width="2"/>
<path d="M100.354 50.6616L100.354 75.5441" stroke="#26A69A" stroke-width="4"/>
<path d="M163.807 84.5643H219.404V112.101" stroke="#808080" stroke-width="2"/>
<path d="M219.405 83.6033L219.405 113.751" stroke="#26A69A" stroke-width="4"/>
<path d="M233.994 121.27H276.106V153.054" stroke="#808080" stroke-width="2"/>
<path d="M416.939 153.064L416.939 133.054L488.091 133.054" stroke="#808080" stroke-width="2"/>
<path d="M487.127 132.798L487.127 104.368L551.773 104.368" stroke="#808080" stroke-width="2"/>
<path d="M581.133 97.3577L581.133 49.2962L599.074 49.2962" stroke="#808080" stroke-width="2"/>
<path d="M1.36621 2.57159V153.462H692.012" stroke="black" stroke-width="2"/>
<path d="M276.105 120.291L276.105 152.424" stroke="#26A69A" stroke-width="4"/>
<path d="M416.94 132.087L416.94 152.424" stroke="#E30D1A" stroke-width="4"/>
<path d="M487.128 103.454L487.128 133.839" stroke="#E30D1A" stroke-width="4"/>
<path d="M581.113 48.3246L581.113 97.789" stroke="#E30D1A" stroke-width="4"/>
</svg>
