<svg width="70" height="71" viewBox="0 0 70 71" fill="none" xmlns="http://www.w3.org/2000/svg">
<path fill-rule="evenodd" clip-rule="evenodd" d="M54.6803 8.70703V33.1343H52.4928V10.895L16.7637 10.9018V60.4781H52.4928V54.477H54.6803V62.6656H14.5762V8.71474L54.6803 8.70703Z" fill="#3B3C3D"/>
<path fill-rule="evenodd" clip-rule="evenodd" d="M40.4622 18.916H19.3164V16.7285H40.4622V18.916Z" fill="#3B3C3D"/>
<path fill-rule="evenodd" clip-rule="evenodd" d="M43.3789 25.7695H19.3164V23.582H43.3789V25.7695Z" fill="#3B3C3D"/>
<path fill-rule="evenodd" clip-rule="evenodd" d="M34.6289 32.623H19.3164V30.4355H34.6289V32.623Z" fill="#3B3C3D"/>
<path fill-rule="evenodd" clip-rule="evenodd" d="M28.0664 39.4785H19.3164V37.291H28.0664V39.4785Z" fill="#3B3C3D"/>
<path fill-rule="evenodd" clip-rule="evenodd" d="M31.7122 46.332H19.3164V44.1445H31.7122V46.332Z" fill="#3B3C3D"/>
<path fill-rule="evenodd" clip-rule="evenodd" d="M35.3581 53.1855H19.3164V50.998H35.3581V53.1855Z" fill="#3B3C3D"/>
<path fill-rule="evenodd" clip-rule="evenodd" d="M39.4961 41.2402L48.5794 49.416L44.6866 53.7408L35.6033 45.5651L39.4961 41.2402ZM39.6585 44.3296L38.6927 45.4026L44.5242 50.6515L45.49 49.5784L39.6585 44.3296Z" fill="#3B3C3D"/>
<path fill-rule="evenodd" clip-rule="evenodd" d="M48.1035 32.3223L56.867 40.2102L52.9743 44.5351L44.2108 36.6471L48.1035 32.3223ZM48.266 35.4116L47.3001 36.4847L52.8118 41.4457L53.7777 40.3727L48.266 35.4116Z" fill="#3B3C3D"/>
<path fill-rule="evenodd" clip-rule="evenodd" d="M52.6857 42.9431L46.8961 49.3817L45.2695 47.919L51.0591 41.4805L52.6857 42.9431Z" fill="#3B3C3D"/>
<path fill-rule="evenodd" clip-rule="evenodd" d="M47.6553 37.9853L41.647 44.6572L40.0215 43.1934L46.0298 36.5215L47.6553 37.9853Z" fill="#3B3C3D"/>
<path fill-rule="evenodd" clip-rule="evenodd" d="M60.1592 56.5635L50.1113 47.7989L51.5493 46.1504L61.5972 54.915L60.1592 56.5635Z" fill="#3B3C3D"/>
</svg>
