<svg width="70" height="71" viewBox="0 0 70 71" fill="none" xmlns="http://www.w3.org/2000/svg">
<path fill-rule="evenodd" clip-rule="evenodd" d="M56.0736 14.3621H40.3965V12.0098H58.2611V26.3398H56.0736V14.3621Z" fill="#3B3C3D"/>
<path fill-rule="evenodd" clip-rule="evenodd" d="M13.7812 56.4896V40.8125H11.5938V58.6771H26V56.4896H13.7812Z" fill="#3B3C3D"/>
<path fill-rule="evenodd" clip-rule="evenodd" d="M12.7231 37.8418L17.1067 42.2254L15.5599 43.7721L12.7247 40.937L9.89602 43.7714L8.34766 42.2261L12.7231 37.8418Z" fill="#3B3C3D"/>
<path fill-rule="evenodd" clip-rule="evenodd" d="M61.5859 24.4609L57.2031 28.8436L52.8203 24.4609L54.3671 22.9141L57.2031 25.75L60.0391 22.9141L61.5859 24.4609Z" fill="#3B3C3D"/>
<path fill-rule="evenodd" clip-rule="evenodd" d="M36.5102 50.998H44.8883L47.7638 58.6762H33.6348L36.5102 50.998ZM38.0269 53.1855L36.7899 56.4887H44.6087L43.3717 53.1855H38.0269Z" fill="#3B3C3D"/>
<path fill-rule="evenodd" clip-rule="evenodd" d="M51.6122 50.998H59.9894L62.8649 58.6762H48.7266L51.6122 50.998ZM53.127 53.1855L51.8856 56.4887H59.7098L58.4728 53.1855H53.127Z" fill="#3B3C3D"/>
<path fill-rule="evenodd" clip-rule="evenodd" d="M43.8677 42.0801H52.2458L55.1212 49.7582H40.9922L43.8677 42.0801ZM45.3843 44.2676L44.1473 47.5707H51.9661L50.7291 44.2676H45.3843Z" fill="#3B3C3D"/>
<path fill-rule="evenodd" clip-rule="evenodd" d="M49.1465 33.498V38.3033H46.959V33.498H49.1465Z" fill="#3B3C3D"/>
<path fill-rule="evenodd" clip-rule="evenodd" d="M55.4154 35.4168L53.0092 39.5804L51.1152 38.4858L53.5215 34.3223L55.4154 35.4168Z" fill="#3B3C3D"/>
<path fill-rule="evenodd" clip-rule="evenodd" d="M42.5907 34.3223L44.9897 38.4858L43.0943 39.5779L40.6953 35.4144L42.5907 34.3223Z" fill="#3B3C3D"/>
<path fill-rule="evenodd" clip-rule="evenodd" d="M20.6355 10.5508C14.752 10.5508 9.98242 15.3203 9.98242 21.2039C9.98242 27.0875 14.752 31.857 20.6355 31.857C26.5191 31.857 31.2887 27.0875 31.2887 21.2039C31.2887 15.3203 26.5191 10.5508 20.6355 10.5508ZM7.79492 21.2039C7.79492 14.1122 13.5439 8.36328 20.6355 8.36328C27.7272 8.36328 33.4762 14.1122 33.4762 21.2039C33.4762 28.2956 27.7272 34.0445 20.6355 34.0445C13.5439 34.0445 7.79492 28.2956 7.79492 21.2039Z" fill="#3B3C3D"/>
<path d="M21.3586 28.1766V26.3886C23.2223 26.1916 24.6466 25.3583 24.6466 23.1915C24.6466 19.4338 19.2828 20.1611 19.2828 18.7823C19.2828 18.3883 19.601 18.1156 20.6313 18.1004C21.8586 18.0853 23.0557 18.4186 23.9648 19.1005V16.5246C23.2981 16.1458 22.3435 15.8731 21.3586 15.7518V13.9336H19.3888V15.7367C17.6464 15.964 16.4039 16.964 16.4039 18.7974C16.4039 22.5854 21.7677 21.7672 21.7677 23.2976C21.7677 23.8279 21.298 24.0097 20.1919 24.0097C18.9797 24.0097 17.5857 23.6764 16.3281 22.8127V25.4643C17.1918 25.9492 18.2524 26.2674 19.3888 26.3886V28.1766H21.3586Z" fill="#3B3C3D"/>
</svg>
