<svg width="693" height="155" viewBox="0 0 693 155" fill="none" xmlns="http://www.w3.org/2000/svg">
<path d="M26.5613 6.19873H28.5193L23.8553 16.7587H22.0073L17.3433 6.19873H19.3013L22.9313 14.7787L26.5613 6.19873Z" fill="black"/>
<path d="M31.0175 15.5487C29.9028 14.5514 29.3455 13.1947 29.3455 11.4787C29.3455 9.76273 29.9028 8.4134 31.0175 7.43073C32.1321 6.4334 33.4521 5.93473 34.9775 5.93473C36.5175 5.93473 37.8375 6.4334 38.9375 7.43073C40.0521 8.4134 40.6095 9.76273 40.6095 11.4787C40.6095 13.1947 40.0521 14.5514 38.9375 15.5487C37.8375 16.5314 36.5175 17.0227 34.9775 17.0227C33.4521 17.0227 32.1321 16.5314 31.0175 15.5487ZM37.7495 14.3167C38.4828 13.6127 38.8495 12.6667 38.8495 11.4787C38.8495 10.2907 38.4828 9.35206 37.7495 8.66273C37.0161 7.95873 36.0921 7.60673 34.9775 7.60673C33.8628 7.60673 32.9388 7.95873 32.2055 8.66273C31.4721 9.35206 31.1055 10.2907 31.1055 11.4787C31.1055 12.6667 31.4721 13.6127 32.2055 14.3167C32.9388 15.0061 33.8628 15.3507 34.9775 15.3507C36.0921 15.3507 37.0161 15.0061 37.7495 14.3167Z" fill="black"/>
<path d="M43.178 0.69873H44.938V16.7587H43.178V0.69873Z" fill="black"/>
<path d="M56.1452 6.19873H57.9052V16.7587H56.3212V15.1967C55.9399 15.7101 55.4046 16.1427 54.7152 16.4947C54.0406 16.8467 53.3072 17.0227 52.5152 17.0227C51.1512 17.0227 50.0732 16.6341 49.2812 15.8567C48.5039 15.0647 48.1152 14.0161 48.1152 12.7107V6.19873H49.8752V12.4907C49.8752 14.4267 50.8212 15.3947 52.7132 15.3947C54.0626 15.3947 55.2066 14.6907 56.1452 13.2827V6.19873Z" fill="black"/>
<path d="M62.9194 16.7587H61.1594V6.19873H62.7434V7.60673C63.7847 6.49206 64.9874 5.93473 66.3514 5.93473C67.9207 5.93473 69.05 6.52873 69.7394 7.71673C70.898 6.52873 72.1814 5.93473 73.5894 5.93473C74.8654 5.93473 75.8554 6.33806 76.5594 7.14473C77.2634 7.93673 77.6154 8.97073 77.6154 10.2467V16.7587H75.8554V10.2027C75.8554 9.39606 75.6354 8.75806 75.1954 8.28873C74.7554 7.80473 74.154 7.56273 73.3914 7.56273C72.262 7.56273 71.2354 8.14206 70.3114 9.30073C70.3554 9.60873 70.3774 9.92406 70.3774 10.2467V16.7587H68.6174V10.2027C68.6174 9.39606 68.3974 8.75806 67.9574 8.28873C67.5174 7.80473 66.916 7.56273 66.1534 7.56273C64.98 7.56273 63.902 8.20073 62.9194 9.47673V16.7587Z" fill="black"/>
<path d="M80.0056 11.4787C80.0056 9.74806 80.5336 8.3914 81.5896 7.40873C82.6603 6.42606 83.885 5.93473 85.2636 5.93473C86.5543 5.93473 87.6176 6.2574 88.4536 6.90273C89.3043 7.54806 89.8616 8.3474 90.1256 9.30073C90.3896 10.2394 90.4043 11.2221 90.1696 12.2487H81.7656C81.8683 13.2901 82.3303 14.0747 83.1516 14.6027C83.973 15.1307 84.963 15.3947 86.1216 15.3947C87.4123 15.3947 88.571 15.1087 89.5976 14.5367V16.2527C88.615 16.7661 87.3683 17.0227 85.8576 17.0227C84.1856 17.0227 82.7923 16.5461 81.6776 15.5927C80.563 14.6394 80.0056 13.2681 80.0056 11.4787ZM88.6076 10.7087C88.6516 10.4007 88.6296 10.0781 88.5416 9.74073C88.4536 9.4034 88.2923 9.06606 88.0576 8.72873C87.8376 8.3914 87.493 8.11273 87.0236 7.89273C86.5543 7.67273 86.0043 7.56273 85.3736 7.56273C84.4203 7.56273 83.5916 7.8414 82.8876 8.39873C82.1983 8.95606 81.8243 9.72606 81.7656 10.7087H88.6076Z" fill="black"/>
<path d="M638.13 128.812L639.868 128.372V132.09H644.092V133.718H639.868V139.174C639.868 139.951 640.044 140.494 640.396 140.802C640.763 141.11 641.342 141.264 642.134 141.264C642.897 141.264 643.674 141.102 644.466 140.78V142.408C643.572 142.73 642.626 142.892 641.628 142.892C640.558 142.892 639.707 142.606 639.076 142.034C638.446 141.447 638.13 140.596 638.13 139.482V133.718H636.15V132.09H638.13V128.812Z" fill="black"/>
<path d="M648.254 142.65H646.494V132.09H648.254V142.65ZM648.188 127.91C648.408 128.1 648.518 128.372 648.518 128.724C648.518 129.076 648.408 129.354 648.188 129.56C647.968 129.75 647.696 129.846 647.374 129.846C647.051 129.846 646.78 129.75 646.56 129.56C646.34 129.354 646.23 129.076 646.23 128.724C646.23 128.372 646.34 128.1 646.56 127.91C646.78 127.704 647.051 127.602 647.374 127.602C647.696 127.602 647.968 127.704 648.188 127.91Z" fill="black"/>
<path d="M653.323 142.65H651.563V132.09H653.147V133.498C654.188 132.383 655.391 131.826 656.755 131.826C658.324 131.826 659.454 132.42 660.143 133.608C661.302 132.42 662.585 131.826 663.993 131.826C665.269 131.826 666.259 132.229 666.963 133.036C667.667 133.828 668.019 134.862 668.019 136.138V142.65H666.259V136.094C666.259 135.287 666.039 134.649 665.599 134.18C665.159 133.696 664.558 133.454 663.795 133.454C662.666 133.454 661.639 134.033 660.715 135.192C660.759 135.5 660.781 135.815 660.781 136.138V142.65H659.021V136.094C659.021 135.287 658.801 134.649 658.361 134.18C657.921 133.696 657.32 133.454 656.557 133.454C655.384 133.454 654.306 134.092 653.323 135.368V142.65Z" fill="black"/>
<path d="M670.409 137.37C670.409 135.639 670.937 134.282 671.993 133.3C673.064 132.317 674.289 131.826 675.667 131.826C676.958 131.826 678.021 132.148 678.857 132.794C679.708 133.439 680.265 134.238 680.529 135.192C680.793 136.13 680.808 137.113 680.573 138.14H672.169C672.272 139.181 672.734 139.966 673.555 140.494C674.377 141.022 675.367 141.286 676.525 141.286C677.816 141.286 678.975 141 680.001 140.428V142.144C679.019 142.657 677.772 142.914 676.261 142.914C674.589 142.914 673.196 142.437 672.081 141.484C670.967 140.53 670.409 139.159 670.409 137.37ZM679.011 136.6C679.055 136.292 679.033 135.969 678.945 135.632C678.857 135.294 678.696 134.957 678.461 134.62C678.241 134.282 677.897 134.004 677.427 133.784C676.958 133.564 676.408 133.454 675.777 133.454C674.824 133.454 673.995 133.732 673.291 134.29C672.602 134.847 672.228 135.617 672.169 136.6H679.011Z" fill="black"/>
<path d="M1.15234 26.1562H71.9562V51.7864H100.19V74.7208H162.624V84.7546H219.17V112.849H232.819V121.45H275.892V133.249V153.649" stroke="#808080" stroke-width="2"/>
<path d="M691.798 153.649L691.798 26.1562H643.769V35.2164H599.821V49.4763H580.878V96.9823H550.569V104.558H486.92V133.249H443.636H416.712V153.649" stroke="#808080" stroke-width="2"/>
<path d="M72.9082 51.7729H100.14V74.1329" stroke="#E30D1A" stroke-width="2"/>
<path d="M163.593 84.7515H219.191V112.289" stroke="#E30D1A" stroke-width="2"/>
<path d="M233.78 121.457H275.891V153.242" stroke="#E30D1A" stroke-width="2"/>
<path d="M416.726 153.251L416.726 133.241L487.878 133.241" stroke="#E30D1A" stroke-width="2"/>
<path d="M486.914 132.985L486.914 104.555L551.559 104.555" stroke="#E30D1A" stroke-width="2"/>
<path d="M580.919 97.5449L580.919 49.4833L598.86 49.4833" stroke="#E30D1A" stroke-width="2"/>
<path d="M1.15234 2.75879V153.649H691.798" stroke="black" stroke-width="2"/>
</svg>
