<svg width="656" height="429" viewBox="0 0 656 429" fill="none" xmlns="http://www.w3.org/2000/svg">
<path d="M1.33398 427.993C26.5079 410.817 51.8665 395.52 79.389 382.376C93.5448 375.616 108.331 369.721 121.964 361.9C126.73 359.165 130.602 355.165 135.041 351.965C149.667 341.421 164.957 332.18 178.782 320.49C204.276 298.932 227.202 273.934 254.607 254.701C265.561 247.014 272.894 243.29 285.424 239.14C297.981 234.982 315.502 230.522 328.861 234.173C339.007 236.946 346.78 245.298 353.291 252.825C361.892 262.77 375.017 281.82 382.486 292.664C385.068 296.413 394.256 310.86 398.705 315.472C406.908 323.976 419.168 329.375 430.231 332.604C445.46 337.048 457.581 339.971 473.567 333.82C501.629 323.022 512.071 305.348 524.404 277.357C557.017 203.337 562.619 119.833 577.167 41.2152C578.262 35.2965 579.796 20.9047 586.442 15.822C594.91 9.34686 606.347 3.9251 616.651 1.32611C627.616 -1.43998 631.316 6.34684 640.27 10.1453C645.254 12.26 650.095 13.7946 655.475 13.7946" stroke="black" stroke-linecap="round" stroke-linejoin="round"/>
</svg>
