<svg width="100" height="263" viewBox="0 0 100 263" fill="none" xmlns="http://www.w3.org/2000/svg">
<path d="M21.2181 261.975C22.0917 237.808 22.2967 241.796 20.914 210.175C18.6985 159.506 15.5944 108.664 9.71264 58.2721C7.51674 39.4586 7.08586 38.4962 3.83317 23.5021C3.34345 21.2446 0.47001 12.9702 1.55235 9.76649C4.09462 2.24136 23.5951 1.47672 28.973 1.15003C40.9683 0.421337 52.2189 2.26219 63.6922 5.71168C72.7256 8.4276 84.2898 11.5311 91.8224 17.6227C97.9359 22.5666 98.6191 26.4413 99.1718 34.957C101.018 63.3988 94.4981 92.4484 89.643 120.26C85.8774 141.83 81.9644 162.593 81.0772 184.478C80.5232 198.142 80.5197 211.81 80.5197 225.482" stroke="black" stroke-linecap="round" stroke-linejoin="round"/>
</svg>
