<?xml version="1.0" encoding="utf-8"?>
<!-- Generator: Adobe Illustrator 23.1.0, SVG Export Plug-In . SVG Version: 6.00 Build 0)  -->
<svg version="1.1" id="Слой_1" xmlns="http://www.w3.org/2000/svg" xmlns:xlink="http://www.w3.org/1999/xlink" x="0px" y="0px"
	 viewBox="0 0 427 228" style="enable-background:new 0 0 427 228;" xml:space="preserve">
<style type="text/css">
	.st0{fill:none;stroke:#000000;stroke-width:0.8848;}
	.st1{fill:#F3BA2F;}
	.st2{fill:#5741D9;}
	.st3{fill-rule:evenodd;clip-rule:evenodd;fill:#1652F0;}
</style>
<path d="M124.3,10.2l19.1-0.1l0,2.6l-8.1,0l0.1,20.5l-2.8,0l-0.1-20.5l-8.1,0L124.3,10.2z M144.9,20.2c0.6-1,1.6-1.8,2.8-2.4
	c1.3-0.6,2.6-0.8,4-0.7l0,2.6c-1.5-0.2-2.9,0.1-4.1,0.8c-1.2,0.7-2,1.6-2.5,2.9l0,9.9l-2.7,0l0-15.9l2.4,0L144.9,20.2z M167.4,29.9
	c0,0.8,0.4,1.2,1.2,1.2c0.4,0,0.8-0.1,1.2-0.2l0,2.2c-0.7,0.2-1.3,0.4-2,0.4c-1.5,0-2.5-0.6-2.9-1.9c-1.7,1.4-3.8,2.1-6.2,2.1
	c-1.5,0-2.9-0.4-4-1.2c-1.1-0.8-1.6-2-1.6-3.6c0-1.9,0.7-3.2,2.1-4.1c1.4-0.9,3.1-1.3,5.1-1.3c1.5,0,2.9,0.2,4.4,0.5l0-0.6
	c0-1.2-0.4-2.2-1.2-2.9c-0.8-0.7-1.9-1.1-3.3-1.1c-2,0-3.9,0.4-5.8,1.2l0-2.6c2.1-0.7,4.1-1.1,6.1-1.1c2.2,0,3.9,0.6,5.1,1.7
	c1.2,1.1,1.9,2.8,1.9,5L167.4,29.9z M155.9,28.7c0,0.9,0.3,1.6,1,2c0.7,0.4,1.5,0.7,2.5,0.7c2.2,0,4-0.8,5.4-2.3l0-2.9
	c-1.5-0.3-2.8-0.5-4-0.5c-1.3,0-2.5,0.2-3.4,0.7C156.3,26.9,155.9,27.6,155.9,28.7z M185.5,10l2.7,0l0.1,23.2l-2.4,0l0-2.6
	c-1.8,2-3.9,3.1-6.4,3.1c-2.3,0-4.2-0.8-5.7-2.4c-1.5-1.6-2.3-3.6-2.3-6c0-2.4,0.7-4.4,2.2-6c1.5-1.6,3.4-2.4,5.7-2.4
	c2.5,0,4.6,0.9,6.2,2.8L185.5,10z M185.5,23.2c-0.5-1.1-1.3-2-2.3-2.8s-2.2-1.1-3.6-1.1c-1.6,0-2.9,0.5-4,1.6
	c-1.1,1.1-1.6,2.5-1.6,4.3c0,1.8,0.5,3.2,1.6,4.3c1.1,1.1,2.4,1.6,4,1.6c1.3,0,2.5-0.4,3.6-1.1s1.8-1.7,2.3-2.8L185.5,23.2z
	 M195.8,33.2l-2.6,0l0-15.9l2.6,0L195.8,33.2z M195.7,11c0.3,0.3,0.5,0.7,0.5,1.2c0,0.5-0.2,0.9-0.5,1.3c-0.3,0.3-0.7,0.4-1.2,0.4
	c-0.5,0-0.9-0.1-1.2-0.4c-0.3-0.3-0.5-0.7-0.5-1.3c0-0.5,0.2-0.9,0.5-1.2c0.3-0.3,0.7-0.5,1.2-0.5C194.9,10.5,195.3,10.7,195.7,11z
	 M203.1,19.6c0.6-0.8,1.4-1.4,2.4-2c1-0.5,2.2-0.8,3.3-0.8c1.9,0,3.5,0.6,4.7,1.8c1.3,1.2,1.9,2.7,1.9,4.7l0,9.8l-2.7,0l0-9.5
	c0-1.4-0.4-2.5-1.2-3.2c-0.8-0.7-1.8-1.1-3.1-1.1c-2,0-3.8,1.1-5.2,3.2l0,10.7l-2.6,0l0-15.9l2.4,0L203.1,19.6z M221.4,31.1
	c-1.5-1.6-2.3-3.6-2.3-6c0-2.4,0.7-4.4,2.2-6c1.5-1.6,3.4-2.4,5.7-2.4c2.5,0,4.6,1,6.4,3l0-2.6l2.4,0l0,15.9c0,2.6-0.8,4.5-2.5,5.8
	c-1.7,1.3-3.7,1.9-6.2,1.9c-2.4,0-4.5-0.5-6.5-1.5l0-2.6c1.9,1.1,4,1.6,6.1,1.6c1.9,0,3.4-0.4,4.6-1.3c1.2-0.8,1.8-2.1,1.7-4l0-2.5
	c-1.5,1.9-3.6,2.9-6.2,2.9C224.8,33.5,222.9,32.7,221.4,31.1z M233.2,23.1c-0.5-1.1-1.3-2-2.3-2.8c-1-0.7-2.2-1.1-3.6-1.1
	c-1.6,0-2.9,0.5-4,1.6c-1.1,1.1-1.6,2.5-1.6,4.3c0,1.8,0.5,3.2,1.6,4.3c1.1,1.1,2.4,1.6,4,1.6c1.3,0,2.5-0.3,3.6-1
	c1-0.7,1.8-1.6,2.3-2.6L233.2,23.1z M262,29.7c0,0.8,0.4,1.2,1.2,1.2c0.4,0,0.8-0.1,1.2-0.2l0,2.2c-0.7,0.2-1.3,0.4-2,0.4
	c-1.5,0-2.5-0.6-2.9-1.9c-1.7,1.4-3.8,2.1-6.2,2.1c-1.5,0-2.9-0.4-4-1.2c-1.1-0.8-1.6-2-1.6-3.6c0-1.9,0.7-3.2,2.1-4.1
	c1.4-0.9,3.1-1.3,5.1-1.3c1.5,0,2.9,0.2,4.4,0.5l0-0.6c0-1.2-0.4-2.2-1.2-2.9c-0.8-0.7-1.9-1.1-3.3-1.1c-2,0-3.9,0.4-5.8,1.2l0-2.6
	c2.1-0.7,4.1-1.1,6.1-1.1c2.2,0,3.9,0.6,5.1,1.7c1.2,1.1,1.9,2.8,1.9,5L262,29.7z M250.4,28.4c0,0.9,0.3,1.6,1,2
	c0.7,0.4,1.5,0.7,2.5,0.7c2.2,0,4-0.8,5.4-2.3l0-2.9c-1.5-0.3-2.9-0.5-4-0.5c-1.3,0-2.5,0.2-3.4,0.7
	C250.9,26.6,250.4,27.4,250.4,28.4z M266.1,21.2c0-1.5,0.6-2.7,1.7-3.4c1.2-0.8,2.6-1.2,4.3-1.2c2.1,0,3.9,0.4,5.6,1.3l0,2.5
	c-0.7-0.4-1.5-0.8-2.5-1.1c-1-0.3-2-0.4-2.9-0.4c-1,0-1.8,0.2-2.5,0.5c-0.7,0.3-1,0.9-1,1.6c0,0.5,0.2,1,0.7,1.4
	c0.5,0.4,1.1,0.7,1.9,0.9c0.8,0.2,1.6,0.4,2.4,0.8c0.9,0.3,1.7,0.6,2.5,0.9c0.8,0.3,1.4,0.8,1.9,1.5c0.5,0.6,0.8,1.4,0.8,2.3
	c0,1.5-0.6,2.7-1.8,3.4c-1.2,0.7-2.8,1.1-4.7,1.1c-2.5,0-4.6-0.5-6.2-1.5l0-2.6c1.7,1.1,3.7,1.7,6,1.7c2.7,0,4-0.7,4-2
	c0-0.6-0.4-1.1-1.1-1.5c-0.7-0.4-1.5-0.8-2.5-1c-1-0.3-2-0.6-3-1c-1-0.4-1.8-0.9-2.6-1.6C266.5,23.2,266.1,22.3,266.1,21.2z
	 M293.5,32.9l-2.6,0l0-15.9l2.6,0L293.5,32.9z M293.3,10.7c0.3,0.3,0.5,0.7,0.5,1.2c0,0.5-0.2,0.9-0.5,1.3c-0.3,0.3-0.7,0.4-1.2,0.4
	c-0.5,0-0.9-0.1-1.2-0.4c-0.3-0.3-0.5-0.7-0.5-1.3c0-0.5,0.2-0.9,0.5-1.2c0.3-0.3,0.7-0.5,1.2-0.5C292.6,10.2,293,10.4,293.3,10.7z
	 M297.5,21.2c0-1.5,0.6-2.7,1.7-3.4c1.2-0.8,2.6-1.2,4.3-1.2c2.1,0,3.9,0.4,5.6,1.3l0,2.5c-0.7-0.4-1.5-0.8-2.5-1.1
	c-1-0.3-2-0.4-2.9-0.4c-1,0-1.8,0.2-2.5,0.5c-0.7,0.3-1,0.9-1,1.6c0,0.5,0.2,1,0.7,1.4c0.5,0.4,1.1,0.7,1.9,0.9
	c0.8,0.2,1.6,0.4,2.4,0.8c0.9,0.3,1.7,0.6,2.5,0.9c0.8,0.3,1.4,0.8,1.9,1.5c0.5,0.6,0.8,1.4,0.8,2.3c0,1.5-0.6,2.7-1.8,3.4
	c-1.2,0.7-2.8,1.1-4.7,1.1c-2.5,0-4.5-0.5-6.2-1.5l0-2.6c1.7,1.1,3.7,1.7,6,1.7c2.7,0,4-0.7,4-2c0-0.6-0.4-1.1-1.1-1.5
	c-0.7-0.4-1.5-0.8-2.5-1c-1-0.3-2-0.6-3-1c-1-0.4-1.8-0.9-2.6-1.6C297.8,23.1,297.5,22.2,297.5,21.2z"/>
<line class="st0" x1="71.2" y1="113.8" x2="71.2" y2="148.7"/>
<line class="st0" x1="227" y1="113.8" x2="227" y2="174.4"/>
<line class="st0" x1="382.8" y1="113.8" x2="382.8" y2="148.7"/>
<line class="st0" x1="70.7" y1="148.3" x2="382.4" y2="148.3"/>
<path d="M201.5,199.6c0-1.5,0.3-2.8,1.1-3.9c0.7-1.1,1.6-1.9,2.7-2.5c1.1-0.5,2.2-0.8,3.4-0.8c1.4,0,2.7,0.3,3.8,0.9l0,1.6
	c-1-0.7-2.2-1-3.6-1c-1.6,0-2.9,0.5-4,1.4c-1.1,0.9-1.7,2.3-1.7,4.1c0,1.2,0.3,2.2,0.9,3c0.6,0.8,1.3,1.4,2.2,1.8
	c0.9,0.4,1.8,0.6,2.8,0.6c1.5,0,2.7-0.3,3.6-1l0,1.6c-1.2,0.6-2.5,0.9-3.9,0.9c-0.9,0-1.7-0.1-2.6-0.4c-0.8-0.3-1.6-0.7-2.3-1.3
	c-0.7-0.6-1.2-1.3-1.7-2.2C201.7,201.7,201.5,200.7,201.5,199.6z M214.8,192l1.6,0l0,14.2l-1.6,0L214.8,192z M220.9,206.2l-1.6,0
	l0-9.3l1.6,0L220.9,206.2z M220.8,193.2c0.2,0.2,0.3,0.4,0.3,0.7c0,0.3-0.1,0.6-0.3,0.7c-0.2,0.2-0.4,0.3-0.7,0.3
	c-0.3,0-0.5-0.1-0.7-0.3c-0.2-0.2-0.3-0.4-0.3-0.7c0-0.3,0.1-0.6,0.3-0.7c0.2-0.2,0.4-0.3,0.7-0.3
	C220.4,192.9,220.6,193,220.8,193.2z M223.2,201.6c0-1.5,0.5-2.7,1.4-3.6c0.9-0.9,2-1.3,3.2-1.3c1.1,0,2.1,0.3,2.8,0.8
	c0.8,0.6,1.3,1.3,1.5,2.1c0.2,0.8,0.3,1.7,0,2.6l-7.4,0c0.1,0.9,0.5,1.6,1.2,2.1c0.7,0.5,1.6,0.7,2.6,0.7c1.1,0,2.2-0.3,3.1-0.8
	l0,1.5c-0.9,0.5-2,0.7-3.3,0.7c-1.5,0-2.7-0.4-3.7-1.3S223.2,203.1,223.2,201.6z M230.8,200.9c0-0.3,0-0.6-0.1-0.9
	c-0.1-0.3-0.2-0.6-0.4-0.9c-0.2-0.3-0.5-0.5-0.9-0.7c-0.4-0.2-0.9-0.3-1.5-0.3c-0.8,0-1.6,0.3-2.2,0.7c-0.6,0.5-0.9,1.2-1,2
	L230.8,200.9z M235.9,198.2c0.3-0.5,0.8-0.8,1.4-1.2c0.6-0.3,1.3-0.5,2-0.5c1.1,0,2.1,0.4,2.8,1.1c0.7,0.7,1.1,1.6,1.1,2.7l0,5.8
	l-1.6,0l0-5.6c0-0.8-0.2-1.5-0.7-1.9c-0.5-0.4-1.1-0.7-1.8-0.7c-1.2,0-2.2,0.6-3,1.9l0,6.3l-1.6,0l0-9.3l1.4,0L235.9,198.2z
	 M246.4,193.9l1.5-0.4l0,3.3l3.7,0l0,1.4l-3.7,0l0,4.8c0,0.7,0.2,1.2,0.5,1.4c0.3,0.3,0.8,0.4,1.5,0.4c0.7,0,1.4-0.1,2.1-0.4l0,1.4
	c-0.8,0.3-1.6,0.4-2.5,0.4c-0.9,0-1.7-0.2-2.3-0.8c-0.6-0.5-0.8-1.3-0.8-2.3l0-5.1l-1.8,0l0-1.4l1.8,0L246.4,193.9z"/>
<rect x="158.4" y="174.8" class="st0" width="136.4" height="52.2"/>
<path class="st1" d="M8.5,81.3l5.2-5.2l5.2,5.2l3-3l-8.2-8.2l-8.2,8.2L8.5,81.3z"/>
<path class="st1" d="M0.3,83.5l3-3l3,3l-3,3L0.3,83.5z"/>
<path class="st1" d="M8.5,85.6l5.2,5.2l5.2-5.2l3,3l0,0l-8.2,8.2l-8.2-8.2l0,0L8.5,85.6z"/>
<path class="st1" d="M21,83.5l3-3l3,3l-3,3L21,83.5z"/>
<path class="st1" d="M16.8,83.5l-3.1-3.1l-2.3,2.3l-0.3,0.3l-0.5,0.5l0,0l0,0l3.1,3.1L16.8,83.5L16.8,83.5L16.8,83.5z"/>
<path class="st1" d="M31.8,76.6h6.6c1.6,0,2.9,0.4,3.7,1.3c0.3,0.3,0.6,0.7,0.7,1.1c0.2,0.4,0.2,0.9,0.2,1.3v0c0,0.4,0,0.7-0.1,1.1
	c-0.1,0.3-0.2,0.6-0.4,0.8c-0.2,0.2-0.4,0.5-0.6,0.7c-0.2,0.2-0.5,0.4-0.7,0.5c0.7,0.3,1.4,0.7,1.9,1.3c0.5,0.5,0.7,1.3,0.7,2.2v0
	c0,0.6-0.1,1.2-0.4,1.7c-0.3,0.5-0.6,0.9-1.1,1.2c-0.5,0.3-1.1,0.6-1.7,0.7c-0.7,0.2-1.4,0.3-2.2,0.2h-6.7V76.6z M37.7,82.3
	c0.6,0,1.1-0.1,1.6-0.4c0.2-0.1,0.4-0.3,0.5-0.5c0.1-0.2,0.2-0.4,0.1-0.7v0c0-0.2,0-0.4-0.1-0.6c-0.1-0.2-0.2-0.4-0.4-0.5
	c-0.4-0.2-0.9-0.4-1.5-0.4h-3.1v3H37.7z M38.5,88c0.6,0,1.1-0.1,1.6-0.4c0.2-0.1,0.3-0.3,0.5-0.5c0.1-0.2,0.1-0.4,0.1-0.7v0
	c0-0.2,0-0.4-0.1-0.6c-0.1-0.2-0.2-0.4-0.4-0.5c-0.4-0.3-0.9-0.4-1.8-0.4h-3.6V88H38.5z"/>
<path class="st1" d="M47.7,76.6h3.1v14.2h-3.1V76.6z"/>
<path class="st1" d="M55.5,76.6h2.9l6.6,8.7v-8.7h3.1v14.2h-2.7l-6.9-9v9h-3.1V76.6z"/>
<path class="st1" d="M77.6,76.5h2.9l6.1,14.3h-3.3L82,87.6h-6l-1.3,3.2h-3.2L77.6,76.5z M80.9,84.8L79,80.2l-1.9,4.6H80.9z"/>
<path class="st1" d="M89.9,76.6h2.9l6.6,8.7v-8.7h3.1v14.2h-2.7l-6.9-9v9h-3.1V76.6z"/>
<path class="st1" d="M113.7,91c-1,0-2-0.2-2.9-0.6c-0.9-0.4-1.6-0.9-2.3-1.5c-0.7-0.7-1.2-1.5-1.5-2.3c-0.4-0.9-0.6-1.9-0.5-2.9v0
	c0-1.9,0.7-3.8,2.1-5.2c0.7-0.7,1.4-1.2,2.3-1.6c0.9-0.4,2-0.6,3-0.6c0.6,0,1.2,0,1.8,0.2c0.5,0.1,1,0.2,1.5,0.4
	c0.4,0.2,0.8,0.4,1.2,0.7c0.4,0.3,0.7,0.6,1.1,0.9l-2,2.3c-0.5-0.5-1.1-0.9-1.7-1.2c-0.6-0.3-1.3-0.4-1.9-0.4
	c-0.6,0-1.1,0.1-1.6,0.3c-0.5,0.2-1,0.6-1.3,1c-0.4,0.4-0.7,0.9-0.9,1.4c-0.2,0.5-0.3,1.1-0.3,1.7v0c0,0.6,0.1,1.2,0.3,1.7
	c0.2,0.5,0.5,1,0.8,1.4c0.4,0.4,0.8,0.8,1.3,1c0.5,0.2,1.1,0.3,1.6,0.3c0.7,0,1.4-0.1,2.1-0.4c0.6-0.3,1.2-0.7,1.7-1.2l2,2
	c-0.3,0.4-0.7,0.7-1.1,1.1c-0.4,0.3-0.8,0.6-1.3,0.8c-0.5,0.2-1,0.4-1.5,0.5C114.9,90.9,114.3,91,113.7,91L113.7,91z"/>
<path class="st1" d="M123.2,76.6h10.7v2.8h-7.6v2.9h6.7V85h-6.7v3h7.7v2.8h-10.8L123.2,76.6z"/>
<path class="st2" d="M331.2,74.7c1.8-0.1,3.7,0.2,5.3,1.1c2.4,1.2,4.3,3.3,5.2,5.9c0.4,1.1,0.6,2.3,0.6,3.5v4.4c0,0.2,0,0.4,0,0.5
	c-0.1,0.4-0.4,0.8-0.8,1c-0.3,0.1-0.6,0.2-0.9,0.1c-0.7-0.1-1.2-0.8-1.2-1.4c0-1.4,0-2.7,0-4.1c0-0.4,0-0.8-0.2-1.1
	c-0.3-0.6-1.2-0.9-1.8-0.7c-0.6,0.2-1,0.8-1,1.4c0,1.4,0,2.8,0,4.2c0,0.3,0,0.5-0.1,0.8c-0.1,0.5-0.5,0.9-1,1
	c-0.6,0.2-1.4-0.1-1.7-0.7c-0.2-0.4-0.2-0.8-0.2-1.2c0-1.4,0-2.8,0-4.1c0-0.7-0.6-1.3-1.3-1.4c-0.5-0.1-0.9,0.1-1.3,0.4
	c-0.3,0.3-0.5,0.7-0.5,1.1v4c0,0.3,0,0.7-0.1,1c-0.2,0.6-0.8,1-1.4,1c-0.6,0-1.2-0.4-1.4-1c-0.1-0.3-0.1-0.6-0.1-0.9
	c0-1.4,0-2.8,0-4.2c0-0.7-0.5-1.3-1.2-1.4c-0.6-0.1-1.3,0.2-1.6,0.7c-0.1,0.2-0.2,0.5-0.2,0.8v4.5c0,0.4-0.2,0.9-0.5,1.2
	c-0.5,0.4-1.3,0.5-1.9,0.1c-0.4-0.3-0.6-0.7-0.6-1.2v-4.6c0-1.7,0.4-3.4,1.3-5c0.7-1.2,1.6-2.3,2.7-3.2
	C327,75.6,329.1,74.8,331.2,74.7z"/>
<path class="st2" d="M372.2,80h-2.3c0.1-1.6,0.4-3,1.9-3.9c1.5-0.9,3.1-1.1,4.7-1c0.9,0.1,1.8,0.3,2.6,0.6c1.5,0.7,2.2,1.8,2.2,3.4
	c0,2.8,0,5.6,0,8.5c0,1,0.2,1.2,1.2,1.1c0.1,0,0.2,0,0.3-0.1c0,0.1,0,0.1,0,0.1v1.7c-0.8,0.3-1.7,0.4-2.5,0.1
	c-0.6-0.2-1-0.6-1.2-1.2c-0.1-0.3-0.2-0.6-0.3-0.9c-0.1,0.1-0.2,0.2-0.2,0.3c-1.8,1.8-3.9,2.6-6.5,1.9c-1.8-0.5-3-2.1-3.1-3.9
	c0-0.6,0-1.2,0.2-1.8c0.3-1.3,1.3-2.1,2.5-2.7c0.8-0.4,1.8-0.5,2.7-0.6c1.1-0.1,2.1-0.3,3.2-0.4c0.7-0.1,1.1-0.5,1.2-1.2
	c0.2-1.5-0.4-2.4-1.8-2.8c-0.8-0.2-1.7-0.2-2.6-0.1c-1.3,0.2-2,0.9-2.2,2.2C372.3,79.6,372.2,79.8,372.2,80z M378.9,82.8
	c-1.1,0.6-2.1,0.7-3.1,0.9c-0.9,0.1-1.7,0.3-2.6,0.5c-1.1,0.4-1.6,1.3-1.5,2.5c0.1,1,0.8,1.8,1.9,2c1.7,0.3,3.2-0.2,4.4-1.5
	c0.4-0.4,0.6-0.9,0.7-1.4C378.9,84.9,378.8,83.9,378.9,82.8z M411.4,85.7c-0.1,0.2-0.1,0.5-0.1,0.6c-1,3-3,4.3-5.4,4.6
	c-4.2,0.5-6.6-2.3-7.2-5.2c-0.5-2.3-0.4-4.6,0.6-6.8c1-2.1,2.5-3.4,4.8-3.8c2.8-0.5,6.6,0.9,7.3,5.2c0.2,1.1,0.2,2.2,0.3,3.4H401
	c0.1,1.6,0.3,3.1,1.5,4.2c0.5,0.5,1.1,0.7,1.8,0.8c2.2,0.4,3.9-0.6,4.6-2.7c0.1-0.2,0.2-0.3,0.4-0.3C410,85.7,410.7,85.7,411.4,85.7
	z M401.1,81.7h8c-0.1-0.9-0.2-1.8-0.7-2.6c-0.4-0.8-1-1.3-1.9-1.6C403.8,76.5,400.9,78.7,401.1,81.7z M417.1,90.4h-2.4v-15h2.3v2.1
	c0.2-0.2,0.3-0.3,0.4-0.4c1.6-1.9,3.7-2.4,6.1-1.8c1.6,0.4,2.5,1.6,2.9,3.2c0.1,0.7,0.2,1.4,0.2,2c0,3.2,0,6.5,0,9.7
	c0,0.1,0,0.2,0,0.3h-2.5V90c0-3,0-6,0-9c0-0.7-0.1-1.4-0.3-2c-0.3-1.1-1.2-1.6-2.3-1.7c-2-0.1-3.6,1-4.1,2.8c-0.2,0.6-0.2,1.3-0.2,2
	c0,2.6,0,5.3,0,7.9V90.4z M385.2,75.4h2.3v6.4c0.1-0.1,0.2-0.2,0.3-0.3c1.9-1.9,3.8-3.9,5.7-5.9c0.2-0.2,0.3-0.2,0.6-0.2
	c0.9,0,1.8,0,2.8,0c-0.1,0.1-0.2,0.2-0.3,0.3c-1.7,1.7-3.3,3.4-5,5c-0.2,0.2-0.2,0.3-0.1,0.5c1.8,2.9,3.7,5.9,5.5,8.8
	c0.1,0.1,0.1,0.2,0.2,0.4c-0.1,0-0.2,0-0.3,0c-0.8,0-1.7,0-2.5,0c-0.2,0-0.3-0.1-0.5-0.3c-1.4-2.3-2.8-4.7-4.2-7.1
	c-0.1-0.1-0.1-0.2-0.2-0.3c-0.6,0.6-1.3,1.3-1.9,1.9c-0.1,0.1-0.1,0.2-0.1,0.4c0,1.6,0,3.3,0,4.9v0.4c-0.5,0-0.9,0-1.4,0
	c-0.3,0-0.8,0.1-0.9-0.1c-0.2-0.1-0.1-0.6-0.1-0.9V75.8C385.2,75.7,385.2,75.6,385.2,75.4z M358.3,75.4c-1.9,1.9-3.7,3.7-5.6,5.6
	c2,3.2,3.9,6.3,5.9,9.5c-0.2,0-0.3,0-0.4,0c-0.8,0-1.6,0-2.4,0c-0.2,0-0.4-0.1-0.5-0.3c-1.4-2.3-2.8-4.7-4.2-7.1
	c-0.1-0.1-0.1-0.2-0.2-0.3c-0.4,0.4-0.7,0.8-1.1,1.1c-0.8,0.6-1,1.3-1,2.3c0.1,1.3,0,2.6,0,3.9v0.4h-2.3v-15h2.3v6.3
	c0.1,0,0.1,0.1,0.1,0.1c0.1-0.1,0.1-0.2,0.2-0.3c1.9-1.9,3.8-3.9,5.7-5.8c0.2-0.2,0.3-0.3,0.6-0.2c0.8,0,1.6,0,2.4,0
	C358,75.4,358.1,75.4,358.3,75.4z M362.9,77.9c1.2-1.7,2.4-3.2,4.7-2.7v2.6c-0.6,0-1.2,0-1.8,0.1c-1.4,0.3-2.5,1.6-2.8,3.2
	c0,0.3-0.1,0.6-0.1,0.9c0,2.7,0,5.4,0,8v0.4h-2.4v-15h2.3C362.9,76.2,362.9,77,362.9,77.9z"/>
<g>
	<path class="st3" d="M263.6,82.5c-1.7-0.5-2.3-0.9-2.3-1.9c0-0.9,0.8-1.6,2.2-1.6c1.5,0,2.9,0.5,4.1,1.5v-3
		c-1.2-0.8-2.5-1.1-4.2-1.1c-3,0-5.2,1.4-5.2,4.4c0,2.5,1.3,3.7,4.3,4.4c1.9,0.5,2.7,0.9,2.7,2.1c0,1.1-0.9,1.6-2.4,1.6
		c-1.6-0.1-3.2-0.6-4.4-1.6v3.1c1.4,0.8,2.9,1.2,4.5,1.2c3.1,0,5.5-1.4,5.5-4.4C268.4,84.4,266.9,83.2,263.6,82.5z"/>
	<path class="st3" d="M209.7,70.3c-0.5,0-1,0.2-1.4,0.6s-0.6,0.8-0.6,1.4h0c0,0.5,0.2,1.1,0.6,1.4c0.4,0.4,0.9,0.6,1.4,0.6
		c0.5,0,1.1-0.2,1.4-0.6c0.4-0.4,0.6-0.9,0.6-1.4c0-0.5-0.3-1-0.6-1.4S210.2,70.3,209.7,70.3z"/>
	<path class="st3" d="M198.6,76.3c-4.3,0-7.5,3.1-7.5,7.6c0,4.5,3.1,7.6,7.5,7.6c4.4,0,7.5-3.1,7.5-7.6
		C206.1,79.4,202.9,76.3,198.6,76.3z M198.6,88.7c-2.4,0-4.2-1.9-4.2-4.8c0-2.9,1.8-4.8,4.2-4.8c2.5,0,4.2,1.9,4.2,4.8
		C202.8,86.8,201.1,88.7,198.6,88.7z"/>
	<path class="st3" d="M187.4,88.6c-2.8,0-4.8-1.8-4.8-4.7c0-3,2-4.7,4.6-4.7c0.8,0,1.5,0.1,2.2,0.4l1.4-2.3c-1.2-0.6-2.4-1-3.9-1
		c-4.3,0-7.6,2.9-7.6,7.6c0,4.7,3.2,7.6,7.6,7.6c1.4,0,2.9-0.3,4.1-1c0,0-1.5-2.2-1.5-2.3C189,88.5,188.2,88.6,187.4,88.6z"/>
	<rect x="208.1" y="76.6" class="st3" width="3.2" height="14.5"/>
	<path class="st3" d="M250.6,76.3c-1.6,0-3.3,0.4-4.7,1.2v2.8c1.2-0.7,2.5-1.2,4.2-1.2c1.6,0,2.8,0.7,2.8,2.3h0v1.2h-1.6
		c-4.2,0-6.7,1.4-6.7,4.4c0,3.3,2.8,4.4,6.5,4.4c1.6,0,3.6-0.2,5-0.6v-9.6C256,77.6,253.8,76.3,250.6,76.3z M252.9,84.8v4.1
		c-0.6,0.1-1.3,0.2-1.8,0.2c-2,0-3.3-0.6-3.3-2.1c0-1.5,1.5-2.1,3.7-2.1L252.9,84.8L252.9,84.8z"/>
	<path class="st3" d="M220.8,76.3c-2.3,0-4.5,0.4-6.6,1.2h0v13.6h3.2V79.7c0.9-0.3,2-0.4,3.1-0.4c1.8,0,3.1,0.8,3.1,2.8v9h3.2v-9.3
		C226.9,77.7,224.6,76.3,220.8,76.3z"/>
	<polygon class="st3" points="258.4,87.2 258.4,87.2 258.4,87.2 	"/>
	<path class="st3" d="M236.2,76.3c-1.3,0-2.6,0.4-3.3,0.7v-8.2h-3.2v21.6c1.5,0.5,3.3,0.9,5.4,0.9c5.4,0,8.5-3.1,8.5-7.8
		C243.5,79,240.4,76.3,236.2,76.3z M235.1,88.7c-0.8,0-1.6-0.1-2.3-0.3v-8.5c0.7-0.4,1.6-0.7,2.9-0.7c2.5,0,4.5,1.7,4.5,4.5
		C240.2,87,238.1,88.7,235.1,88.7z"/>
	<path class="st3" d="M282.9,84.6V83c0-4-2-6.7-6.2-6.7c-4,0-7,3.1-7,7.7c0,4.6,3.1,7.5,7.6,7.5c1.9,0,3.8-0.4,5.1-1.3v-2.8
		c-1.4,0.9-2.9,1.4-4.9,1.4c-2.3,0-4.5-1.4-4.7-4v-0.1H282.9z M276.6,79c2.1,0,3.2,1.2,3.3,3.5h-6.9C273.3,80.3,274.7,79,276.6,79z"
		/>
</g>
</svg>
