<svg width="79" height="80" viewBox="0 0 79 80" fill="none" xmlns="http://www.w3.org/2000/svg">
<path d="M59.3892 70.4173H19.6094V9.58398H49.868L59.3892 19.3506V70.4173ZM20.4323 69.584H58.5662V19.6923L49.5142 10.4173H20.4323V69.584Z" fill="#252525"/>
<path d="M55.957 23.75H44.8477V12.5H45.6706V22.9167H55.957V23.75Z" fill="#252525"/>
<path d="M37.5826 24.584H24.6875V25.4173H37.5826V24.584Z" fill="#252525"/>
<path d="M37.5826 27.918H24.6875V28.7513H37.5826V27.918Z" fill="#252525"/>
<path d="M37.5826 31.25H24.6875V32.0833H37.5826V31.25Z" fill="#252525"/>
<path d="M37.5826 40.418H24.6875V41.2513H37.5826V40.418Z" fill="#252525"/>
<path d="M37.5826 43.75H24.6875V44.5833H37.5826V43.75Z" fill="#252525"/>
<path d="M37.5826 47.084H24.6875V47.9173H37.5826V47.084Z" fill="#252525"/>
<path d="M50.1979 66.2506C49.3028 66.2506 48.4277 65.9818 47.6834 65.4782C46.9391 64.9746 46.359 64.2588 46.0164 63.4213C45.6738 62.5838 45.5842 61.6622 45.7588 60.7732C45.9335 59.8841 46.3645 59.0674 46.9975 58.4264C47.6305 57.7854 48.437 57.3489 49.3149 57.1721C50.1929 56.9952 51.1029 57.086 51.93 57.4329C52.757 57.7798 53.4639 58.3672 53.9612 59.121C54.4585 59.8747 54.724 60.7608 54.724 61.6673C54.7218 62.8822 54.2442 64.0467 53.3959 64.9058C52.5476 65.7649 51.3976 66.2484 50.1979 66.2506ZM50.1979 57.9173C49.4655 57.9173 48.7495 58.1373 48.1406 58.5493C47.5316 58.9614 47.057 59.547 46.7767 60.2323C46.4964 60.9175 46.4231 61.6715 46.5659 62.3989C46.7088 63.1263 47.0615 63.7945 47.5794 64.319C48.0973 64.8434 48.7571 65.2006 49.4755 65.3453C50.1938 65.49 50.9384 65.4157 51.615 65.1319C52.2917 64.848 52.8701 64.3674 53.277 63.7507C53.6839 63.134 53.901 62.409 53.901 61.6673C53.8989 60.6734 53.508 59.7209 52.814 59.0181C52.12 58.3153 51.1794 57.9195 50.1979 57.9173Z" fill="#252525"/>
</svg>
