<svg width="71" height="73" viewBox="0 0 71 73" fill="none" xmlns="http://www.w3.org/2000/svg">
<path d="M24.6722 51.3507L21.1 47.6855L18.297 50.5674L15.1094 47.2824L15.6271 46.7502L18.297 49.4953L21.1 46.6133L24.6722 50.2785L27.0832 47.7919L27.6083 48.3318L24.6722 51.3507Z" fill="#252525"/>
<path d="M49.492 37.4195L46.4302 34.2714L44.3963 36.3702L42.3477 34.2638L42.8728 33.7239L44.3963 35.2904L46.4302 33.1992L49.492 36.3397L51.267 34.5147L51.7921 35.0546L49.492 37.4195Z" fill="#252525"/>
<path d="M41.6604 60.7266L20.8041 39.6935L7.41768 53.457L6.89258 52.9171L20.7967 38.6289L42.1781 60.1791L41.6604 60.7266Z" fill="#252525"/>
<path d="M63.1016 44.538L46.4535 27.5275L30.3454 43.9905L29.8203 43.4582L46.4535 26.4629L63.6267 43.9981L63.1016 44.538Z" fill="#252525"/>
<path d="M12.8763 17.4896C12.0718 17.4896 11.2853 17.2443 10.6164 16.7847C9.94747 16.3252 9.42611 15.672 9.11823 14.9078C8.81036 14.1436 8.7298 13.3027 8.88676 12.4914C9.04371 11.6801 9.43112 10.9349 10 10.35C10.5689 9.76506 11.2937 9.36674 12.0827 9.20536C12.8718 9.04399 13.6897 9.12681 14.4329 9.44336C15.1762 9.75991 15.8115 10.296 16.2585 10.9837C16.7054 11.6715 16.944 12.4801 16.944 13.3073C16.944 13.8565 16.8388 14.4004 16.6344 14.9078C16.43 15.4152 16.1303 15.8763 15.7526 16.2646C15.3749 16.653 14.9265 16.961 14.4329 17.1712C13.9394 17.3814 13.4105 17.4896 12.8763 17.4896ZM12.8763 9.88542C12.2181 9.88542 11.5746 10.0861 11.0273 10.4621C10.48 10.8381 10.0534 11.3725 9.80152 11.9978C9.54962 12.6231 9.48371 13.3111 9.61213 13.9749C9.74054 14.6386 10.0575 15.2484 10.523 15.7269C10.9884 16.2055 11.5814 16.5314 12.227 16.6634C12.8726 16.7955 13.5418 16.7277 14.1499 16.4687C14.7581 16.2097 15.2778 15.7711 15.6435 15.2084C16.0092 14.6457 16.2044 13.9841 16.2044 13.3073C16.2044 12.3998 15.8538 11.5294 15.2296 10.8877C14.6055 10.2459 13.759 9.88542 12.8763 9.88542Z" fill="#252525"/>
<path d="M7.41768 40.3627L6.89258 39.8228L23.585 22.6602L35.5145 34.3249L35.0041 34.8724L23.5998 23.7247L7.41768 40.3627Z" fill="#252525"/>
<path d="M63.1081 31.8245L44.7072 13.0802L31.0767 26.5092L30.5664 25.9617L44.7146 12.0156L63.6258 31.2922L63.1081 31.8245Z" fill="#252525"/>
<path d="M64.1061 63.1152H7.1582V63.8756H64.1061V63.1152Z" fill="#252525"/>
<path d="M47.8366 21.4512L45.248 18.7898L43.3991 20.6908L40.9141 18.1358L41.4392 17.6035L43.3991 19.611L45.248 17.71L47.8366 20.3714L49.0495 19.1243L49.5746 19.6566L47.8366 21.4512Z" fill="#252525"/>
</svg>
