<svg width="67" height="68" viewBox="0 0 67 68" fill="none" xmlns="http://www.w3.org/2000/svg">
<path d="M7.67839 25.7828H6.98047L6.98745 22.0783L31.1703 9.05909L34.7715 9.04492L34.8483 9.08742L60.0849 21.9366L60.078 25.6412H59.3801L59.387 22.3758L34.611 9.75326L31.3447 9.76742L7.68536 22.5033L7.67839 25.7828Z" fill="#252525"/>
<path d="M52.6725 27.3262H51.9746V52.557H52.6725V27.3262Z" fill="#252525"/>
<path d="M20.3932 27.3262H19.6953V52.557H20.3932V27.3262Z" fill="#252525"/>
<path d="M31.3092 27.3262H30.6113V52.557H31.3092V27.3262Z" fill="#252525"/>
<path d="M36.5514 27.3262H35.8535V52.557H36.5514V27.3262Z" fill="#252525"/>
<path d="M47.4382 27.3262H46.7402V52.557H47.4382V27.3262Z" fill="#252525"/>
<path d="M15.153 27.3262H14.4551V52.557H15.153V27.3262Z" fill="#252525"/>
<path d="M57.5739 24.7713L9.41797 24.959L9.42065 25.6673L57.5765 25.4796L57.5739 24.7713Z" fill="#252525"/>
<path d="M57.5781 54.6055H9.42188V55.3138H57.5781V54.6055Z" fill="#252525"/>
<path d="M60.3704 58.2461H6.63086V58.9544H60.3704V58.2461Z" fill="#252525"/>
</svg>
