<?xml version="1.0" encoding="utf-8"?>
<!-- Generator: Adobe Illustrator 23.1.0, SVG Export Plug-In . SVG Version: 6.00 Build 0)  -->
<svg version="1.1" id="Слой_1" xmlns="http://www.w3.org/2000/svg" xmlns:xlink="http://www.w3.org/1999/xlink" x="0px" y="0px"
	 viewBox="0 0 354 514" style="enable-background:new 0 0 354 514;" xml:space="preserve">
<style type="text/css">
	.st0{fill:#F9F9F9;}
	.st1{fill:none;stroke:#000000;stroke-width:0.6451;}
	.st2{clip-path:url(#SVGID_2_);}
	.st3{fill:#500B06;}
	.st4{fill:#C22A1D;}
	.st5{fill:#181818;}
	.st6{fill:none;stroke:#000000;stroke-width:0.8848;}
	.st7{fill:#F3BA2F;}
	.st8{fill:#5741D9;}
	.st9{fill-rule:evenodd;clip-rule:evenodd;fill:#1652F0;}
</style>
<rect x="0.3" y="0.3" class="st0" width="353.5" height="512.8"/>
<path d="M107.2,258.7l13.9,0l0,1.9l-5.9,0l0,15l-2,0l0-15l-5.9,0L107.2,258.7z M122.3,266c0.4-0.8,1.1-1.3,2.1-1.8
	c0.9-0.4,1.9-0.6,2.9-0.5l0,1.9c-1.1-0.1-2.1,0.1-3,0.6c-0.9,0.5-1.5,1.2-1.8,2.1l0,7.2l-1.9,0l0-11.6l1.7,0L122.3,266z
	 M138.7,273.1c0,0.6,0.3,0.9,0.9,0.9c0.3,0,0.6-0.1,0.9-0.2l0,1.6c-0.5,0.2-1,0.3-1.4,0.3c-1.1,0-1.8-0.5-2.1-1.4
	c-1.2,1-2.7,1.6-4.5,1.6c-1.1,0-2.1-0.3-2.9-0.9c-0.8-0.6-1.2-1.5-1.2-2.6c0-1.4,0.5-2.4,1.5-3c1-0.6,2.3-0.9,3.7-1
	c1.1,0,2.1,0.1,3.2,0.4l0-0.4c0-0.9-0.3-1.6-0.9-2.1c-0.6-0.5-1.4-0.8-2.4-0.8c-1.5,0-2.9,0.3-4.2,0.9l0-1.9c1.5-0.5,3-0.8,4.4-0.8
	c1.6,0,2.8,0.4,3.7,1.3c0.9,0.8,1.4,2,1.4,3.6L138.7,273.1z M130.3,272.2c0,0.6,0.2,1.1,0.7,1.5c0.5,0.3,1.1,0.5,1.8,0.5
	c1.6,0,2.9-0.6,4-1.7l0-2.1c-1.1-0.2-2.1-0.3-2.9-0.3c-1,0-1.8,0.2-2.5,0.5C130.6,270.8,130.3,271.4,130.3,272.2z M151.8,258.5
	l1.9,0l0,16.9l-1.7,0l0-1.9c-1.3,1.5-2.9,2.2-4.7,2.2c-1.7,0-3-0.6-4.2-1.7c-1.1-1.2-1.6-2.6-1.7-4.3c0-1.7,0.5-3.2,1.6-4.4
	c1.1-1.2,2.5-1.7,4.1-1.8c1.8,0,3.3,0.7,4.5,2L151.8,258.5z M151.9,268.2c-0.4-0.8-0.9-1.5-1.7-2c-0.8-0.5-1.6-0.8-2.6-0.8
	c-1.2,0-2.1,0.4-2.9,1.2c-0.8,0.8-1.2,1.8-1.2,3.1c0,1.3,0.4,2.3,1.2,3.1c0.8,0.8,1.8,1.2,2.9,1.2c1,0,1.9-0.3,2.6-0.8
	c0.8-0.5,1.3-1.2,1.7-2L151.9,268.2z M159.4,275.4l-1.9,0l0-11.6l1.9,0L159.4,275.4z M159.3,259.2c0.2,0.2,0.4,0.5,0.4,0.9
	c0,0.4-0.1,0.7-0.4,0.9c-0.2,0.2-0.5,0.3-0.9,0.3c-0.4,0-0.7-0.1-0.9-0.3c-0.2-0.2-0.4-0.5-0.4-0.9c0-0.4,0.1-0.7,0.4-0.9
	c0.2-0.2,0.5-0.3,0.9-0.3S159,259,159.3,259.2z M164.7,265.5c0.4-0.6,1-1,1.7-1.4c0.8-0.4,1.6-0.6,2.4-0.6c1.4,0,2.6,0.4,3.5,1.3
	c0.9,0.9,1.4,2,1.4,3.4l0,7.1l-1.9,0l0-6.9c0-1-0.3-1.8-0.9-2.4c-0.6-0.5-1.3-0.8-2.2-0.8c-1.5,0-2.7,0.8-3.8,2.3l0,7.8l-1.9,0
	l0-11.6l1.7,0L164.7,265.5z M178,273.9c-1.1-1.2-1.6-2.6-1.7-4.3c0-1.7,0.5-3.2,1.6-4.4c1.1-1.2,2.5-1.7,4.1-1.8
	c1.8,0,3.4,0.7,4.7,2.2l0-1.9l1.7,0l0,11.6c0,1.9-0.6,3.3-1.8,4.2c-1.2,0.9-2.7,1.4-4.5,1.4c-1.7,0-3.3-0.4-4.7-1.1l0-1.9
	c1.4,0.8,2.9,1.2,4.5,1.2c1.4,0,2.5-0.3,3.4-0.9c0.9-0.6,1.3-1.6,1.3-2.9l0-1.8c-1.1,1.4-2.6,2.1-4.5,2.1
	C180.5,275.7,179.1,275.1,178,273.9z M186.6,268.1c-0.4-0.8-0.9-1.5-1.7-2c-0.8-0.5-1.6-0.8-2.6-0.8c-1.2,0-2.1,0.4-2.9,1.2
	c-0.8,0.8-1.2,1.8-1.2,3.1c0,1.3,0.4,2.3,1.2,3.1c0.8,0.8,1.8,1.2,2.9,1.2c1,0,1.9-0.3,2.6-0.8c0.8-0.5,1.3-1.1,1.7-1.9L186.6,268.1
	z M198.4,260.1l1.9-0.5l0,4.1l4.6,0l0,1.8l-4.6,0l0,6c0,0.9,0.2,1.4,0.6,1.8c0.4,0.3,1,0.5,1.9,0.5c0.8,0,1.7-0.2,2.6-0.5l0,1.8
	c-1,0.4-2,0.5-3.1,0.5c-1.2,0-2.1-0.3-2.8-0.9c-0.7-0.6-1-1.6-1-2.8l0-6.3l-2.2,0l0-1.8l2.2,0L198.4,260.1z M208.7,274
	c-1.2-1.1-1.8-2.6-1.8-4.5c0-1.9,0.6-3.4,1.8-4.4c1.2-1.1,2.7-1.6,4.3-1.7c1.7,0,3.1,0.5,4.4,1.6c1.2,1.1,1.8,2.6,1.8,4.4
	c0,1.9-0.6,3.4-1.8,4.5c-1.2,1.1-2.7,1.6-4.3,1.6C211.3,275.6,209.9,275,208.7,274z M216,272.6c0.8-0.8,1.2-1.8,1.2-3.1
	c0-1.3-0.4-2.3-1.2-3.1c-0.8-0.8-1.8-1.2-3-1.2c-1.2,0-2.2,0.4-3,1.2c-0.8,0.8-1.2,1.8-1.2,3.1c0,1.3,0.4,2.3,1.2,3.1
	c0.8,0.8,1.8,1.1,3,1.1C214.2,273.7,215.2,273.4,216,272.6z M227.9,258.3l1.9,0l0,7.1c1.2-1.4,2.6-2,4.5-2c1.7,0,3,0.6,4.1,1.7
	c1.1,1.2,1.7,2.6,1.7,4.3c0,1.7-0.5,3.2-1.7,4.4c-1.1,1.2-2.5,1.7-4.1,1.8c-1.8,0-3.4-0.7-4.7-2.2l0,1.9l-1.7,0L227.9,258.3z
	 M237.1,272.5c0.8-0.8,1.2-1.8,1.2-3.1c0-1.3-0.4-2.3-1.2-3.1c-0.8-0.8-1.7-1.2-2.9-1.2c-1,0-1.9,0.3-2.6,0.8
	c-0.8,0.6-1.3,1.2-1.7,2l0,2.9c0.4,0.8,0.9,1.5,1.7,2c0.8,0.5,1.6,0.8,2.6,0.8C235.3,273.7,236.3,273.3,237.1,272.5z M242.2,269.4
	c0-1.9,0.6-3.4,1.7-4.5c1.2-1.1,2.5-1.6,4-1.6c1.4,0,2.6,0.3,3.5,1.1c0.9,0.7,1.5,1.6,1.8,2.6c0.3,1,0.3,2.1,0.1,3.2l-9.2,0
	c0.1,1.1,0.6,2,1.5,2.6s2,0.9,3.3,0.9c1.4,0,2.7-0.3,3.8-1l0,1.9c-1.1,0.6-2.4,0.9-4.1,0.9c-1.8,0-3.4-0.5-4.6-1.6
	C242.8,272.9,242.2,271.4,242.2,269.4z M251.6,268.5c0-0.3,0-0.7-0.1-1.1c-0.1-0.4-0.3-0.7-0.5-1.1c-0.2-0.4-0.6-0.7-1.1-0.9
	c-0.5-0.2-1.1-0.4-1.8-0.4c-1,0-2,0.3-2.7,0.9c-0.8,0.6-1.2,1.5-1.2,2.5L251.6,268.5z"/>
<line class="st1" x1="68.3" y1="333.6" x2="68.3" y2="359"/>
<line class="st1" x1="181.9" y1="333.6" x2="181.9" y2="375.7"/>
<line class="st1" x1="181.9" y1="414.3" x2="181.9" y2="430.9"/>
<line class="st1" x1="295.5" y1="333.6" x2="295.5" y2="359"/>
<line class="st1" x1="68" y1="358.7" x2="295.2" y2="358.7"/>
<path d="M31.9,301.8c0-1.1,0.3-2,0.8-2.9c0.5-0.8,1.2-1.4,1.9-1.8c0.8-0.4,1.6-0.6,2.5-0.6c1,0,2,0.2,2.8,0.7l0,1.2
	c-0.7-0.5-1.6-0.7-2.6-0.7c-1.1,0-2.1,0.4-2.9,1.1c-0.8,0.7-1.2,1.7-1.3,3c0,0.8,0.2,1.6,0.6,2.2c0.4,0.6,1,1.1,1.6,1.3
	c0.6,0.3,1.3,0.4,2,0.4c1.1,0,1.9-0.2,2.6-0.7l0,1.2c-0.9,0.4-1.8,0.7-2.9,0.7c-0.6,0-1.3-0.1-1.9-0.3c-0.6-0.2-1.2-0.5-1.7-0.9
	c-0.5-0.4-0.9-0.9-1.2-1.6C32,303.4,31.9,302.6,31.9,301.8z M40.9,303.3c0-1.1,0.3-2,1-2.6c0.7-0.6,1.5-1,2.4-1
	c0.8,0,1.5,0.2,2.1,0.6c0.5,0.4,0.9,0.9,1.1,1.5c0.2,0.6,0.2,1.2,0,1.9l-5.4,0c0.1,0.7,0.4,1.2,0.9,1.5c0.5,0.3,1.2,0.5,1.9,0.5
	c0.8,0,1.6-0.2,2.2-0.6l0,1.1c-0.6,0.3-1.4,0.5-2.4,0.5c-1.1,0-2-0.3-2.7-0.9S40.9,304.5,40.9,303.3z M46.4,302.8c0-0.2,0-0.4,0-0.6
	c-0.1-0.2-0.2-0.4-0.3-0.7c-0.1-0.2-0.4-0.4-0.7-0.5c-0.3-0.1-0.7-0.2-1.1-0.2c-0.6,0-1.1,0.2-1.6,0.5c-0.4,0.4-0.7,0.9-0.7,1.5
	L46.4,302.8z M50.1,300.9c0.2-0.3,0.6-0.6,1-0.8c0.4-0.2,0.9-0.3,1.4-0.3c0.8,0,1.5,0.3,2,0.8c0.5,0.5,0.8,1.2,0.8,2l0,4.2l-1.1,0
	l0-4.1c0-0.6-0.2-1.1-0.5-1.4c-0.3-0.3-0.8-0.5-1.3-0.5c-0.9,0-1.6,0.5-2.2,1.4l0,4.6l-1.1,0l0-6.8l1,0L50.1,300.9z M57.8,297.7
	l1.1-0.3l0,2.4l2.7,0l0,1.1l-2.7,0l0,3.5c0,0.5,0.1,0.9,0.3,1c0.2,0.2,0.6,0.3,1.1,0.3c0.5,0,1-0.1,1.5-0.3l0,1.1
	c-0.6,0.2-1.2,0.3-1.8,0.3c-0.7,0-1.2-0.2-1.6-0.5c-0.4-0.4-0.6-0.9-0.6-1.6l0-3.7l-1.3,0l0-1.1l1.3,0L57.8,297.7z M64.2,301
	c0.3-0.4,0.7-0.8,1.2-1c0.5-0.3,1.1-0.4,1.7-0.3l0,1.1c-0.7-0.1-1.2,0-1.8,0.3c-0.5,0.3-0.9,0.7-1.1,1.3l0,4.2l-1.1,0l0-6.8l1,0
	L64.2,301z M73.8,305.2c0,0.4,0.2,0.5,0.5,0.5c0.2,0,0.3,0,0.5-0.1l0,0.9c-0.3,0.1-0.6,0.2-0.9,0.2c-0.7,0-1.1-0.3-1.3-0.8
	c-0.7,0.6-1.6,0.9-2.7,0.9c-0.7,0-1.2-0.2-1.7-0.5c-0.5-0.4-0.7-0.9-0.7-1.5c0-0.8,0.3-1.4,0.9-1.7c0.6-0.4,1.3-0.6,2.2-0.6
	c0.6,0,1.3,0.1,1.9,0.2l0-0.2c0-0.5-0.2-0.9-0.5-1.2c-0.3-0.3-0.8-0.5-1.4-0.5c-0.9,0-1.7,0.2-2.5,0.5l0-1.1
	c0.9-0.3,1.8-0.5,2.6-0.5c0.9,0,1.7,0.2,2.2,0.7c0.5,0.5,0.8,1.2,0.8,2.1L73.8,305.2z M68.9,304.7c0,0.4,0.1,0.7,0.4,0.9
	c0.3,0.2,0.6,0.3,1.1,0.3c0.9,0,1.7-0.3,2.3-1l0-1.2c-0.6-0.1-1.2-0.2-1.7-0.2c-0.6,0-1.1,0.1-1.5,0.3
	C69.1,303.9,68.9,304.2,68.9,304.7z M76,296.2l1.1,0l0,10.4l-1.1,0L76,296.2z M80.5,306.6l-1.1,0l0-6.8l1.1,0L80.5,306.6z
	 M80.4,297.1c0.1,0.1,0.2,0.3,0.2,0.5c0,0.2-0.1,0.4-0.2,0.5c-0.1,0.1-0.3,0.2-0.5,0.2c-0.2,0-0.4-0.1-0.5-0.2
	c-0.1-0.1-0.2-0.3-0.2-0.5c0-0.2,0.1-0.4,0.2-0.5c0.1-0.1,0.3-0.2,0.5-0.2C80.1,296.9,80.3,297,80.4,297.1z M82.2,299.8l5.2,0l0,1
	l-4,4.8l4.3,0l0,1l-5.6,0l0-1l4-4.8l-3.8,0L82.2,299.8z M88.6,303.2c0-1.1,0.3-2,1-2.6c0.7-0.6,1.5-1,2.4-1c0.8,0,1.5,0.2,2.1,0.6
	c0.5,0.4,0.9,0.9,1.1,1.5c0.2,0.6,0.2,1.2,0,1.9l-5.4,0c0.1,0.7,0.4,1.2,0.9,1.5c0.5,0.3,1.2,0.5,1.9,0.5c0.8,0,1.6-0.2,2.2-0.6
	l0,1.1c-0.6,0.3-1.4,0.5-2.4,0.5c-1.1,0-2-0.3-2.7-0.9C89,305.2,88.6,304.3,88.6,303.2z M94.2,302.7c0-0.2,0-0.4,0-0.6
	c-0.1-0.2-0.2-0.4-0.3-0.7c-0.1-0.2-0.4-0.4-0.7-0.5c-0.3-0.1-0.7-0.2-1.1-0.2c-0.6,0-1.1,0.2-1.6,0.5c-0.4,0.4-0.7,0.9-0.7,1.5
	L94.2,302.7z M102.4,296.6l1.1,0l0,9.9l-1,0l0-1.1c-0.8,0.9-1.7,1.3-2.7,1.3c-1,0-1.8-0.3-2.4-1c-0.6-0.7-1-1.5-1-2.6s0.3-1.9,1-2.6
	c0.7-0.7,1.5-1,2.4-1c1.1,0,2,0.4,2.6,1.2L102.4,296.6z M102.4,302.3c-0.2-0.5-0.5-0.9-1-1.2c-0.4-0.3-1-0.5-1.5-0.5
	c-0.7,0-1.3,0.2-1.7,0.7c-0.5,0.5-0.7,1.1-0.7,1.8s0.2,1.4,0.7,1.8c0.5,0.5,1,0.7,1.7,0.7c0.6,0,1.1-0.2,1.5-0.5s0.8-0.7,1-1.2
	L102.4,302.3z M34.1,321.3c0-1.1,0.3-2,1-2.6c0.7-0.6,1.5-1,2.4-1c0.8,0,1.5,0.2,2.1,0.6c0.5,0.4,0.9,0.9,1.1,1.5
	c0.2,0.6,0.2,1.2,0,1.9l-5.4,0c0.1,0.7,0.4,1.2,0.9,1.5c0.5,0.3,1.2,0.5,1.9,0.5c0.8,0,1.6-0.2,2.2-0.6l0,1.1
	c-0.6,0.3-1.4,0.5-2.4,0.5c-1.1,0-2-0.3-2.7-0.9C34.5,323.4,34.1,322.5,34.1,321.3z M39.7,320.8c0-0.2,0-0.4,0-0.6
	c-0.1-0.2-0.2-0.4-0.3-0.7c-0.1-0.2-0.4-0.4-0.7-0.5c-0.3-0.1-0.7-0.2-1.1-0.2c-0.6,0-1.1,0.2-1.6,0.5c-0.4,0.4-0.7,0.9-0.7,1.5
	L39.7,320.8z M46.5,317.9l1.3,0l-2.5,3.3l2.6,3.5l-1.3,0l-2-2.7l-2,2.7l-1.3,0l2.6-3.5l-2.5-3.3l1.3,0l1.9,2.5L46.5,317.9z
	 M48.4,321.3c0-0.6,0.1-1.1,0.3-1.6c0.2-0.5,0.5-0.9,0.8-1.1c0.4-0.3,0.8-0.5,1.2-0.6c0.4-0.2,0.9-0.2,1.3-0.2
	c0.8,0,1.5,0.2,2.1,0.5l0,1.1c-0.5-0.4-1.2-0.6-2-0.6c-0.7,0-1.4,0.2-1.9,0.6c-0.5,0.4-0.8,1.1-0.8,1.9c0,0.8,0.3,1.5,0.8,1.9
	c0.5,0.4,1.2,0.6,1.9,0.6c0.8,0,1.4-0.2,2.1-0.6l0,1.1c-0.6,0.3-1.4,0.5-2.2,0.5c-1,0-1.8-0.3-2.6-0.9
	C48.8,323.3,48.4,322.4,48.4,321.3z M55.9,314.7l1.1,0l0,4c0.3-0.3,0.6-0.5,1-0.7c0.4-0.2,0.9-0.3,1.3-0.3c0.8,0,1.5,0.3,2,0.8
	c0.5,0.5,0.8,1.2,0.8,2l0,4.2l-1.1,0l0-4.1c0-0.6-0.2-1.1-0.5-1.4c-0.3-0.3-0.8-0.5-1.3-0.5c-0.9,0-1.6,0.5-2.2,1.4l0,4.6l-1.1,0
	L55.9,314.7z M69.8,323.2c0,0.4,0.2,0.5,0.5,0.5c0.2,0,0.3,0,0.5-0.1l0,0.9c-0.3,0.1-0.6,0.2-0.9,0.2c-0.7,0-1.1-0.3-1.3-0.8
	c-0.7,0.6-1.6,0.9-2.7,0.9c-0.7,0-1.2-0.2-1.7-0.5c-0.5-0.4-0.7-0.9-0.7-1.5c0-0.8,0.3-1.4,0.9-1.7c0.6-0.4,1.3-0.6,2.2-0.6
	c0.6,0,1.3,0.1,1.9,0.2l0-0.2c0-0.5-0.2-0.9-0.5-1.2c-0.3-0.3-0.8-0.5-1.4-0.5c-0.9,0-1.7,0.2-2.5,0.5l0-1.1
	c0.9-0.3,1.8-0.5,2.6-0.5c0.9,0,1.7,0.2,2.2,0.7c0.5,0.5,0.8,1.2,0.8,2.1L69.8,323.2z M64.8,322.7c0,0.4,0.1,0.7,0.4,0.9
	c0.3,0.2,0.6,0.3,1.1,0.3c0.9,0,1.7-0.3,2.3-1l0-1.2c-0.6-0.1-1.2-0.2-1.7-0.2c-0.6,0-1.1,0.1-1.5,0.3
	C65,321.9,64.8,322.2,64.8,322.7z M72.9,318.8c0.2-0.3,0.6-0.6,1-0.8c0.4-0.2,0.9-0.3,1.4-0.3c0.8,0,1.5,0.3,2,0.8
	c0.5,0.5,0.8,1.2,0.8,2l0,4.2l-1.1,0l0-4.1c0-0.6-0.2-1.1-0.5-1.4c-0.3-0.3-0.8-0.5-1.3-0.5c-0.9,0-1.6,0.5-2.2,1.4l0,4.6l-1.1,0
	l0-6.8l1,0L72.9,318.8z M80.8,323.7c-0.6-0.7-1-1.5-1-2.6c0-1,0.3-1.9,1-2.6c0.7-0.7,1.5-1,2.4-1c1.1,0,2,0.4,2.8,1.3l0-1.1l1,0
	l0,6.8c0,1.1-0.4,1.9-1.1,2.5c-0.7,0.6-1.6,0.8-2.6,0.8c-1,0-1.9-0.2-2.8-0.6l0-1.1c0.8,0.5,1.7,0.7,2.6,0.7c0.8,0,1.5-0.2,2-0.5
	c0.5-0.4,0.8-0.9,0.7-1.7l0-1c-0.7,0.8-1.5,1.2-2.6,1.2C82.2,324.8,81.4,324.4,80.8,323.7z M85.8,320.3c-0.2-0.5-0.5-0.9-1-1.2
	c-0.4-0.3-1-0.5-1.5-0.5c-0.7,0-1.3,0.2-1.7,0.7c-0.5,0.5-0.7,1.1-0.7,1.8c0,0.8,0.2,1.4,0.7,1.8c0.5,0.5,1,0.7,1.7,0.7
	c0.6,0,1.1-0.1,1.5-0.4c0.4-0.3,0.8-0.7,1-1.1L85.8,320.3z M88.6,321.2c0-1.1,0.3-2,1-2.6c0.7-0.6,1.5-1,2.4-1
	c0.8,0,1.5,0.2,2.1,0.6c0.5,0.4,0.9,0.9,1.1,1.5c0.2,0.6,0.2,1.2,0,1.9l-5.4,0c0.1,0.7,0.4,1.2,0.9,1.5c0.5,0.3,1.2,0.5,1.9,0.5
	c0.8,0,1.6-0.2,2.2-0.6l0,1.1c-0.6,0.3-1.4,0.5-2.4,0.5c-1.1,0-2-0.3-2.7-0.9C89,323.2,88.6,322.3,88.6,321.2z M94.2,320.7
	c0-0.2,0-0.4,0-0.6c-0.1-0.2-0.2-0.4-0.3-0.7c-0.1-0.2-0.4-0.4-0.7-0.5c-0.3-0.1-0.7-0.2-1.1-0.2c-0.6,0-1.1,0.2-1.6,0.5
	c-0.4,0.4-0.7,0.9-0.7,1.5L94.2,320.7z M96.4,319.5c0-0.7,0.2-1.1,0.7-1.5c0.5-0.3,1.1-0.5,1.8-0.5c0.9,0,1.7,0.2,2.4,0.6l0,1.1
	c-0.3-0.2-0.6-0.3-1.1-0.5c-0.4-0.1-0.9-0.2-1.3-0.2c-0.4,0-0.8,0.1-1.1,0.2c-0.3,0.1-0.4,0.4-0.4,0.7c0,0.2,0.1,0.4,0.3,0.6
	c0.2,0.2,0.5,0.3,0.8,0.4c0.3,0.1,0.7,0.2,1,0.3c0.4,0.1,0.7,0.3,1.1,0.4c0.3,0.1,0.6,0.3,0.8,0.6c0.2,0.3,0.3,0.6,0.3,1
	c0,0.7-0.3,1.2-0.8,1.5c-0.5,0.3-1.2,0.5-2,0.5c-1.1,0-1.9-0.2-2.6-0.7l0-1.1c0.7,0.5,1.6,0.7,2.6,0.7c1.2,0,1.7-0.3,1.7-0.8
	c0-0.3-0.2-0.5-0.5-0.6c-0.3-0.2-0.7-0.3-1.1-0.4c-0.4-0.1-0.9-0.3-1.3-0.4c-0.4-0.1-0.8-0.4-1.1-0.7
	C96.6,320.4,96.4,320,96.4,319.5z"/>
<path d="M156.6,296.8l1.2,0l0,8.8l5.5,0l0,1.1l-6.7,0L156.6,296.8z M165.8,306.7l-1.1,0l0-6.8l1.1,0L165.8,306.7z M165.7,297.2
	c0.1,0.1,0.2,0.3,0.2,0.5c0,0.2-0.1,0.4-0.2,0.5c-0.1,0.1-0.3,0.2-0.5,0.2c-0.2,0-0.4-0.1-0.5-0.2c-0.1-0.1-0.2-0.3-0.2-0.5
	c0-0.2,0.1-0.4,0.2-0.5c0.1-0.1,0.3-0.2,0.5-0.2C165.4,297,165.5,297,165.7,297.2z M168.4,305.8c-0.6-0.7-1-1.5-1-2.6
	c0-1,0.3-1.9,1-2.6c0.7-0.7,1.5-1,2.4-1c1.1,0,2,0.4,2.8,1.3l0-1.1l1,0l0,9.9l-1.1,0l0-4.1c-0.7,0.8-1.6,1.2-2.6,1.2
	C169.9,306.8,169,306.5,168.4,305.8z M173.5,302.4c-0.2-0.5-0.5-0.9-1-1.2c-0.4-0.3-1-0.5-1.5-0.5c-0.7,0-1.3,0.2-1.7,0.7
	c-0.5,0.5-0.7,1.1-0.7,1.8c0,0.8,0.2,1.4,0.7,1.8c0.5,0.5,1,0.7,1.7,0.7c0.6,0,1.1-0.2,1.5-0.5s0.8-0.7,1-1.2L173.5,302.4z
	 M181.8,299.8l1.1,0l0,6.8l-1,0l0-1c-0.2,0.3-0.6,0.6-1,0.8c-0.4,0.2-0.9,0.3-1.4,0.3c-0.9,0-1.6-0.2-2.1-0.7
	c-0.5-0.5-0.8-1.2-0.8-2l0-4.2l1.1,0l0,4.1c0,1.2,0.6,1.9,1.8,1.9c0.9,0,1.6-0.5,2.2-1.4L181.8,299.8z M186.2,306.6l-1.1,0l0-6.8
	l1.1,0L186.2,306.6z M186.1,297.1c0.1,0.1,0.2,0.3,0.2,0.5c0,0.2-0.1,0.4-0.2,0.5c-0.1,0.1-0.3,0.2-0.5,0.2c-0.2,0-0.4-0.1-0.5-0.2
	c-0.1-0.1-0.2-0.3-0.2-0.5c0-0.2,0.1-0.4,0.2-0.5c0.1-0.1,0.3-0.2,0.5-0.2C185.8,296.9,186,297,186.1,297.1z M193.9,296.7l1.1,0
	l0,9.9l-1,0l0-1.1c-0.8,0.9-1.7,1.3-2.8,1.3c-1,0-1.8-0.3-2.4-1c-0.6-0.7-1-1.5-1-2.6c0-1,0.3-1.9,1-2.6c0.7-0.7,1.5-1,2.4-1
	c1.1,0,2,0.4,2.6,1.2L193.9,296.7z M193.9,302.3c-0.2-0.5-0.5-0.9-1-1.2c-0.4-0.3-1-0.5-1.5-0.5c-0.7,0-1.3,0.2-1.7,0.7
	c-0.5,0.5-0.7,1.1-0.7,1.8c0,0.8,0.2,1.4,0.7,1.8c0.5,0.5,1,0.7,1.7,0.7c0.6,0,1.1-0.2,1.5-0.5c0.4-0.3,0.8-0.7,1-1.2L193.9,302.3z
	 M198.3,306.6l-1.1,0l0-6.8l1.1,0L198.3,306.6z M198.2,297.1c0.1,0.1,0.2,0.3,0.2,0.5c0,0.2-0.1,0.4-0.2,0.5
	c-0.1,0.1-0.3,0.2-0.5,0.2c-0.2,0-0.4-0.1-0.5-0.2c-0.1-0.1-0.2-0.3-0.2-0.5c0-0.2,0.1-0.4,0.2-0.5c0.1-0.1,0.3-0.2,0.5-0.2
	C197.9,296.9,198.1,297,198.2,297.1z M200.9,297.7l1.1-0.3l0,2.4l2.7,0l0,1l-2.7,0l0,3.5c0,0.5,0.1,0.9,0.3,1
	c0.2,0.2,0.6,0.3,1.1,0.3c0.5,0,1-0.1,1.5-0.3l0,1.1c-0.6,0.2-1.2,0.3-1.8,0.3c-0.7,0-1.2-0.2-1.6-0.5c-0.4-0.4-0.6-0.9-0.6-1.6
	l0-3.7l-1.3,0l0-1l1.3,0L200.9,297.7z M209.1,305.3l2.3-5.5l1.2,0l-3.3,7.8c-0.6,1.5-1.5,2.3-2.6,2.3c-0.3,0-0.5,0-0.7-0.1l0-1
	c0.2,0.1,0.4,0.1,0.6,0.1c0.7,0,1.3-0.6,1.8-1.7l0.3-0.6l-3.3-6.8l1.2,0L209.1,305.3z M155.4,319c0.8-0.9,1.7-1.3,2.8-1.3
	c1,0,1.8,0.3,2.4,1c0.7,0.7,1,1.5,1,2.6c0,1-0.3,1.9-1,2.6c-0.6,0.7-1.4,1-2.4,1c-1.1,0-2-0.4-2.6-1.2l0,4.1l-1.1,0l0-9.9l1,0
	L155.4,319z M159.7,323.1c0.5-0.5,0.7-1.1,0.7-1.8c0-0.8-0.2-1.4-0.7-1.8c-0.5-0.5-1-0.7-1.7-0.7c-0.6,0-1.1,0.2-1.5,0.5
	s-0.8,0.7-1,1.2l0,1.7c0.2,0.5,0.5,0.9,1,1.2c0.4,0.3,1,0.5,1.5,0.5C158.7,323.8,159.3,323.6,159.7,323.1z M164.2,319.1
	c0.3-0.4,0.7-0.8,1.2-1c0.5-0.3,1.1-0.4,1.7-0.3l0,1.1c-0.7-0.1-1.2,0-1.8,0.3c-0.5,0.3-0.9,0.7-1.1,1.3l0,4.2l-1.1,0l0-6.8l1,0
	L164.2,319.1z M168.7,323.9c-0.7-0.6-1.1-1.5-1.1-2.6c0-1.1,0.4-2,1.1-2.6c0.7-0.6,1.6-1,2.6-1c1,0,1.8,0.3,2.6,1
	c0.7,0.6,1.1,1.5,1.1,2.6c0,1.1-0.4,2-1.1,2.6c-0.7,0.6-1.6,1-2.6,1C170.3,324.8,169.5,324.5,168.7,323.9z M173.1,323.1
	c0.5-0.5,0.7-1.1,0.7-1.8c0-0.8-0.2-1.4-0.7-1.8c-0.5-0.5-1.1-0.7-1.8-0.7c-0.7,0-1.3,0.2-1.8,0.7c-0.5,0.4-0.7,1.1-0.7,1.8
	c0,0.8,0.2,1.4,0.7,1.8c0.5,0.4,1.1,0.7,1.8,0.7C172,323.8,172.6,323.5,173.1,323.1z M181.4,317.8l1.3,0l-3,6.8l-1.2,0l-3-6.8l1.3,0
	l2.4,5.5L181.4,317.8z M185.1,324.6l-1.1,0l0-6.8l1.1,0L185.1,324.6z M185,315.1c0.1,0.1,0.2,0.3,0.2,0.5c0,0.2-0.1,0.4-0.2,0.5
	c-0.1,0.1-0.3,0.2-0.5,0.2c-0.2,0-0.4-0.1-0.5-0.2c-0.1-0.1-0.2-0.3-0.2-0.5c0-0.2,0.1-0.4,0.2-0.5c0.1-0.1,0.3-0.2,0.5-0.2
	C184.7,314.9,184.9,315,185,315.1z M192.8,314.7l1.1,0l0,9.9l-1,0l0-1.1c-0.8,0.9-1.7,1.3-2.8,1.3c-1,0-1.8-0.3-2.4-1
	c-0.6-0.7-1-1.5-1-2.6c0-1,0.3-1.9,1-2.6c0.7-0.7,1.5-1,2.4-1c1.1,0,2,0.4,2.6,1.2L192.8,314.7z M192.8,320.4
	c-0.2-0.5-0.5-0.9-1-1.2c-0.4-0.3-1-0.5-1.5-0.5c-0.7,0-1.3,0.2-1.7,0.7c-0.5,0.5-0.7,1.1-0.7,1.8s0.2,1.4,0.7,1.8
	c0.5,0.5,1,0.7,1.7,0.7c0.6,0,1.1-0.2,1.5-0.5c0.4-0.3,0.8-0.7,1-1.2L192.8,320.4z M195.6,321.2c0-1.1,0.3-2,1-2.6
	c0.7-0.6,1.5-1,2.4-1c0.8,0,1.5,0.2,2.1,0.6c0.6,0.4,0.9,0.9,1.1,1.5c0.2,0.6,0.2,1.2,0,1.9l-5.4,0c0.1,0.7,0.4,1.2,0.9,1.5
	c0.5,0.3,1.2,0.5,1.9,0.5c0.8,0,1.6-0.2,2.2-0.6l0,1.1c-0.6,0.3-1.4,0.5-2.4,0.5c-1.1,0-2-0.3-2.7-0.9
	C195.9,323.2,195.6,322.3,195.6,321.2z M201.1,320.7c0-0.2,0-0.4,0-0.6c-0.1-0.2-0.2-0.4-0.3-0.7c-0.1-0.2-0.4-0.4-0.7-0.5
	c-0.3-0.1-0.7-0.2-1.1-0.2c-0.6,0-1.1,0.2-1.6,0.5c-0.4,0.4-0.7,0.9-0.7,1.5L201.1,320.7z M204.8,319c0.3-0.4,0.7-0.8,1.2-1
	c0.5-0.3,1.1-0.4,1.7-0.3l0,1.1c-0.7-0.1-1.2,0-1.8,0.3c-0.5,0.3-0.9,0.7-1.1,1.3l0,4.2l-1.1,0l0-6.8l1,0L204.8,319z M208.6,319.5
	c0-0.7,0.2-1.1,0.7-1.5c0.5-0.3,1.1-0.5,1.8-0.5c0.9,0,1.7,0.2,2.4,0.6l0,1.1c-0.3-0.2-0.6-0.3-1.1-0.5c-0.4-0.1-0.9-0.2-1.3-0.2
	c-0.4,0-0.8,0.1-1.1,0.2c-0.3,0.1-0.4,0.4-0.4,0.7c0,0.2,0.1,0.4,0.3,0.6c0.2,0.2,0.5,0.3,0.8,0.4c0.3,0.1,0.7,0.2,1,0.3
	c0.4,0.1,0.7,0.3,1.1,0.4c0.3,0.1,0.6,0.3,0.8,0.6c0.2,0.3,0.3,0.6,0.3,1c0,0.7-0.3,1.1-0.8,1.5c-0.5,0.3-1.2,0.5-2,0.5
	c-1.1,0-1.9-0.2-2.6-0.7l0-1.1c0.7,0.5,1.6,0.7,2.6,0.7c1.2,0,1.7-0.3,1.7-0.8c0-0.3-0.2-0.5-0.5-0.6c-0.3-0.2-0.7-0.3-1.1-0.4
	c-0.4-0.1-0.9-0.3-1.3-0.4c-0.4-0.1-0.8-0.4-1.1-0.7C208.7,320.4,208.6,320,208.6,319.5z"/>
<path d="M280.4,303.6c-0.2-0.6-0.3-1.2-0.3-1.9c0-0.7,0.1-1.3,0.3-1.9c0.2-0.6,0.5-1.2,1-1.6c0.4-0.5,1-0.9,1.6-1.2
	c0.7-0.3,1.4-0.4,2.3-0.4c0.8,0,1.6,0.1,2.3,0.4c0.7,0.3,1.2,0.7,1.6,1.2c0.4,0.5,0.7,1,1,1.6c0.2,0.6,0.3,1.2,0.3,1.9
	c0,0.7-0.1,1.3-0.3,1.9c-0.2,0.6-0.5,1.2-0.9,1.6c-0.4,0.5-1,0.9-1.6,1.2c-0.7,0.3-1.4,0.4-2.3,0.4c-0.8,0-1.6-0.1-2.3-0.4
	c-0.7-0.3-1.2-0.7-1.6-1.2C281,304.7,280.7,304.2,280.4,303.6z M289,303.2c0.2-0.5,0.3-1,0.3-1.5c0-0.5-0.1-1-0.3-1.5
	c-0.2-0.5-0.4-0.9-0.7-1.3c-0.3-0.4-0.7-0.7-1.3-0.9c-0.5-0.2-1.1-0.3-1.8-0.3c-0.7,0-1.2,0.1-1.8,0.3c-0.5,0.2-0.9,0.5-1.3,0.9
	c-0.3,0.4-0.6,0.8-0.7,1.3c-0.2,0.5-0.2,1-0.2,1.5c0,0.5,0.1,1,0.2,1.5c0.2,0.5,0.4,0.9,0.7,1.3c0.3,0.4,0.7,0.7,1.3,0.9
	c0.5,0.2,1.1,0.3,1.8,0.3c0.7,0,1.2-0.1,1.8-0.3c0.5-0.2,0.9-0.5,1.2-0.9C288.6,304.1,288.9,303.6,289,303.2z M301,299.8l1.2,0
	l-2.3,6.8l-1.2,0l-1.9-5.3l-1.8,5.3l-1.2,0l-2.3-6.8l1.2,0l1.8,5.6l1.9-5.6l1,0l2,5.6L301,299.8z M304.5,300.8
	c0.2-0.3,0.6-0.6,1-0.8c0.4-0.2,0.9-0.3,1.4-0.3c0.8,0,1.5,0.3,2,0.8c0.5,0.5,0.8,1.2,0.8,2l0,4.2l-1.1,0l0-4.1
	c0-0.6-0.2-1.1-0.5-1.4c-0.3-0.3-0.8-0.5-1.3-0.5c-0.9,0-1.6,0.5-2.2,1.4l0,4.6l-1.1,0l0-6.8l1,0L304.5,300.8z M269.9,314.3l1.1,0
	l0,10.4l-1.1,0L269.9,314.3z M274.4,324.7l-1.1,0l0-6.8l1.1,0L274.4,324.7z M274.3,315.2c0.1,0.1,0.2,0.3,0.2,0.5
	c0,0.2-0.1,0.4-0.2,0.5c-0.1,0.1-0.3,0.2-0.5,0.2c-0.2,0-0.4-0.1-0.5-0.2c-0.1-0.1-0.2-0.3-0.2-0.5c0-0.2,0.1-0.4,0.2-0.5
	c0.1-0.1,0.3-0.2,0.5-0.2C274,315,274.2,315,274.3,315.2z M277,323.8c-0.6-0.7-1-1.5-1-2.6c0-1,0.3-1.9,1-2.6c0.7-0.7,1.5-1,2.4-1
	c1.1,0,2,0.4,2.8,1.3l0-1.1l1,0l0,9.9l-1.1,0l0-4.1c-0.7,0.8-1.6,1.2-2.6,1.2C278.5,324.8,277.7,324.5,277,323.8z M282.1,320.4
	c-0.2-0.5-0.5-0.9-1-1.2c-0.4-0.3-1-0.5-1.5-0.5c-0.7,0-1.3,0.2-1.7,0.7c-0.5,0.5-0.7,1.1-0.7,1.8c0,0.8,0.2,1.4,0.7,1.8
	c0.5,0.5,1,0.7,1.7,0.7c0.6,0,1.1-0.2,1.5-0.5s0.8-0.7,1-1.2L282.1,320.4z M290.4,317.8l1.1,0l0,6.8l-1,0l0-1
	c-0.2,0.3-0.6,0.6-1,0.8c-0.4,0.2-0.9,0.3-1.4,0.3c-0.9,0-1.6-0.2-2.1-0.7c-0.5-0.5-0.8-1.2-0.8-2l0-4.2l1.1,0l0,4.1
	c0,1.2,0.6,1.9,1.8,1.9c0.9,0,1.6-0.5,2.2-1.4L290.4,317.8z M294.8,324.6l-1.1,0l0-6.8l1.1,0L294.8,324.6z M294.8,315.1
	c0.1,0.1,0.2,0.3,0.2,0.5c0,0.2-0.1,0.4-0.2,0.5c-0.1,0.1-0.3,0.2-0.5,0.2c-0.2,0-0.4-0.1-0.5-0.2c-0.1-0.1-0.2-0.3-0.2-0.5
	c0-0.2,0.1-0.4,0.2-0.5c0.1-0.1,0.3-0.2,0.5-0.2C294.5,314.9,294.6,315,294.8,315.1z M302.5,314.7l1.1,0l0,9.9l-1,0l0-1.1
	c-0.8,0.9-1.7,1.3-2.8,1.3c-1,0-1.8-0.3-2.4-1c-0.6-0.7-1-1.5-1-2.6c0-1,0.3-1.9,1-2.6c0.7-0.7,1.5-1,2.4-1c1.1,0,2,0.4,2.6,1.2
	L302.5,314.7z M302.5,320.4c-0.2-0.5-0.5-0.9-1-1.2c-0.4-0.3-1-0.5-1.5-0.5c-0.7,0-1.3,0.2-1.7,0.7c-0.5,0.5-0.7,1.1-0.7,1.8
	c0,0.8,0.2,1.4,0.7,1.8c0.5,0.5,1,0.7,1.7,0.7c0.6,0,1.1-0.2,1.5-0.5c0.4-0.3,0.8-0.7,1-1.2L302.5,320.4z M307,324.6l-1.1,0l0-6.8
	l1.1,0L307,324.6z M306.9,315.1c0.1,0.1,0.2,0.3,0.2,0.5c0,0.2-0.1,0.4-0.2,0.5c-0.1,0.1-0.3,0.2-0.5,0.2c-0.2,0-0.4-0.1-0.5-0.2
	c-0.1-0.1-0.2-0.3-0.2-0.5c0-0.2,0.1-0.4,0.2-0.5c0.1-0.1,0.3-0.2,0.5-0.2C306.6,314.9,306.7,315,306.9,315.1z M309.5,315.7l1.1-0.3
	l0,2.4l2.7,0l0,1.1l-2.7,0l0,3.5c0,0.5,0.1,0.9,0.3,1.1c0.2,0.2,0.6,0.3,1.1,0.3c0.5,0,1-0.1,1.5-0.3l0,1c-0.6,0.2-1.2,0.3-1.8,0.3
	c-0.7,0-1.2-0.2-1.6-0.5c-0.4-0.4-0.6-0.9-0.6-1.6l0-3.7l-1.3,0l0-1l1.3,0L309.5,315.7z M317.8,323.3l2.3-5.5l1.2,0l-3.3,7.8
	c-0.6,1.5-1.5,2.3-2.6,2.3c-0.3,0-0.5,0-0.7-0.1l0-1c0.2,0.1,0.4,0.1,0.6,0.1c0.7,0,1.3-0.6,1.8-1.7l0.3-0.6l-3.3-6.8l1.2,0
	L317.8,323.3z"/>
<path d="M163.5,448.9c0-1.1,0.3-2,0.8-2.9c0.5-0.8,1.2-1.4,1.9-1.8c0.8-0.4,1.6-0.6,2.5-0.6c1,0,2,0.2,2.8,0.7l0,1.2
	c-0.7-0.5-1.6-0.7-2.6-0.7c-1.1,0-2.1,0.4-2.9,1.1c-0.8,0.7-1.2,1.7-1.3,3c0,0.8,0.2,1.6,0.6,2.2c0.4,0.6,1,1.1,1.6,1.3
	c0.6,0.3,1.3,0.4,2,0.4c1.1,0,1.9-0.2,2.6-0.7l0,1.2c-0.9,0.4-1.8,0.7-2.9,0.7c-0.6,0-1.3-0.1-1.9-0.3c-0.6-0.2-1.2-0.5-1.7-0.9
	c-0.5-0.4-0.9-0.9-1.2-1.6C163.7,450.4,163.5,449.7,163.5,448.9z M173.2,443.4l1.1,0l0,10.4l-1.1,0L173.2,443.4z M177.7,453.7
	l-1.1,0l0-6.8l1.1,0L177.7,453.7z M177.6,444.2c0.1,0.1,0.2,0.3,0.2,0.5c0,0.2-0.1,0.4-0.2,0.5c-0.1,0.1-0.3,0.2-0.5,0.2
	c-0.2,0-0.4-0.1-0.5-0.2c-0.1-0.1-0.2-0.3-0.2-0.5c0-0.2,0.1-0.4,0.2-0.5c0.1-0.1,0.3-0.2,0.5-0.2
	C177.3,444,177.5,444.1,177.6,444.2z M179.3,450.3c0-1.1,0.3-2,1-2.6c0.7-0.6,1.5-1,2.4-1c0.8,0,1.5,0.2,2.1,0.6
	c0.6,0.4,0.9,0.9,1.1,1.5c0.2,0.6,0.2,1.2,0,1.9l-5.4,0c0.1,0.7,0.4,1.2,0.9,1.5c0.5,0.3,1.2,0.5,1.9,0.5c0.8,0,1.6-0.2,2.2-0.6
	l0,1.1c-0.6,0.3-1.4,0.5-2.4,0.5c-1.1,0-2-0.3-2.7-0.9C179.7,452.4,179.3,451.5,179.3,450.3z M184.9,449.8c0-0.2,0-0.4,0-0.6
	c-0.1-0.2-0.2-0.4-0.3-0.7c-0.1-0.2-0.4-0.4-0.7-0.5c-0.3-0.1-0.7-0.2-1.1-0.2c-0.6,0-1.1,0.2-1.6,0.5c-0.4,0.4-0.7,0.9-0.7,1.5
	L184.9,449.8z M188.6,447.9c0.2-0.3,0.6-0.6,1-0.8c0.4-0.2,0.9-0.3,1.4-0.3c0.8,0,1.5,0.3,2,0.8c0.5,0.5,0.8,1.2,0.8,2l0,4.2l-1.1,0
	l0-4.1c0-0.6-0.2-1.1-0.5-1.4c-0.3-0.3-0.8-0.5-1.3-0.5c-0.9,0-1.6,0.5-2.2,1.4l0,4.6l-1.1,0l0-6.8l1,0L188.6,447.9z M196.3,444.8
	l1.1-0.3l0,2.4l2.7,0l0,1.1l-2.7,0l0,3.5c0,0.5,0.1,0.9,0.3,1c0.2,0.2,0.6,0.3,1.1,0.3c0.5,0,1-0.1,1.5-0.3l0,1
	c-0.6,0.2-1.2,0.3-1.8,0.3c-0.7,0-1.2-0.2-1.6-0.6c-0.4-0.4-0.6-0.9-0.6-1.6l0-3.7l-1.3,0l0-1.1l1.3,0L196.3,444.8z"/>
<rect x="132.1" y="430.7" class="st1" width="99.4" height="38.1"/>
<rect x="132.1" y="376" class="st1" width="99.4" height="38"/>
<g>
	<defs>
		<rect id="SVGID_1_" x="145.7" y="385.1" width="18.3" height="19.7"/>
	</defs>
	<clipPath id="SVGID_2_">
		<use xlink:href="#SVGID_1_"  style="overflow:visible;"/>
	</clipPath>
	<g class="st2">
		<path class="st3" d="M150.9,385.1l-2.4,1.3l2.6,0.4l0,2.9l2.4-1.3l0-2.9L150.9,385.1z"/>
		<path class="st3" d="M148.3,387.6l-2.4,1.3l2.6,0.4l2.4-1.3L148.3,387.6z"/>
		<path class="st3" d="M153.5,388.4l-2.4,1.3l0,2.9l2.4-1.3L153.5,388.4z"/>
		<path class="st4" d="M151.1,386.8l0,2.9l0,2.9l-2.6-0.4l-2.6-0.4V389l2.6,0.4l0-2.9L151.1,386.8z"/>
		<path class="st3" d="M158.4,386.2l-2.5,1.3l2.6,0.4l2.4-1.3L158.4,386.2z"/>
		<path class="st3" d="M160.9,386.6l-2.4,1.3l0,2.9l2.6,0.4l0,2.9l2.5-1.3v-2.9l-2.6-0.4L160.9,386.6z"/>
		<path class="st4" d="M158.5,387.9l0,2.9l2.6,0.4l0,2.9l-2.6-0.4l-2.6-0.4l0-2.9v-2.9L158.5,387.9z"/>
		<path class="st3" d="M158.2,396.3l-2.4,1.3l2.6,0.4l2.6,0.4l0,2.9l2.4-1.3l0-2.9L158.2,396.3z"/>
		<path class="st3" d="M160.8,399.6l-2.4,1.3l0,2.9l2.4-1.3L160.8,399.6z"/>
		<path class="st4" d="M161,398.4l0,2.9l-2.6-0.4l0,2.9l-2.6-0.4l0-2.9l0-2.9l2.6,0.4L161,398.4z"/>
		<path class="st3" d="M148.2,394.8l-2.4,1.3l5.2,0.7l-0.1,5.8l2.4-1.3l0.1-5.8L148.2,394.8z"/>
		<path class="st4" d="M151,396.9l0,2.9l0,2.9l-2.6-0.4l0-2.9l-2.6-0.4l0-2.9l2.6,0.4L151,396.9z"/>
	</g>
</g>
<path class="st5" d="M170.1,391.2h0.7v6.5h-0.7V391.2z"/>
<path class="st5" d="M180.9,391.2v6.5h-0.6l-4.2-5.3v5.3h-0.7v-6.5h0.6l4.2,5.3v-5.3H180.9z"/>
<path class="st5" d="M190.9,391.2l-2.9,6.5h-0.7l-2.9-6.5h0.7l2.5,5.7l2.5-5.7H190.9z"/>
<path class="st5" d="M199,397.1v0.6h-4.6v-6.5h4.5v0.6H195v2.3h3.4v0.6H195v2.4H199z"/>
<path class="st5" d="M209.9,391.2v6.5h-0.7v-5.2l-2.6,4.4h-0.3l-2.6-4.4v5.2h-0.7v-6.5h0.6l2.8,4.8l2.8-4.8H209.9z"/>
<path class="st5" d="M217.4,397.7c-0.6,0-1.2-0.1-1.8-0.4c-0.5-0.3-0.9-0.7-1.2-1.2c-0.3-0.5-0.4-1.1-0.4-1.7c0-0.6,0.1-1.2,0.4-1.7
	c0.3-0.5,0.7-0.9,1.2-1.2c0.5-0.3,1.1-0.4,1.8-0.4c0.6,0,1.2,0.1,1.7,0.4c0.5,0.3,0.9,0.7,1.2,1.2c0.3,0.5,0.4,1.1,0.4,1.7
	c0,0.6-0.1,1.2-0.4,1.7c-0.3,0.5-0.7,0.9-1.2,1.2C218.6,397.6,218,397.7,217.4,397.7z M217.4,397.1c0.5,0,1-0.1,1.4-0.3
	c0.4-0.2,0.7-0.6,1-1c0.2-0.4,0.4-0.9,0.4-1.4c0-0.5-0.1-1-0.4-1.4c-0.2-0.4-0.6-0.7-1-1c-0.4-0.2-0.9-0.4-1.4-0.4
	c-0.5,0-1,0.1-1.4,0.4c-0.4,0.2-0.7,0.6-1,1c-0.2,0.4-0.4,0.9-0.4,1.4c0,0.5,0.1,1,0.4,1.4c0.2,0.4,0.6,0.7,1,1
	C216.4,397,216.8,397.1,217.4,397.1z"/>
<path d="M106.8,39.9l14-0.1v1.9h-5.9l0.1,15h-2.1l-0.1-15h-5.9L106.8,39.9z M121.9,47.3c0.4-0.7,1.2-1.3,2.1-1.8
	c1-0.4,1.9-0.6,2.9-0.5v1.9c-1.1-0.1-2.1,0.1-3,0.6c-0.9,0.5-1.5,1.2-1.8,2.1v7.3h-2V45.2h1.8L121.9,47.3z M138.4,54.4
	c0,0.6,0.3,0.9,0.9,0.9c0.3,0,0.6-0.1,0.9-0.1v1.6c-0.5,0.1-1,0.3-1.5,0.3c-1.1,0-1.8-0.4-2.1-1.4c-1.2,1-2.8,1.5-4.5,1.5
	c-1.1,0-2.1-0.3-2.9-0.9s-1.2-1.5-1.2-2.6c0-1.4,0.5-2.3,1.5-3s2.3-1,3.7-1c1.1,0,2.1,0.1,3.2,0.4v-0.4c0-0.9-0.3-1.6-0.9-2.1
	c-0.6-0.5-1.4-0.8-2.4-0.8c-1.5,0-2.9,0.3-4.2,0.9v-1.9c1.5-0.5,3-0.8,4.5-0.8c1.6,0,2.9,0.4,3.7,1.2c0.9,0.8,1.4,2.1,1.4,3.7
	L138.4,54.4z M130,53.5c0,0.7,0.2,1.2,0.7,1.5c0.5,0.3,1.1,0.5,1.8,0.5c1.6,0,2.9-0.6,4-1.7v-2.1c-1.1-0.2-2.1-0.4-2.9-0.4
	c-1,0-1.8,0.1-2.5,0.5C130.3,52.2,130,52.7,130,53.5z M151.6,39.8h2l0.1,17h-1.8v-1.9c-1.3,1.5-2.9,2.3-4.7,2.3
	c-1.7,0-3.1-0.6-4.2-1.8s-1.7-2.6-1.7-4.4c0-1.8,0.5-3.2,1.6-4.4s2.5-1.8,4.2-1.8c1.8,0,3.4,0.7,4.5,2.1L151.6,39.8z M151.6,49.5
	c-0.4-0.8-1-1.5-1.7-2.1c-0.7-0.6-1.6-0.8-2.6-0.8c-1.2,0-2.1,0.4-2.9,1.2s-1.2,1.8-1.2,3.2s0.4,2.3,1.2,3.2s1.8,1.2,2.9,1.2
	c1,0,1.8-0.3,2.6-0.8c0.8-0.5,1.3-1.2,1.7-2.1V49.5z M159.2,56.8h-1.9V45.1h1.9V56.8z M159.1,40.5c0.2,0.2,0.4,0.5,0.4,0.9
	c0,0.4-0.1,0.7-0.4,1c-0.2,0.2-0.5,0.3-0.9,0.3s-0.7-0.1-0.9-0.3s-0.4-0.5-0.4-1c0-0.4,0.1-0.7,0.4-0.9s0.5-0.4,0.9-0.4
	C158.5,40.1,158.8,40.3,159.1,40.5z M164.5,46.8c0.4-0.6,1-1,1.8-1.5c0.7-0.4,1.6-0.6,2.4-0.6c1.4,0,2.6,0.4,3.4,1.3
	c1,0.9,1.4,2,1.4,3.4v7.2h-2v-7c0-1-0.3-1.8-0.9-2.3c-0.6-0.5-1.3-0.8-2.3-0.8c-1.5,0-2.8,0.8-3.8,2.3v7.8h-1.9V45.1h1.8L164.5,46.8
	z M177.9,55.2c-1.1-1.2-1.7-2.6-1.7-4.4c0-1.8,0.5-3.2,1.6-4.4s2.5-1.8,4.2-1.8c1.8,0,3.4,0.7,4.7,2.2V45h1.8v11.6
	c0,1.9-0.6,3.3-1.8,4.2c-1.2,1-2.7,1.4-4.5,1.4c-1.8,0-3.3-0.4-4.8-1.1v-1.9c1.4,0.8,2.9,1.2,4.5,1.2c1.4,0,2.5-0.3,3.4-1
	c0.9-0.6,1.3-1.5,1.2-2.9v-1.8c-1.1,1.4-2.6,2.1-4.5,2.1C180.4,57,179,56.4,177.9,55.2z M186.6,49.4c-0.4-0.8-1-1.5-1.7-2.1
	c-0.7-0.5-1.6-0.8-2.6-0.8c-1.2,0-2.1,0.4-2.9,1.2s-1.2,1.8-1.2,3.2c0,1.3,0.4,2.3,1.2,3.2s1.8,1.2,2.9,1.2c1,0,1.8-0.2,2.6-0.7
	c0.7-0.5,1.3-1.2,1.7-1.9V49.4z M207.7,54.2c0,0.6,0.3,0.9,0.9,0.9c0.3,0,0.6-0.1,0.9-0.1v1.6c-0.5,0.1-1,0.3-1.5,0.3
	c-1.1,0-1.8-0.4-2.1-1.4c-1.2,1-2.8,1.5-4.5,1.5c-1.1,0-2.1-0.3-2.9-0.9c-0.8-0.6-1.2-1.5-1.2-2.6c0-1.4,0.5-2.3,1.5-3s2.3-1,3.7-1
	c1.1,0,2.1,0.1,3.2,0.4v-0.4c0-0.9-0.3-1.6-0.9-2.1c-0.6-0.5-1.4-0.8-2.4-0.8c-1.5,0-2.9,0.3-4.2,0.9v-1.9c1.5-0.5,3-0.8,4.5-0.8
	c1.6,0,2.9,0.4,3.7,1.2c0.9,0.8,1.4,2.1,1.4,3.7L207.7,54.2z M199.2,53.3c0,0.7,0.2,1.2,0.7,1.5s1.1,0.5,1.8,0.5
	c1.6,0,2.9-0.6,4-1.7v-2.1c-1.1-0.2-2.1-0.4-2.9-0.4c-1,0-1.8,0.1-2.5,0.5C199.6,51.9,199.2,52.5,199.2,53.3z M210.7,48
	c0-1.1,0.4-2,1.2-2.5c0.9-0.6,1.9-0.9,3.2-0.9c1.5,0,2.9,0.3,4.1,1v1.8c-0.5-0.3-1.1-0.6-1.8-0.8c-0.7-0.2-1.5-0.3-2.1-0.3
	c-0.7,0-1.3,0.1-1.8,0.4s-0.7,0.7-0.7,1.2c0,0.4,0.1,0.7,0.5,1c0.4,0.3,0.8,0.5,1.4,0.7s1.2,0.3,1.8,0.6c0.7,0.2,1.2,0.4,1.8,0.7
	c0.6,0.2,1,0.6,1.4,1.1c0.4,0.4,0.6,1,0.6,1.7c0,1.1-0.4,2-1.3,2.5c-0.9,0.5-2.1,0.8-3.4,0.8c-1.8,0-3.4-0.4-4.5-1.1v-1.9
	c1.2,0.8,2.7,1.2,4.4,1.2c2,0,2.9-0.5,2.9-1.5c0-0.4-0.3-0.8-0.8-1.1c-0.5-0.3-1.1-0.6-1.8-0.7c-0.7-0.2-1.5-0.4-2.2-0.7
	c-0.7-0.3-1.3-0.7-1.9-1.2C211,49.5,210.7,48.8,210.7,48z M230.8,56.6h-1.9V44.9h1.9V56.6z M230.6,40.3c0.2,0.2,0.4,0.5,0.4,0.9
	c0,0.4-0.1,0.7-0.4,1c-0.2,0.2-0.5,0.3-0.9,0.3c-0.4,0-0.7-0.1-0.9-0.3c-0.2-0.2-0.4-0.5-0.4-1c0-0.4,0.1-0.7,0.4-0.9
	c0.2-0.2,0.5-0.4,0.9-0.4C230.1,39.9,230.4,40.1,230.6,40.3z M233.7,48c0-1.1,0.4-2,1.2-2.5c0.9-0.6,1.9-0.9,3.2-0.9
	c1.5,0,2.9,0.3,4.1,1v1.8c-0.5-0.3-1.1-0.6-1.8-0.8c-0.7-0.2-1.5-0.3-2.1-0.3c-0.7,0-1.3,0.1-1.8,0.4s-0.7,0.7-0.7,1.2
	c0,0.4,0.1,0.7,0.5,1c0.4,0.3,0.8,0.5,1.4,0.7s1.2,0.3,1.8,0.6c0.7,0.2,1.2,0.4,1.8,0.7s1,0.6,1.4,1.1c0.4,0.4,0.6,1,0.6,1.7
	c0,1.1-0.4,2-1.3,2.5c-0.9,0.5-2.1,0.8-3.4,0.8c-1.8,0-3.3-0.4-4.5-1.1v-1.9c1.2,0.8,2.7,1.2,4.4,1.2c2,0,2.9-0.5,2.9-1.5
	c0-0.4-0.3-0.8-0.8-1.1c-0.5-0.3-1.1-0.6-1.8-0.7c-0.7-0.2-1.5-0.4-2.2-0.7c-0.7-0.3-1.3-0.7-1.9-1.2
	C233.9,49.4,233.7,48.7,233.7,48z"/>
<line class="st6" x1="67.9" y1="115.8" x2="67.9" y2="141.4"/>
<line class="st6" x1="182.1" y1="115.8" x2="182.1" y2="160.2"/>
<line class="st6" x1="296.2" y1="115.8" x2="296.2" y2="141.4"/>
<line class="st6" x1="67.5" y1="141.1" x2="295.9" y2="141.1"/>
<path d="M163.4,178.7c0-1.1,0.2-2.1,0.8-2.9c0.5-0.8,1.2-1.4,2-1.8c0.8-0.4,1.6-0.6,2.5-0.6c1,0,2,0.2,2.8,0.7v1.2
	c-0.7-0.5-1.6-0.7-2.6-0.7c-1.2,0-2.1,0.4-2.9,1c-0.8,0.7-1.2,1.7-1.2,3c0,0.9,0.2,1.6,0.7,2.2c0.4,0.6,1,1,1.6,1.3
	c0.7,0.3,1.3,0.4,2.1,0.4c1.1,0,2-0.2,2.6-0.7v1.2c-0.9,0.4-1.8,0.7-2.9,0.7c-0.7,0-1.2-0.1-1.9-0.3c-0.6-0.2-1.2-0.5-1.7-1
	c-0.5-0.4-0.9-1-1.2-1.6C163.5,180.2,163.4,179.5,163.4,178.7z M173.1,173.1h1.2v10.4h-1.2V173.1z M177.6,183.5h-1.2v-6.8h1.2V183.5
	z M177.5,174c0.1,0.1,0.2,0.3,0.2,0.5s-0.1,0.4-0.2,0.5c-0.1,0.1-0.3,0.2-0.5,0.2s-0.4-0.1-0.5-0.2c-0.1-0.1-0.2-0.3-0.2-0.5
	s0.1-0.4,0.2-0.5c0.1-0.1,0.3-0.2,0.5-0.2S177.4,173.9,177.5,174z M179.3,180.2c0-1.1,0.4-2,1-2.6s1.5-1,2.3-1
	c0.8,0,1.5,0.2,2.1,0.6c0.6,0.4,1,1,1.1,1.5c0.1,0.6,0.2,1.2,0,1.9h-5.4c0.1,0.7,0.4,1.2,0.9,1.5c0.5,0.4,1.2,0.5,1.9,0.5
	c0.8,0,1.6-0.2,2.3-0.6v1.1c-0.7,0.4-1.5,0.5-2.4,0.5c-1.1,0-2-0.3-2.7-1C179.6,182.1,179.3,181.3,179.3,180.2z M184.8,179.6
	c0-0.2,0-0.4-0.1-0.7c-0.1-0.2-0.1-0.4-0.3-0.7c-0.1-0.2-0.4-0.4-0.7-0.5c-0.3-0.1-0.7-0.2-1.1-0.2c-0.6,0-1.2,0.2-1.6,0.5
	c-0.4,0.4-0.7,0.9-0.7,1.5L184.8,179.6z M188.6,177.7c0.2-0.4,0.6-0.6,1-0.9c0.4-0.2,1-0.4,1.5-0.4c0.8,0,1.5,0.3,2.1,0.8
	c0.5,0.5,0.8,1.2,0.8,2v4.2h-1.2v-4.1c0-0.6-0.1-1.1-0.5-1.4s-0.8-0.5-1.3-0.5c-0.9,0-1.6,0.4-2.2,1.4v4.6h-1.2v-6.8h1L188.6,177.7z
	 M196.3,174.5l1.1-0.3v2.4h2.7v1h-2.7v3.5c0,0.5,0.1,0.9,0.4,1c0.2,0.2,0.6,0.3,1.1,0.3c0.5,0,1-0.1,1.5-0.3v1
	c-0.6,0.2-1.2,0.3-1.8,0.3c-0.7,0-1.2-0.1-1.7-0.6c-0.4-0.4-0.6-1-0.6-1.7v-3.7h-1.3v-1h1.3V174.5z"/>
<rect x="131.8" y="160.5" class="st6" width="99.9" height="38.2"/>
<path class="st7" d="M22,92l3.8-3.8l3.8,3.8l2.2-2.2l-6-6l-6,6L22,92z"/>
<path class="st7" d="M16,93.6l2.2-2.2l2.2,2.2l-2.2,2.2L16,93.6z"/>
<path class="st7" d="M22,95.2l3.8,3.8l3.8-3.8l2.2,2.2l0,0l-6,6l-6-6l0,0L22,95.2z"/>
<path class="st7" d="M31.1,93.6l2.2-2.2l2.2,2.2l-2.2,2.2L31.1,93.6z"/>
<path class="st7" d="M28.1,93.6l-2.3-2.3L24.1,93l-0.2,0.2l-0.4,0.4l0,0l0,0l2.3,2.3L28.1,93.6L28.1,93.6L28.1,93.6z"/>
<path class="st7" d="M39,88.6h4.8c1.2,0,2.1,0.3,2.7,1c0.2,0.2,0.4,0.5,0.5,0.8c0.1,0.3,0.1,0.7,0.1,1l0,0c0,0.3,0,0.5-0.1,0.8
	c-0.1,0.2-0.1,0.4-0.3,0.6c-0.1,0.1-0.3,0.4-0.4,0.5c-0.1,0.1-0.4,0.3-0.5,0.4c0.5,0.2,1,0.5,1.4,1c0.4,0.4,0.5,1,0.5,1.6l0,0
	c0,0.4-0.1,0.9-0.3,1.2c-0.2,0.4-0.4,0.7-0.8,0.9s-0.8,0.4-1.2,0.5c-0.5,0.1-1,0.2-1.6,0.1H39L39,88.6L39,88.6z M43.4,92.8
	c0.4,0,0.8-0.1,1.2-0.3c0.1-0.1,0.3-0.2,0.4-0.4s0.1-0.3,0.1-0.5l0,0c0-0.1,0-0.3-0.1-0.4c-0.1-0.1-0.1-0.3-0.3-0.4
	c-0.3-0.1-0.7-0.3-1.1-0.3h-2.3v2.2L43.4,92.8L43.4,92.8z M43.9,96.9c0.4,0,0.8-0.1,1.2-0.3c0.1-0.1,0.2-0.2,0.4-0.4
	c0.1-0.1,0.1-0.3,0.1-0.5l0,0c0-0.1,0-0.3-0.1-0.4s-0.1-0.3-0.3-0.4c-0.3-0.2-0.7-0.3-1.3-0.3h-2.6v2.3H43.9z"/>
<path class="st7" d="M50.7,88.6H53V99h-2.3V88.6z"/>
<path class="st7" d="M56.4,88.6h2.1l4.8,6.4v-6.4h2.3V99h-2l-5.1-6.6V99h-2.3L56.4,88.6L56.4,88.6z"/>
<path class="st7" d="M72.6,88.5h2.1L79.2,99h-2.4l-1-2.3h-4.4l-1,2.3h-2.3L72.6,88.5z M75,94.6l-1.4-3.4l-1.4,3.4
	C72.2,94.6,75,94.6,75,94.6z"/>
<path class="st7" d="M81.6,88.6h2.1l4.8,6.4v-6.4h2.3V99h-2l-5.1-6.6V99h-2.3L81.6,88.6L81.6,88.6z"/>
<path class="st7" d="M99,99.1c-0.7,0-1.5-0.1-2.1-0.4c-0.7-0.3-1.2-0.7-1.7-1.1c-0.5-0.5-0.9-1.1-1.1-1.7c-0.3-0.7-0.4-1.4-0.4-2.1
	l0,0c0-1.4,0.5-2.8,1.5-3.8c0.5-0.5,1-0.9,1.7-1.2c0.7-0.3,1.5-0.4,2.2-0.4c0.4,0,0.9,0,1.3,0.1c0.4,0.1,0.7,0.1,1.1,0.3
	c0.3,0.1,0.6,0.3,0.9,0.5s0.5,0.4,0.8,0.7l-1.5,1.7c-0.4-0.4-0.8-0.7-1.2-0.9s-1-0.3-1.4-0.3s-0.8,0.1-1.2,0.2
	c-0.4,0.1-0.7,0.4-1,0.7c-0.3,0.3-0.5,0.7-0.7,1c-0.1,0.4-0.2,0.8-0.2,1.2l0,0c0,0.4,0.1,0.9,0.2,1.2c0.1,0.4,0.4,0.7,0.6,1
	c0.3,0.3,0.6,0.6,1,0.7c0.4,0.1,0.8,0.2,1.2,0.2c0.5,0,1-0.1,1.5-0.3c0.4-0.2,0.9-0.5,1.2-0.9l1.5,1.5c-0.2,0.3-0.5,0.5-0.8,0.8
	c-0.3,0.2-0.6,0.4-1,0.6c-0.4,0.1-0.7,0.3-1.1,0.4C99.9,99.1,99.5,99.1,99,99.1L99,99.1z"/>
<path class="st7" d="M106,88.6h7.8v2.1h-5.6v2.1h4.9v2h-4.9v2.2h5.6V99H106V88.6z"/>
<path class="st8" d="M258.4,87.2c1.3-0.1,2.7,0.1,3.9,0.8c1.8,0.9,3.2,2.4,3.8,4.3c0.3,0.8,0.4,1.7,0.4,2.6v3.2c0,0.1,0,0.3,0,0.4
	c-0.1,0.3-0.3,0.6-0.6,0.7c-0.2,0.1-0.4,0.1-0.7,0.1c-0.5-0.1-0.9-0.6-0.9-1c0-1,0-2,0-3c0-0.3,0-0.6-0.1-0.8
	c-0.2-0.4-0.9-0.7-1.3-0.5c-0.4,0.1-0.7,0.6-0.7,1c0,1,0,2.1,0,3.1c0,0.2,0,0.4-0.1,0.6c-0.1,0.4-0.4,0.7-0.7,0.7
	c-0.4,0.1-1-0.1-1.2-0.5c-0.1-0.3-0.1-0.6-0.1-0.9c0-1,0-2.1,0-3c0-0.5-0.4-1-1-1c-0.4-0.1-0.7,0.1-1,0.3c-0.2,0.2-0.4,0.5-0.4,0.8
	V98c0,0.2,0,0.5-0.1,0.7c-0.1,0.4-0.6,0.7-1,0.7s-0.9-0.3-1-0.7c-0.1-0.2-0.1-0.4-0.1-0.7c0-1,0-2.1,0-3.1c0-0.5-0.4-1-0.9-1
	c-0.4-0.1-1,0.1-1.2,0.5c-0.1,0.1-0.1,0.4-0.1,0.6v3.3c0,0.3-0.1,0.7-0.4,0.9c-0.4,0.3-1,0.4-1.4,0.1c-0.3-0.2-0.4-0.5-0.4-0.9V95
	c0-1.2,0.3-2.5,1-3.7c0.5-0.9,1.2-1.7,2-2.3C255.3,87.8,256.9,87.3,258.4,87.2z"/>
<path class="st8" d="M288.4,91.1h-1.7c0.1-1.2,0.3-2.2,1.4-2.9c1.1-0.7,2.3-0.8,3.4-0.7c0.7,0.1,1.3,0.2,1.9,0.4
	c1.1,0.5,1.6,1.3,1.6,2.5c0,2.1,0,4.1,0,6.2c0,0.7,0.1,0.9,0.9,0.8c0.1,0,0.1,0,0.2-0.1c0,0.1,0,0.1,0,0.1v1.2
	c-0.6,0.2-1.2,0.3-1.8,0.1c-0.4-0.1-0.7-0.4-0.9-0.9c-0.1-0.2-0.1-0.4-0.2-0.7c-0.1,0.1-0.1,0.1-0.1,0.2c-1.3,1.3-2.9,1.9-4.8,1.4
	c-1.3-0.4-2.2-1.5-2.3-2.9c0-0.4,0-0.9,0.1-1.3c0.2-1,1-1.5,1.8-2c0.6-0.3,1.3-0.4,2-0.4c0.8-0.1,1.5-0.2,2.3-0.3
	c0.5-0.1,0.8-0.4,0.9-0.9c0.1-1.1-0.3-1.8-1.3-2.1c-0.6-0.1-1.2-0.1-1.9-0.1c-1,0.1-1.5,0.7-1.6,1.6
	C288.5,90.8,288.4,90.9,288.4,91.1z M293.3,93.1c-0.8,0.4-1.5,0.5-2.3,0.7c-0.7,0.1-1.2,0.2-1.9,0.4c-0.8,0.3-1.2,1-1.1,1.8
	c0.1,0.7,0.6,1.3,1.4,1.5c1.2,0.2,2.3-0.1,3.2-1.1c0.3-0.3,0.4-0.7,0.5-1C293.3,94.7,293.3,93.9,293.3,93.1z M317.1,95.2
	c-0.1,0.1-0.1,0.4-0.1,0.4c-0.7,2.2-2.2,3.2-4,3.4c-3.1,0.4-4.8-1.7-5.3-3.8c-0.4-1.7-0.3-3.4,0.4-5c0.7-1.5,1.8-2.5,3.5-2.8
	c2.1-0.4,4.8,0.7,5.3,3.8c0.1,0.8,0.1,1.6,0.2,2.5h-7.8c0.1,1.2,0.2,2.3,1.1,3.1c0.4,0.4,0.8,0.5,1.3,0.6c1.6,0.3,2.9-0.4,3.4-2
	c0.1-0.1,0.1-0.2,0.3-0.2C316.1,95.2,316.6,95.2,317.1,95.2z M309.6,92.3h5.9c-0.1-0.7-0.1-1.3-0.5-1.9c-0.3-0.6-0.7-1-1.4-1.2
	C311.6,88.5,309.5,90.1,309.6,92.3z M321.3,98.7h-1.8v-11h1.7v1.5c0.1-0.1,0.2-0.2,0.3-0.3c1.2-1.4,2.7-1.8,4.5-1.3
	c1.2,0.3,1.8,1.2,2.1,2.3c0.1,0.5,0.1,1,0.1,1.5c0,2.3,0,4.8,0,7.1c0,0.1,0,0.1,0,0.2h-1.8v-0.4c0-2.2,0-4.4,0-6.6
	c0-0.5-0.1-1-0.2-1.5c-0.2-0.8-0.9-1.2-1.7-1.2c-1.5-0.1-2.6,0.7-3,2.1c-0.1,0.4-0.1,1-0.1,1.5c0,1.9,0,3.9,0,5.8L321.3,98.7
	L321.3,98.7z M298,87.7h1.7v4.7c0.1-0.1,0.1-0.1,0.2-0.2c1.4-1.4,2.8-2.9,4.2-4.3c0.1-0.1,0.2-0.1,0.4-0.1c0.7,0,1.3,0,2.1,0
	c-0.1,0.1-0.1,0.1-0.2,0.2c-1.2,1.2-2.4,2.5-3.7,3.7c-0.1,0.1-0.1,0.2-0.1,0.4c1.3,2.1,2.7,4.3,4,6.4c0.1,0.1,0.1,0.1,0.1,0.3
	c-0.1,0-0.1,0-0.2,0c-0.6,0-1.2,0-1.8,0c-0.1,0-0.2-0.1-0.4-0.2c-1-1.7-2.1-3.4-3.1-5.2c-0.1-0.1-0.1-0.1-0.1-0.2
	c-0.4,0.4-1,1-1.4,1.4c-0.1,0.1-0.1,0.1-0.1,0.3c0,1.2,0,2.4,0,3.6v0.3c-0.4,0-0.7,0-1,0c-0.2,0-0.6,0.1-0.7-0.1
	c-0.1-0.1-0.1-0.4-0.1-0.7V88C298,87.9,298,87.8,298,87.7z M278.2,87.7c-1.4,1.4-2.7,2.7-4.1,4.1c1.5,2.3,2.9,4.6,4.3,7
	c-0.1,0-0.2,0-0.3,0c-0.6,0-1.2,0-1.8,0c-0.1,0-0.3-0.1-0.4-0.2c-1-1.7-2.1-3.4-3.1-5.2c-0.1-0.1-0.1-0.1-0.1-0.2
	c-0.3,0.3-0.5,0.6-0.8,0.8c-0.6,0.4-0.7,1-0.7,1.7c0.1,1,0,1.9,0,2.9v0.3h-1.7v-11h1.7v4.6c0.1,0,0.1,0.1,0.1,0.1
	c0.1-0.1,0.1-0.1,0.1-0.2c1.4-1.4,2.8-2.9,4.2-4.2c0.1-0.1,0.2-0.2,0.4-0.1c0.6,0,1.2,0,1.8,0C278,87.7,278.1,87.7,278.2,87.7z
	 M281.6,89.5c0.9-1.2,1.8-2.3,3.4-2v1.9c-0.4,0-0.9,0-1.3,0.1c-1,0.2-1.8,1.2-2.1,2.3c0,0.2-0.1,0.4-0.1,0.7c0,2,0,4,0,5.9v0.3h-1.8
	v-11h1.7C281.6,88.3,281.6,88.9,281.6,89.5z"/>
<g>
	<path class="st9" d="M208.9,92.9c-1.2-0.4-1.7-0.7-1.7-1.4c0-0.7,0.6-1.2,1.6-1.2c1.1,0,2.1,0.4,3,1.1v-2.2
		c-0.9-0.6-1.8-0.8-3.1-0.8c-2.2,0-3.8,1-3.8,3.2c0,1.8,1,2.7,3.2,3.2c1.4,0.4,2,0.7,2,1.5c0,0.8-0.7,1.2-1.8,1.2
		c-1.2-0.1-2.3-0.4-3.2-1.2v2.3c1,0.6,2.1,0.9,3.3,0.9c2.3,0,4-1,4-3.2C212.4,94.3,211.3,93.4,208.9,92.9z"/>
	<path class="st9" d="M169.4,84c-0.4,0-0.7,0.1-1,0.4c-0.3,0.3-0.4,0.6-0.4,1l0,0c0,0.4,0.1,0.8,0.4,1c0.3,0.3,0.7,0.4,1,0.4
		s0.8-0.1,1-0.4c0.3-0.3,0.4-0.7,0.4-1c0-0.4-0.2-0.7-0.4-1C170.2,84.1,169.7,84,169.4,84z"/>
	<path class="st9" d="M161.2,88.4c-3.2,0-5.5,2.3-5.5,5.6s2.3,5.6,5.5,5.6c3.2,0,5.5-2.3,5.5-5.6S164.4,88.4,161.2,88.4z
		 M161.2,97.4c-1.8,0-3.1-1.4-3.1-3.5s1.3-3.5,3.1-3.5c1.8,0,3.1,1.4,3.1,3.5C164.3,96,163.1,97.4,161.2,97.4z"/>
	<path class="st9" d="M153,97.4c-2.1,0-3.5-1.3-3.5-3.4c0-2.2,1.5-3.4,3.4-3.4c0.6,0,1.1,0.1,1.6,0.3l1-1.7
		c-0.9-0.4-1.8-0.7-2.9-0.7c-3.2,0-5.6,2.1-5.6,5.6s2.3,5.6,5.6,5.6c1,0,2.1-0.2,3-0.7c0,0-1.1-1.6-1.1-1.7
		C154.2,97.3,153.6,97.4,153,97.4z"/>
	<rect x="168.2" y="88.6" class="st9" width="2.3" height="10.6"/>
	<path class="st9" d="M199.3,88.4c-1.2,0-2.4,0.3-3.4,0.9v2.1c0.9-0.5,1.8-0.9,3.1-0.9c1.2,0,2.1,0.5,2.1,1.7l0,0V93h-1.2
		c-3.1,0-4.9,1-4.9,3.2c0,2.4,2.1,3.2,4.8,3.2c1.2,0,2.6-0.1,3.7-0.4v-7C203.3,89.3,201.7,88.4,199.3,88.4z M201,94.6v3
		c-0.4,0.1-1,0.1-1.3,0.1c-1.5,0-2.4-0.4-2.4-1.5s1.1-1.5,2.7-1.5L201,94.6L201,94.6z"/>
	<path class="st9" d="M177.5,88.4c-1.7,0-3.3,0.3-4.8,0.9l0,0v10h2.3v-8.4c0.7-0.2,1.5-0.3,2.3-0.3c1.3,0,2.3,0.6,2.3,2.1v6.6h2.3
		v-6.8C182,89.4,180.3,88.4,177.5,88.4z"/>
	<path class="st9" d="M205.1,96.3L205.1,96.3L205.1,96.3z"/>
	<path class="st9" d="M188.8,88.4c-1,0-1.9,0.3-2.4,0.5v-6H184v15.8c1.1,0.4,2.4,0.7,4,0.7c4,0,6.2-2.3,6.2-5.7
		C194.1,90.3,191.9,88.4,188.8,88.4z M188,97.4c-0.6,0-1.2-0.1-1.7-0.2V91c0.5-0.3,1.2-0.5,2.1-0.5c1.8,0,3.3,1.2,3.3,3.3
		C191.7,96.2,190.2,97.4,188,97.4z"/>
	<path class="st9" d="M223,94.4v-1.2c0-2.9-1.5-4.9-4.5-4.9c-2.9,0-5.1,2.3-5.1,5.6c0,3.4,2.3,5.5,5.6,5.5c1.4,0,2.8-0.3,3.7-1v-2.1
		c-1,0.7-2.1,1-3.6,1c-1.7,0-3.3-1-3.4-2.9v-0.1L223,94.4L223,94.4z M218.4,90.3c1.5,0,2.3,0.9,2.4,2.6h-5.1
		C216,91.3,217,90.3,218.4,90.3z"/>
</g>
</svg>
