<?xml version="1.0" encoding="utf-8"?>
<!-- Generator: Adobe Illustrator 23.1.0, SVG Export Plug-In . SVG Version: 6.00 Build 0)  -->
<svg version="1.1" id="Слой_1" xmlns="http://www.w3.org/2000/svg" xmlns:xlink="http://www.w3.org/1999/xlink" x="0px" y="0px"
	 viewBox="0 0 427 584" style="enable-background:new 0 0 427 584;" xml:space="preserve">
<style type="text/css">
	.st0{fill-rule:evenodd;clip-rule:evenodd;}
	.st1{clip-path:url(#SVGID_2_);}
	.st2{fill:#500B06;}
	.st3{fill:#C22A1D;}
	.st4{fill:#181818;}
	.st5{fill:none;stroke:#000000;stroke-width:0.8848;}
	.st6{fill:#F3BA2F;}
	.st7{fill:#5741D9;}
	.st8{fill-rule:evenodd;clip-rule:evenodd;fill:#1652F0;}
</style>
<path d="M124.3,294l19.1-0.1l0,2.6l-8.1,0l0.1,20.5l-2.8,0l-0.1-20.5l-8.1,0L124.3,294z"/>
<path d="M144.9,304c0.6-1,1.6-1.8,2.8-2.4c1.3-0.6,2.6-0.8,4-0.7l0,2.6c-1.5-0.2-2.9,0.1-4.1,0.8c-1.2,0.7-2,1.6-2.5,2.9l0,9.9
	l-2.6,0l0-15.9l2.4,0L144.9,304z"/>
<path d="M167.4,313.7c0,0.8,0.4,1.2,1.2,1.2c0.4,0,0.8-0.1,1.2-0.2l0,2.2c-0.7,0.2-1.3,0.4-2,0.4c-1.5,0-2.5-0.6-2.9-1.9
	c-1.7,1.4-3.8,2.1-6.2,2.1c-1.5,0-2.9-0.4-4-1.2c-1.1-0.8-1.6-2-1.6-3.6c0-1.9,0.7-3.2,2.1-4.1c1.4-0.9,3.1-1.3,5.1-1.3
	c1.5,0,2.9,0.2,4.4,0.5l0-0.6c0-1.2-0.4-2.2-1.2-2.9c-0.8-0.7-1.9-1.1-3.3-1.1c-2,0-3.9,0.4-5.8,1.2l0-2.6c2.1-0.7,4.1-1.1,6.1-1.1
	c2.2,0,3.9,0.6,5.1,1.7c1.2,1.1,1.9,2.8,1.9,5L167.4,313.7z M155.9,312.5c0,0.9,0.3,1.6,1,2c0.7,0.4,1.5,0.7,2.5,0.7
	c2.2,0,4-0.8,5.4-2.3l0-2.9c-1.5-0.3-2.8-0.5-4-0.5c-1.3,0-2.5,0.2-3.4,0.7C156.3,310.7,155.9,311.5,155.9,312.5z"/>
<path d="M185.5,293.8l2.6,0l0.1,23.2l-2.4,0l0-2.6c-1.8,2-3.9,3.1-6.4,3.1c-2.3,0-4.2-0.8-5.7-2.4c-1.5-1.6-2.3-3.6-2.3-6
	c0-2.4,0.7-4.4,2.2-6c1.5-1.6,3.4-2.4,5.7-2.4c2.5,0,4.6,0.9,6.2,2.8L185.5,293.8z M185.5,307.1c-0.5-1.1-1.3-2-2.3-2.8
	c-1-0.7-2.2-1.1-3.6-1.1c-1.6,0-2.9,0.5-4,1.6c-1.1,1.1-1.6,2.5-1.6,4.3c0,1.8,0.5,3.2,1.6,4.3c1.1,1.1,2.4,1.6,4,1.6
	c1.3,0,2.5-0.4,3.6-1.1c1-0.8,1.8-1.7,2.3-2.8L185.5,307.1z"/>
<path d="M195.8,317l-2.7,0l0-15.9l2.6,0L195.8,317z M195.7,294.8c0.3,0.3,0.5,0.7,0.5,1.2c0,0.5-0.2,1-0.5,1.3
	c-0.3,0.3-0.7,0.4-1.2,0.4c-0.5,0-0.9-0.1-1.2-0.4c-0.3-0.3-0.5-0.7-0.5-1.3c0-0.5,0.2-0.9,0.5-1.2c0.3-0.3,0.7-0.5,1.2-0.5
	C194.9,294.3,195.3,294.5,195.7,294.8z"/>
<path d="M203.1,303.4c0.6-0.8,1.4-1.4,2.4-2c1-0.5,2.2-0.8,3.3-0.8c1.9,0,3.5,0.6,4.7,1.8c1.3,1.2,1.9,2.7,1.9,4.7l0,9.8l-2.7,0
	l0-9.5c0-1.4-0.4-2.5-1.2-3.2c-0.8-0.7-1.8-1.1-3.1-1.1c-2,0-3.8,1.1-5.2,3.2l0,10.7l-2.6,0l0-15.9l2.4,0L203.1,303.4z"/>
<path d="M221.4,314.9c-1.5-1.6-2.3-3.6-2.3-6c0-2.4,0.7-4.4,2.2-6c1.5-1.6,3.4-2.4,5.7-2.4c2.5,0,4.6,1,6.4,3l0-2.7l2.4,0l0,15.9
	c0,2.6-0.8,4.5-2.5,5.8c-1.7,1.3-3.7,1.9-6.2,1.9c-2.4,0-4.5-0.5-6.5-1.5l0-2.6c1.9,1.1,4,1.6,6.1,1.6c1.9,0,3.4-0.4,4.6-1.3
	c1.2-0.8,1.8-2.1,1.7-4l0-2.5c-1.5,1.9-3.6,2.9-6.2,2.9C224.8,317.3,222.9,316.5,221.4,314.9z M233.2,306.9c-0.5-1.1-1.3-2-2.3-2.8
	c-1-0.7-2.2-1.1-3.6-1.1c-1.6,0-2.9,0.5-4,1.6c-1.1,1.1-1.6,2.5-1.6,4.3c0,1.8,0.5,3.2,1.6,4.3c1.1,1.1,2.4,1.6,4,1.6
	c1.3,0,2.5-0.3,3.6-1c1-0.7,1.8-1.6,2.3-2.6L233.2,306.9z"/>
<path d="M249.4,296l2.6-0.7l0,5.6l6.4,0l0,2.5l-6.4,0l0,8.2c0,1.2,0.3,2,0.8,2.4c0.6,0.5,1.4,0.7,2.6,0.7c1.1,0,2.3-0.3,3.5-0.7
	l0,2.5c-1.3,0.5-2.8,0.7-4.3,0.7c-1.6,0-2.9-0.4-3.8-1.3c-1-0.9-1.4-2.2-1.4-3.8l0-8.7l-3,0l0-2.5l3,0L249.4,296z"/>
<path d="M263.4,315c-1.7-1.5-2.5-3.5-2.5-6.1c0-2.6,0.8-4.6,2.5-6.1c1.7-1.5,3.7-2.3,6-2.3c2.3,0,4.3,0.7,6,2.2
	c1.7,1.5,2.5,3.5,2.5,6.1c0,2.6-0.8,4.6-2.5,6.1c-1.7,1.5-3.6,2.2-6,2.2C267.1,317.2,265.1,316.4,263.4,315z M273.5,313.1
	c1.1-1.1,1.6-2.5,1.6-4.3c0-1.8-0.6-3.2-1.7-4.2c-1.1-1.1-2.5-1.6-4.2-1.6c-1.7,0-3.1,0.5-4.2,1.6c-1.1,1-1.6,2.5-1.6,4.2
	c0,1.8,0.6,3.2,1.7,4.3c1.1,1,2.5,1.6,4.2,1.5C271,314.6,272.4,314.1,273.5,313.1z"/>
<path d="M289.8,293.5l2.6,0l0,9.7c1.6-1.9,3.6-2.8,6.2-2.8c2.3,0,4.2,0.8,5.7,2.4c1.5,1.6,2.3,3.6,2.3,6c0,2.4-0.8,4.4-2.3,6
	c-1.5,1.6-3.4,2.4-5.7,2.4c-2.5,0-4.6-1-6.4-3l0,2.6l-2.4,0L289.8,293.5z M302.4,313c1.1-1.1,1.6-2.5,1.6-4.3c0-1.8-0.5-3.2-1.6-4.3
	c-1.1-1.1-2.4-1.6-4-1.6c-1.3,0-2.5,0.4-3.6,1.1c-1,0.8-1.8,1.7-2.3,2.8l0,4c0.5,1.1,1.3,2,2.3,2.8c1,0.7,2.2,1.1,3.6,1.1
	C300,314.6,301.3,314.1,302.4,313z"/>
<path d="M309.4,308.7c0-2.6,0.8-4.7,2.4-6.1c1.6-1.5,3.4-2.2,5.5-2.2c1.9,0,3.5,0.5,4.8,1.4c1.3,1,2.1,2.2,2.5,3.6
	c0.4,1.4,0.4,2.9,0.1,4.4l-12.7,0c0.2,1.6,0.9,2.7,2.1,3.5c1.2,0.8,2.7,1.2,4.5,1.2c1.9,0,3.7-0.4,5.2-1.3l0,2.6
	c-1.5,0.8-3.4,1.2-5.6,1.2c-2.5,0-4.6-0.7-6.3-2.1C310.2,313.5,309.4,311.4,309.4,308.7z M322.3,307.5c0.1-0.5,0-1-0.1-1.5
	c-0.1-0.5-0.4-1-0.7-1.5c-0.3-0.5-0.9-0.9-1.6-1.3c-0.7-0.3-1.5-0.5-2.5-0.5c-1.4,0-2.7,0.4-3.7,1.3c-1,0.8-1.6,2-1.7,3.5
	L322.3,307.5z"/>
<path d="M20.9,354.3c0-1.5,0.3-2.8,1.1-3.9c0.7-1.1,1.6-1.9,2.7-2.5c1.1-0.5,2.2-0.8,3.4-0.8c1.4,0,2.7,0.3,3.8,0.9l0,1.6
	c-1-0.7-2.2-1-3.6-1c-1.6,0-2.9,0.5-4,1.5c-1.1,1-1.7,2.3-1.7,4.2c0,1.2,0.3,2.2,0.9,3c0.6,0.8,1.3,1.5,2.2,1.8
	c0.9,0.4,1.8,0.6,2.8,0.6c1.5,0,2.7-0.3,3.6-1l0,1.6c-1.2,0.6-2.5,0.9-3.9,0.9c-0.9,0-1.7-0.1-2.6-0.4c-0.8-0.3-1.6-0.7-2.3-1.3
	c-0.7-0.6-1.2-1.3-1.7-2.2C21.2,356.4,20.9,355.4,20.9,354.3z"/>
<path d="M33.3,356.3c0-1.5,0.5-2.7,1.4-3.6c0.9-0.9,2-1.3,3.2-1.3c1.1,0,2.1,0.3,2.8,0.8c0.8,0.6,1.2,1.3,1.5,2.1
	c0.2,0.8,0.3,1.7,0,2.6l-7.4,0c0.1,0.9,0.5,1.6,1.2,2.1c0.7,0.5,1.6,0.7,2.6,0.7c1.1,0,2.2-0.3,3.1-0.8l0,1.5
	c-0.9,0.5-2,0.7-3.3,0.7c-1.5,0-2.7-0.4-3.7-1.3C33.8,359.1,33.3,357.9,33.3,356.3z M40.9,355.6c0-0.3,0-0.6-0.1-0.9
	c-0.1-0.3-0.2-0.6-0.4-0.9c-0.2-0.3-0.5-0.5-0.9-0.7c-0.4-0.2-0.9-0.3-1.5-0.3c-0.8,0-1.6,0.3-2.2,0.7c-0.6,0.5-0.9,1.2-1,2
	L40.9,355.6z"/>
<path d="M46,353c0.3-0.5,0.8-0.8,1.4-1.2c0.6-0.3,1.3-0.5,2-0.5c1.1,0,2.1,0.4,2.8,1.1c0.7,0.7,1.1,1.6,1.1,2.7l0,5.8l-1.6,0l0-5.6
	c0-0.8-0.2-1.5-0.7-1.9c-0.5-0.4-1.1-0.7-1.8-0.7c-1.2,0-2.2,0.6-3,1.9l0,6.3l-1.6,0l0-9.3l1.4,0L46,353z"/>
<path d="M56.5,348.7l1.5-0.4l0,3.3l3.7,0l0,1.4l-3.7,0l0,4.8c0,0.7,0.2,1.2,0.5,1.4c0.3,0.3,0.8,0.4,1.5,0.4c0.7,0,1.4-0.1,2.1-0.4
	l0,1.4c-0.8,0.3-1.6,0.4-2.5,0.4c-0.9,0-1.7-0.2-2.3-0.8c-0.6-0.5-0.8-1.3-0.8-2.3l0-5.1l-1.8,0l0-1.4l1.8,0L56.5,348.7z"/>
<path d="M65.3,353.2c0.4-0.6,0.9-1.1,1.7-1.4c0.8-0.4,1.5-0.5,2.4-0.4l0,1.6c-0.9-0.1-1.7,0.1-2.4,0.5c-0.7,0.4-1.2,1-1.5,1.7l0,5.8
	l-1.6,0l0-9.3l1.4,0L65.3,353.2z"/>
<path d="M78.5,358.9c0,0.5,0.2,0.7,0.7,0.7c0.2,0,0.4,0,0.7-0.1l0,1.3c-0.4,0.1-0.8,0.2-1.2,0.2c-0.9,0-1.5-0.4-1.7-1.1
	c-1,0.8-2.2,1.3-3.6,1.3c-0.9,0-1.7-0.2-2.3-0.7c-0.6-0.5-1-1.2-1-2.1c0-1.1,0.4-1.9,1.2-2.4c0.8-0.5,1.8-0.8,3-0.8
	c0.9,0,1.7,0.1,2.6,0.3l0-0.3c0-0.7-0.2-1.3-0.7-1.7c-0.5-0.4-1.1-0.6-2-0.6c-1.2,0-2.3,0.2-3.4,0.7l0-1.5c1.2-0.4,2.4-0.6,3.6-0.6
	c1.3,0,2.3,0.3,3,1c0.7,0.7,1.1,1.7,1.1,2.9L78.5,358.9z M71.7,358.2c0,0.5,0.2,0.9,0.6,1.2c0.4,0.3,0.9,0.4,1.4,0.4
	c1.3,0,2.3-0.5,3.2-1.4l0-1.7c-0.9-0.2-1.7-0.3-2.4-0.3c-0.8,0-1.5,0.1-2,0.4C72,357.1,71.7,357.5,71.7,358.2z"/>
<path d="M81.5,346.6l1.6,0l0,14.2l-1.6,0L81.5,346.6z"/>
<path d="M87.6,360.8l-1.6,0l0-9.3l1.6,0L87.6,360.8z M87.5,347.8c0.2,0.2,0.3,0.4,0.3,0.7c0,0.3-0.1,0.6-0.3,0.7
	c-0.2,0.2-0.4,0.3-0.7,0.3c-0.3,0-0.5-0.1-0.7-0.3c-0.2-0.2-0.3-0.4-0.3-0.7c0-0.3,0.1-0.6,0.3-0.7c0.2-0.2,0.4-0.3,0.7-0.3
	C87.1,347.5,87.3,347.6,87.5,347.8z"/>
<path d="M90,351.5l7.1,0l0,1.4l-5.5,6.6l5.9,0l0,1.4l-7.7,0l0-1.4l5.5-6.6l-5.3,0L90,351.5z"/>
<path d="M98.8,356.1c0-1.5,0.5-2.7,1.4-3.6c0.9-0.9,2-1.3,3.2-1.3c1.1,0,2.1,0.3,2.8,0.8c0.8,0.6,1.2,1.3,1.5,2.1
	c0.2,0.8,0.3,1.7,0,2.6l-7.4,0c0.1,0.9,0.5,1.6,1.2,2.1c0.7,0.5,1.6,0.7,2.6,0.7c1.1,0,2.2-0.3,3.1-0.8l0,1.5
	c-0.9,0.5-2,0.7-3.3,0.7c-1.5,0-2.7-0.4-3.7-1.3C99.3,358.9,98.8,357.7,98.8,356.1z M106.4,355.4c0-0.3,0-0.6-0.1-0.9
	s-0.2-0.6-0.4-0.9c-0.2-0.3-0.5-0.5-0.9-0.7c-0.4-0.2-0.9-0.3-1.5-0.3c-0.8,0-1.6,0.3-2.2,0.7c-0.6,0.5-0.9,1.2-1,2L106.4,355.4z"/>
<path d="M117.7,347.1l1.6,0l0,13.6l-1.4,0l0-1.6c-1,1.2-2.3,1.8-3.8,1.8c-1.3,0-2.5-0.5-3.4-1.4c-0.9-0.9-1.3-2.1-1.3-3.5
	c0-1.4,0.4-2.6,1.3-3.5c0.9-0.9,2-1.4,3.3-1.4c1.5,0,2.7,0.5,3.6,1.6L117.7,347.1z M117.7,354.9c-0.3-0.6-0.7-1.2-1.3-1.6
	c-0.6-0.4-1.3-0.7-2.1-0.7c-0.9,0-1.7,0.3-2.4,1c-0.6,0.6-0.9,1.5-0.9,2.5c0,1,0.3,1.9,0.9,2.5c0.6,0.6,1.4,1,2.4,0.9
	c0.8,0,1.5-0.2,2.1-0.7s1.1-1,1.3-1.6L117.7,354.9z"/>
<path d="M24.1,381.3c0-1.5,0.5-2.7,1.4-3.6c0.9-0.9,2-1.3,3.2-1.3c1.1,0,2.1,0.3,2.8,0.8c0.8,0.6,1.2,1.3,1.5,2.1
	c0.2,0.8,0.3,1.7,0,2.6l-7.4,0c0.1,0.9,0.5,1.6,1.2,2.1c0.7,0.5,1.6,0.7,2.6,0.7c1.1,0,2.2-0.3,3.1-0.8l0,1.5
	c-0.9,0.5-2,0.7-3.3,0.7c-1.5,0-2.7-0.4-3.7-1.3C24.6,384.1,24.1,382.9,24.1,381.3z M31.7,380.6c0-0.3,0-0.6-0.1-0.9
	c-0.1-0.3-0.2-0.6-0.4-0.9c-0.2-0.3-0.5-0.5-0.9-0.7c-0.4-0.2-0.9-0.3-1.5-0.3c-0.8,0-1.6,0.3-2.2,0.7c-0.6,0.5-0.9,1.2-1,2
	L31.7,380.6z"/>
<path d="M41,376.6l1.8,0l-3.4,4.5l3.6,4.8l-1.8,0l-2.7-3.7l-2.7,3.7l-1.8,0l3.6-4.8l-3.5-4.5l1.8,0l2.6,3.4L41,376.6z"/>
<path d="M43.6,381.3c0-0.8,0.1-1.6,0.4-2.2s0.7-1.2,1.2-1.6c0.5-0.4,1-0.7,1.6-0.9c0.6-0.2,1.2-0.3,1.8-0.3c1.2,0,2.1,0.2,2.9,0.8
	l0,1.5c-0.7-0.6-1.6-0.8-2.7-0.8c-1,0-1.9,0.3-2.6,0.9c-0.7,0.6-1.1,1.5-1.1,2.6c0,1.1,0.4,2,1.1,2.6c0.7,0.6,1.6,0.9,2.6,0.9
	c1,0,2-0.3,2.8-0.8l0,1.6c-0.9,0.4-1.9,0.6-3,0.6c-1.3,0-2.5-0.4-3.5-1.3C44.1,384.1,43.6,382.9,43.6,381.3z"/>
<path d="M53.9,372.3l1.6,0l0,5.5c0.4-0.4,0.8-0.7,1.4-1c0.6-0.3,1.2-0.4,1.8-0.4c1.1,0,2.1,0.4,2.8,1.1c0.7,0.7,1.1,1.6,1.1,2.7
	l0,5.8l-1.6,0l0-5.6c0-0.8-0.2-1.5-0.7-1.9c-0.5-0.4-1.1-0.7-1.8-0.7c-1.2,0-2.2,0.6-3,1.9l0,6.3l-1.6,0L53.9,372.3z"/>
<path d="M72.9,383.9c0,0.5,0.2,0.7,0.7,0.7c0.2,0,0.4,0,0.7-0.1l0,1.3c-0.4,0.1-0.8,0.2-1.2,0.2c-0.9,0-1.5-0.4-1.7-1.1
	c-1,0.8-2.2,1.3-3.6,1.3c-0.9,0-1.7-0.2-2.3-0.7c-0.6-0.5-1-1.2-1-2.1c0-1.1,0.4-1.9,1.2-2.4c0.8-0.5,1.8-0.8,3-0.8
	c0.9,0,1.7,0.1,2.6,0.3l0-0.3c0-0.7-0.2-1.3-0.7-1.7c-0.5-0.4-1.1-0.6-2-0.6c-1.2,0-2.3,0.2-3.4,0.7l0-1.5c1.2-0.4,2.4-0.6,3.6-0.6
	c1.3,0,2.3,0.3,3,1c0.7,0.7,1.1,1.7,1.1,2.9L72.9,383.9z M66.1,383.2c0,0.5,0.2,0.9,0.6,1.2c0.4,0.3,0.9,0.4,1.4,0.4
	c1.3,0,2.3-0.5,3.2-1.4l0-1.7c-0.9-0.2-1.7-0.3-2.4-0.3c-0.8,0-1.5,0.1-2,0.4C66.4,382.1,66.1,382.6,66.1,383.2z"/>
<path d="M77.3,377.9c0.3-0.5,0.8-0.8,1.4-1.2c0.6-0.3,1.3-0.5,2-0.5c1.1,0,2.1,0.4,2.8,1.1c0.7,0.7,1.1,1.6,1.1,2.7l0,5.8l-1.6,0
	l0-5.6c0-0.8-0.2-1.5-0.7-1.9c-0.5-0.4-1.1-0.7-1.8-0.7c-1.2,0-2.2,0.6-3,1.9l0,6.3l-1.6,0l0-9.3l1.4,0L77.3,377.9z"/>
<path d="M88,384.6c-0.9-0.9-1.3-2.1-1.3-3.5c0-1.4,0.4-2.6,1.3-3.5c0.9-0.9,2-1.4,3.3-1.4c1.5,0,2.7,0.6,3.8,1.8l0-1.6l1.4,0l0,9.3
	c0,1.5-0.5,2.6-1.5,3.4c-1,0.8-2.2,1.1-3.6,1.1c-1.4,0-2.7-0.3-3.8-0.9l0-1.5c1.1,0.6,2.3,0.9,3.6,0.9c1.1,0,2-0.3,2.7-0.7
	c0.7-0.5,1-1.3,1-2.3l0-1.4c-0.9,1.1-2.1,1.7-3.6,1.7C90,386,88.9,385.6,88,384.6z M95,379.9c-0.3-0.6-0.7-1.2-1.3-1.6
	c-0.6-0.4-1.3-0.7-2.1-0.7c-0.9,0-1.7,0.3-2.4,1c-0.6,0.6-0.9,1.5-0.9,2.5c0,1,0.3,1.9,0.9,2.5c0.6,0.6,1.4,0.9,2.4,0.9
	c0.8,0,1.5-0.2,2.1-0.6c0.6-0.4,1.1-0.9,1.3-1.5L95,379.9z"/>
<path d="M98.8,381.1c0-1.5,0.5-2.7,1.4-3.6c0.9-0.9,2-1.3,3.2-1.3c1.1,0,2.1,0.3,2.8,0.8c0.8,0.6,1.2,1.3,1.5,2.1
	c0.2,0.8,0.3,1.7,0,2.6l-7.4,0c0.1,0.9,0.5,1.6,1.2,2.1c0.7,0.5,1.6,0.7,2.6,0.7c1.1,0,2.2-0.3,3.1-0.8l0,1.5
	c-0.9,0.5-2,0.7-3.3,0.7c-1.5,0-2.7-0.4-3.7-1.3C99.3,383.9,98.8,382.7,98.8,381.1z M106.4,380.4c0-0.3,0-0.6-0.1-0.9
	c-0.1-0.3-0.2-0.6-0.4-0.9c-0.2-0.3-0.5-0.5-0.9-0.7c-0.4-0.2-0.9-0.3-1.5-0.3c-0.8,0-1.6,0.3-2.2,0.7c-0.6,0.5-0.9,1.2-1,2
	L106.4,380.4z"/>
<path d="M109.5,378.9c0-0.9,0.3-1.6,1-2c0.7-0.5,1.5-0.7,2.5-0.7c1.2,0,2.3,0.3,3.3,0.8l0,1.5c-0.4-0.3-0.9-0.5-1.5-0.6
	c-0.6-0.2-1.2-0.3-1.7-0.2c-0.6,0-1.1,0.1-1.5,0.3c-0.4,0.2-0.6,0.5-0.6,0.9c0,0.3,0.1,0.6,0.4,0.8c0.3,0.2,0.7,0.4,1.1,0.5
	c0.4,0.1,0.9,0.3,1.4,0.4c0.5,0.2,1,0.3,1.4,0.5c0.4,0.2,0.8,0.5,1.1,0.9c0.3,0.4,0.5,0.8,0.5,1.4c0,0.9-0.4,1.6-1.1,2
	c-0.7,0.4-1.6,0.6-2.8,0.6c-1.5,0-2.7-0.3-3.6-0.9l0-1.5c1,0.7,2.2,1,3.5,1c1.6,0,2.4-0.4,2.4-1.2c0-0.4-0.2-0.6-0.6-0.9
	c-0.4-0.2-0.9-0.4-1.5-0.6c-0.6-0.2-1.2-0.4-1.8-0.6c-0.6-0.2-1.1-0.5-1.5-0.9C109.7,380,109.5,379.5,109.5,378.9z"/>
<path d="M192,347.3l1.6,0l0,12.1l7.6,0l0,1.6l-9.2,0L192,347.3z"/>
<path d="M204.6,360.9l-1.6,0l0-9.3l1.6,0L204.6,360.9z M204.5,347.9c0.2,0.2,0.3,0.4,0.3,0.7c0,0.3-0.1,0.6-0.3,0.7
	c-0.2,0.2-0.4,0.3-0.7,0.3c-0.3,0-0.5-0.1-0.7-0.3c-0.2-0.2-0.3-0.4-0.3-0.7c0-0.3,0.1-0.6,0.3-0.7c0.2-0.2,0.4-0.3,0.7-0.3
	C204,347.6,204.3,347.7,204.5,347.9z"/>
<path d="M208.2,359.8c-0.9-0.9-1.3-2.1-1.3-3.5c0-1.4,0.4-2.6,1.3-3.5c0.9-0.9,2-1.4,3.3-1.4c1.5,0,2.7,0.6,3.8,1.8l0-1.6l1.4,0
	l0,13.6l-1.6,0l0-5.7c-0.9,1.1-2.1,1.6-3.6,1.6C210.2,361.1,209.1,360.7,208.2,359.8z M215.1,355.1c-0.3-0.6-0.7-1.2-1.3-1.6
	c-0.6-0.4-1.3-0.7-2.1-0.7c-0.9,0-1.7,0.3-2.4,1c-0.6,0.6-0.9,1.5-0.9,2.5c0,1,0.3,1.9,0.9,2.5c0.6,0.6,1.4,1,2.4,0.9
	c0.8,0,1.5-0.2,2.1-0.7c0.6-0.4,1.1-1,1.3-1.6L215.1,355.1z"/>
<path d="M226.6,351.5l1.6,0l0,9.3l-1.4,0l0-1.4c-0.3,0.5-0.8,0.8-1.4,1.2c-0.6,0.3-1.2,0.5-1.9,0.5c-1.2,0-2.2-0.3-2.9-1
	c-0.7-0.7-1-1.6-1-2.8l0-5.8l1.6,0l0,5.6c0,1.7,0.8,2.6,2.5,2.6c1.2,0,2.2-0.6,3-1.9L226.6,351.5z"/>
<path d="M232.6,360.9l-1.6,0l0-9.3l1.6,0L232.6,360.9z M232.5,347.8c0.2,0.2,0.3,0.4,0.3,0.7c0,0.3-0.1,0.6-0.3,0.7
	c-0.2,0.2-0.4,0.3-0.7,0.3c-0.3,0-0.5-0.1-0.7-0.3c-0.2-0.2-0.3-0.4-0.3-0.7c0-0.3,0.1-0.6,0.3-0.7c0.2-0.2,0.4-0.3,0.7-0.3
	C232.1,347.5,232.3,347.6,232.5,347.8z"/>
<path d="M243.2,347.2l1.6,0l0,13.6l-1.4,0l0-1.6c-1,1.2-2.3,1.8-3.8,1.8c-1.3,0-2.5-0.5-3.4-1.4c-0.9-0.9-1.3-2.1-1.3-3.5
	c0-1.4,0.4-2.6,1.3-3.5c0.9-0.9,2-1.4,3.3-1.4c1.5,0,2.7,0.5,3.6,1.6L243.2,347.2z M243.2,355c-0.3-0.6-0.7-1.2-1.3-1.6
	c-0.6-0.4-1.3-0.7-2.1-0.7c-0.9,0-1.7,0.3-2.4,1c-0.6,0.6-0.9,1.5-0.9,2.5c0,1,0.3,1.9,0.9,2.5c0.6,0.6,1.4,1,2.4,0.9
	c0.8,0,1.5-0.2,2.1-0.7c0.6-0.4,1.1-1,1.3-1.6L243.2,355z"/>
<path d="M249.2,360.8l-1.6,0l0-9.3l1.6,0L249.2,360.8z M249.1,347.8c0.2,0.2,0.3,0.4,0.3,0.7c0,0.3-0.1,0.6-0.3,0.7
	c-0.2,0.2-0.4,0.3-0.7,0.3c-0.3,0-0.5-0.1-0.7-0.3c-0.2-0.2-0.3-0.4-0.3-0.7c0-0.3,0.1-0.6,0.3-0.7c0.2-0.2,0.4-0.3,0.7-0.3
	C248.7,347.5,248.9,347.6,249.1,347.8z"/>
<path d="M252.7,348.6l1.5-0.4l0,3.3l3.7,0l0,1.4l-3.7,0l0,4.8c0,0.7,0.2,1.2,0.5,1.4c0.3,0.3,0.8,0.4,1.5,0.4c0.7,0,1.4-0.1,2.1-0.4
	l0,1.4c-0.8,0.3-1.6,0.4-2.5,0.4c-0.9,0-1.7-0.2-2.3-0.8c-0.6-0.5-0.8-1.3-0.8-2.3l0-5.1l-1.8,0l0-1.4l1.8,0L252.7,348.6z"/>
<path d="M264.1,359l3.1-7.6l1.7,0l-4.6,10.8c-0.9,2.1-2.1,3.1-3.5,3.1c-0.3,0-0.7,0-1-0.1l0-1.3c0.3,0.1,0.5,0.1,0.8,0.1
	c1,0,1.8-0.8,2.4-2.3l0.3-0.9l-4.5-9.4l1.7,0L264.1,359z"/>
<path d="M190.3,378.2c1-1.2,2.3-1.8,3.8-1.8c1.3,0,2.4,0.5,3.3,1.4c0.9,0.9,1.3,2.1,1.4,3.5c0,1.4-0.4,2.6-1.3,3.5
	c-0.9,0.9-2,1.4-3.3,1.4c-1.5,0-2.7-0.5-3.6-1.6l0,5.7l-1.6,0l0-13.6l1.4,0L190.3,378.2z M196.3,383.8c0.6-0.6,0.9-1.5,0.9-2.5
	c0-1-0.3-1.9-1-2.5c-0.6-0.6-1.4-0.9-2.3-0.9c-0.8,0-1.5,0.2-2.1,0.7c-0.6,0.4-1.1,1-1.3,1.6l0,2.3c0.3,0.6,0.7,1.2,1.3,1.6
	c0.6,0.4,1.3,0.7,2.1,0.7C194.9,384.8,195.7,384.4,196.3,383.8z"/>
<path d="M202.4,378.2c0.4-0.6,0.9-1.1,1.7-1.4c0.8-0.4,1.5-0.5,2.4-0.4l0,1.6c-0.9-0.1-1.7,0-2.4,0.5c-0.7,0.4-1.2,1-1.5,1.7l0,5.8
	l-1.6,0l0-9.3l1.4,0L202.4,378.2z"/>
<path d="M208.7,384.8c-1-0.9-1.5-2.1-1.5-3.6c0-1.5,0.5-2.7,1.5-3.6c1-0.9,2.1-1.3,3.5-1.3c1.4,0,2.5,0.4,3.5,1.3
	c1,0.9,1.5,2.1,1.5,3.6c0,1.5-0.5,2.7-1.5,3.6c-1,0.9-2.1,1.3-3.5,1.3C210.8,386.1,209.7,385.7,208.7,384.8z M214.6,383.7
	c0.6-0.6,1-1.5,1-2.5c0-1.1-0.3-1.9-1-2.5c-0.7-0.6-1.5-0.9-2.5-0.9c-1,0-1.8,0.3-2.5,0.9c-0.6,0.6-1,1.4-1,2.5c0,1.1,0.3,1.9,1,2.5
	c0.6,0.6,1.5,0.9,2.5,0.9C213.2,384.7,214,384.4,214.6,383.7z"/>
<path d="M226,376.5l1.7,0l-4.1,9.4l-1.6,0l-4.2-9.3l1.7,0l3.2,7.6L226,376.5z"/>
<path d="M231.1,385.9l-1.6,0l0-9.3l1.6,0L231.1,385.9z M231,372.8c0.2,0.2,0.3,0.4,0.3,0.7c0,0.3-0.1,0.6-0.3,0.7
	c-0.2,0.2-0.4,0.3-0.7,0.3c-0.3,0-0.5-0.1-0.7-0.3c-0.2-0.2-0.3-0.4-0.3-0.7c0-0.3,0.1-0.6,0.3-0.7c0.2-0.2,0.4-0.3,0.7-0.3
	C230.6,372.5,230.8,372.6,231,372.8z"/>
<path d="M241.6,372.2l1.6,0l0,13.6l-1.4,0l0-1.6c-1,1.2-2.3,1.8-3.8,1.8c-1.3,0-2.5-0.5-3.4-1.4c-0.9-0.9-1.3-2.1-1.3-3.5
	c0-1.4,0.4-2.6,1.3-3.5c0.9-0.9,2-1.4,3.3-1.4c1.5,0,2.7,0.5,3.6,1.6L241.6,372.2z M241.6,380c-0.3-0.6-0.7-1.2-1.3-1.6
	c-0.6-0.4-1.3-0.7-2.1-0.7c-0.9,0-1.7,0.3-2.4,1c-0.6,0.6-0.9,1.5-0.9,2.5s0.3,1.9,0.9,2.5c0.6,0.6,1.4,1,2.4,0.9
	c0.8,0,1.5-0.2,2.1-0.7c0.6-0.4,1.1-1,1.3-1.6L241.6,380z"/>
<path d="M245.4,381.1c0-1.5,0.5-2.7,1.4-3.6c0.9-0.9,2-1.3,3.2-1.3c1.1,0,2.1,0.3,2.8,0.8c0.8,0.6,1.2,1.3,1.5,2.1
	c0.2,0.8,0.3,1.7,0,2.6l-7.4,0c0.1,0.9,0.5,1.6,1.2,2.1c0.7,0.5,1.6,0.7,2.6,0.7c1.1,0,2.2-0.3,3.1-0.8l0,1.5
	c-0.9,0.5-2,0.7-3.3,0.7c-1.5,0-2.7-0.4-3.7-1.3C245.9,383.9,245.5,382.7,245.4,381.1z M253.1,380.4c0-0.3,0-0.6-0.1-0.9
	c-0.1-0.3-0.2-0.6-0.4-0.9c-0.2-0.3-0.5-0.5-0.9-0.7c-0.4-0.2-0.9-0.3-1.5-0.3c-0.8,0-1.6,0.3-2.2,0.7c-0.6,0.5-0.9,1.2-1,2
	L253.1,380.4z"/>
<path d="M258.1,378.1c0.4-0.6,0.9-1.1,1.7-1.4c0.8-0.4,1.5-0.5,2.4-0.4l0,1.6c-0.9-0.1-1.7,0.1-2.4,0.5c-0.7,0.4-1.2,1-1.5,1.7
	l0,5.8l-1.6,0l0-9.3l1.4,0L258.1,378.1z"/>
<path d="M263.3,378.9c0-0.9,0.3-1.6,1-2c0.7-0.5,1.5-0.7,2.5-0.7c1.2,0,2.3,0.3,3.3,0.8l0,1.5c-0.4-0.3-0.9-0.5-1.5-0.6
	c-0.6-0.2-1.2-0.2-1.7-0.2c-0.6,0-1.1,0.1-1.5,0.3c-0.4,0.2-0.6,0.5-0.6,0.9c0,0.3,0.1,0.6,0.4,0.8c0.3,0.2,0.7,0.4,1.1,0.5
	c0.4,0.1,0.9,0.3,1.4,0.4c0.5,0.2,1,0.3,1.4,0.5c0.4,0.2,0.8,0.5,1.1,0.9c0.3,0.4,0.4,0.8,0.5,1.4c0,0.9-0.4,1.6-1.1,2
	c-0.7,0.4-1.6,0.6-2.8,0.6c-1.5,0-2.7-0.3-3.6-0.9l0-1.5c1,0.7,2.2,1,3.5,1c1.6,0,2.4-0.4,2.4-1.2c0-0.4-0.2-0.6-0.6-0.9
	c-0.4-0.2-0.9-0.4-1.5-0.6c-0.6-0.2-1.2-0.4-1.8-0.6c-0.6-0.2-1.1-0.5-1.5-0.9C263.5,380,263.3,379.5,263.3,378.9z"/>
<path d="M361.9,356.7c-0.3-0.8-0.5-1.7-0.5-2.6c0-0.9,0.1-1.8,0.4-2.6c0.3-0.8,0.7-1.6,1.3-2.2c0.6-0.7,1.3-1.2,2.2-1.6
	c0.9-0.4,2-0.6,3.1-0.6c1.2,0,2.2,0.2,3.1,0.6c0.9,0.4,1.7,0.9,2.2,1.6c0.6,0.7,1,1.4,1.3,2.2c0.3,0.8,0.5,1.7,0.5,2.6
	c0,0.9-0.2,1.8-0.5,2.6c-0.3,0.8-0.7,1.6-1.3,2.3c-0.6,0.7-1.3,1.2-2.2,1.6c-0.9,0.4-2,0.6-3.1,0.6s-2.2-0.2-3.1-0.6
	c-0.9-0.4-1.7-0.9-2.2-1.6C362.6,358.3,362.2,357.5,361.9,356.7z M373.7,356.1c0.2-0.6,0.3-1.3,0.3-2c0-0.7-0.1-1.4-0.4-2
	c-0.2-0.6-0.6-1.2-1-1.7c-0.4-0.5-1-0.9-1.7-1.2c-0.7-0.3-1.5-0.5-2.4-0.5c-0.9,0-1.7,0.2-2.4,0.5c-0.7,0.3-1.3,0.7-1.7,1.2
	c-0.4,0.5-0.8,1.1-1,1.8c-0.2,0.6-0.3,1.3-0.3,2c0,0.7,0.1,1.4,0.3,2c0.2,0.6,0.6,1.2,1,1.7c0.4,0.5,1,0.9,1.7,1.2
	c0.7,0.3,1.5,0.4,2.4,0.4c0.9,0,1.7-0.2,2.4-0.5c0.7-0.3,1.3-0.7,1.7-1.3C373.1,357.4,373.5,356.8,373.7,356.1z"/>
<path d="M390.1,351.5l1.6,0l-3.2,9.4l-1.7,0l-2.5-7.2l-2.5,7.2l-1.7,0l-3.2-9.3l1.6,0l2.4,7.6l2.6-7.6l1.4,0l2.7,7.6L390.1,351.5z"
	/>
<path d="M394.9,352.9c0.3-0.5,0.8-0.8,1.4-1.2c0.6-0.3,1.3-0.5,2-0.5c1.1,0,2.1,0.4,2.8,1.1c0.7,0.7,1.1,1.6,1.1,2.7l0,5.8l-1.6,0
	l0-5.6c0-0.8-0.2-1.5-0.7-1.9c-0.5-0.4-1.1-0.7-1.8-0.7c-1.2,0-2.2,0.6-3,1.9l0,6.3l-1.6,0l0-9.3l1.4,0L394.9,352.9z"/>
<path d="M347.5,371.7l1.6,0l0,14.2l-1.6,0L347.5,371.7z"/>
<path d="M353.6,385.9l-1.6,0l0-9.3l1.6,0L353.6,385.9z M353.5,372.9c0.2,0.2,0.3,0.4,0.3,0.7c0,0.3-0.1,0.6-0.3,0.7
	c-0.2,0.2-0.4,0.3-0.7,0.3c-0.3,0-0.5-0.1-0.7-0.3c-0.2-0.2-0.3-0.4-0.3-0.7c0-0.3,0.1-0.6,0.3-0.7c0.2-0.2,0.4-0.3,0.7-0.3
	C353.1,372.6,353.3,372.7,353.5,372.9z"/>
<path d="M357.2,384.8c-0.9-0.9-1.3-2.1-1.3-3.5c0-1.4,0.4-2.6,1.3-3.5c0.9-0.9,2-1.4,3.3-1.4c1.5,0,2.7,0.6,3.8,1.8l0-1.6l1.4,0
	l0,13.6l-1.6,0l0-5.7c-0.9,1.1-2.1,1.6-3.6,1.6C359.2,386.2,358.1,385.7,357.2,384.8z M364.2,380.1c-0.3-0.6-0.7-1.2-1.3-1.6
	c-0.6-0.4-1.3-0.7-2.1-0.7c-0.9,0-1.7,0.3-2.4,1c-0.6,0.6-0.9,1.5-0.9,2.5c0,1,0.3,1.9,0.9,2.5c0.6,0.6,1.4,0.9,2.4,0.9
	c0.8,0,1.5-0.2,2.1-0.7c0.6-0.4,1.1-1,1.3-1.6L364.2,380.1z"/>
<path d="M375.6,376.5l1.6,0l0,9.3l-1.4,0l0-1.4c-0.3,0.5-0.8,0.8-1.4,1.2c-0.6,0.3-1.2,0.5-1.9,0.5c-1.2,0-2.2-0.3-2.9-1
	c-0.7-0.7-1-1.6-1-2.8l0-5.8l1.6,0l0,5.6c0,1.7,0.8,2.6,2.5,2.6c1.2,0,2.2-0.6,3-1.9L375.6,376.5z"/>
<path d="M381.6,385.9l-1.6,0l0-9.3l1.6,0L381.6,385.9z M381.5,372.8c0.2,0.2,0.3,0.4,0.3,0.7c0,0.3-0.1,0.6-0.3,0.7
	c-0.2,0.2-0.4,0.3-0.7,0.3c-0.3,0-0.5-0.1-0.7-0.3c-0.2-0.2-0.3-0.4-0.3-0.7c0-0.3,0.1-0.6,0.3-0.7c0.2-0.2,0.4-0.3,0.7-0.3
	C381.1,372.6,381.3,372.6,381.5,372.8z"/>
<path d="M392.2,372.2l1.6,0l0,13.6l-1.4,0l0-1.6c-1,1.2-2.3,1.8-3.8,1.8c-1.3,0-2.5-0.5-3.4-1.4c-0.9-0.9-1.3-2.1-1.3-3.5
	c0-1.4,0.4-2.6,1.3-3.5c0.9-0.9,2-1.4,3.3-1.4c1.5,0,2.7,0.5,3.6,1.6L392.2,372.2z M392.2,380c-0.3-0.6-0.7-1.2-1.3-1.6
	c-0.6-0.4-1.3-0.7-2.1-0.7c-0.9,0-1.7,0.3-2.4,1c-0.6,0.6-0.9,1.5-0.9,2.5s0.3,1.9,0.9,2.5c0.6,0.6,1.4,1,2.4,0.9
	c0.8,0,1.5-0.2,2.1-0.7c0.6-0.4,1.1-1,1.3-1.6L392.2,380z"/>
<path d="M398.2,385.8l-1.6,0l0-9.3l1.6,0L398.2,385.8z M398.1,372.8c0.2,0.2,0.3,0.4,0.3,0.7c0,0.3-0.1,0.6-0.3,0.7
	c-0.2,0.2-0.4,0.3-0.7,0.3c-0.3,0-0.5-0.1-0.7-0.3c-0.2-0.2-0.3-0.4-0.3-0.7c0-0.3,0.1-0.6,0.3-0.7c0.2-0.2,0.4-0.3,0.7-0.3
	C397.7,372.5,398,372.6,398.1,372.8z"/>
<path d="M401.8,373.6l1.5-0.4l0,3.3l3.7,0l0,1.4l-3.7,0l0,4.8c0,0.7,0.2,1.2,0.5,1.4c0.3,0.3,0.8,0.4,1.5,0.4c0.7,0,1.4-0.1,2.1-0.4
	l0,1.4c-0.8,0.3-1.6,0.4-2.5,0.4c-0.9,0-1.7-0.2-2.3-0.8c-0.6-0.5-0.8-1.3-0.8-2.3l0-5.1l-1.8,0l0-1.4l1.8,0L401.8,373.6z"/>
<path d="M413.1,384l3.1-7.6l1.7,0l-4.6,10.8c-0.9,2.1-2.1,3.1-3.5,3.1c-0.3,0-0.7,0-1-0.1l0-1.3c0.3,0.1,0.5,0.1,0.8,0.1
	c1,0,1.8-0.8,2.4-2.3l0.3-0.9l-4.5-9.4l1.7,0L413.1,384z"/>
<path d="M201.5,555.6c0-1.5,0.3-2.8,1.1-3.9c0.7-1.1,1.6-1.9,2.7-2.5c1.1-0.5,2.2-0.8,3.4-0.8c1.4,0,2.7,0.3,3.8,0.9l0,1.6
	c-1-0.7-2.2-1-3.6-1c-1.6,0-2.9,0.5-4,1.5c-1.1,0.9-1.7,2.3-1.7,4.1c0,1.2,0.3,2.2,0.9,3c0.6,0.8,1.3,1.5,2.2,1.8
	c0.9,0.4,1.8,0.6,2.8,0.6c1.5,0,2.7-0.3,3.6-1l0,1.6c-1.2,0.6-2.5,0.9-3.9,0.9c-0.9,0-1.7-0.1-2.6-0.4c-0.8-0.3-1.6-0.7-2.3-1.3
	c-0.7-0.6-1.2-1.3-1.7-2.2C201.7,557.7,201.5,556.7,201.5,555.6z"/>
<path d="M214.8,548.1l1.6,0l0,14.2l-1.6,0L214.8,548.1z"/>
<path d="M220.9,562.3l-1.6,0l0-9.3l1.6,0L220.9,562.3z M220.8,549.2c0.2,0.2,0.3,0.4,0.3,0.7c0,0.3-0.1,0.6-0.3,0.7
	c-0.2,0.2-0.4,0.3-0.7,0.3c-0.3,0-0.5-0.1-0.7-0.3c-0.2-0.2-0.3-0.4-0.3-0.7c0-0.3,0.1-0.6,0.3-0.7c0.2-0.2,0.4-0.3,0.7-0.3
	C220.4,549,220.6,549,220.8,549.2z"/>
<path d="M223.2,557.6c0-1.5,0.5-2.7,1.4-3.6c0.9-0.9,2-1.3,3.2-1.3c1.1,0,2.1,0.3,2.8,0.9c0.8,0.6,1.3,1.3,1.5,2.1
	c0.2,0.8,0.3,1.7,0,2.6l-7.4,0c0.1,0.9,0.5,1.6,1.2,2.1c0.7,0.5,1.6,0.7,2.6,0.7c1.1,0,2.2-0.3,3.1-0.8l0,1.5
	c-0.9,0.5-2,0.7-3.3,0.7c-1.5,0-2.7-0.4-3.7-1.3C223.7,560.4,223.2,559.2,223.2,557.6z M230.8,556.9c0-0.3,0-0.6-0.1-0.9
	c-0.1-0.3-0.2-0.6-0.4-0.9c-0.2-0.3-0.5-0.5-0.9-0.7c-0.4-0.2-0.9-0.3-1.5-0.3c-0.8,0-1.6,0.3-2.2,0.7c-0.6,0.5-0.9,1.2-1,2
	L230.8,556.9z"/>
<path d="M235.9,554.3c0.3-0.5,0.8-0.8,1.4-1.2c0.6-0.3,1.3-0.5,2-0.5c1.1,0,2.1,0.4,2.8,1.1c0.7,0.7,1.1,1.6,1.1,2.7l0,5.8l-1.6,0
	l0-5.6c0-0.8-0.2-1.5-0.7-1.9c-0.5-0.4-1.1-0.7-1.8-0.7c-1.2,0-2.2,0.6-3,1.9l0,6.3l-1.6,0l0-9.3l1.4,0L235.9,554.3z"/>
<path d="M246.4,550l1.5-0.4l0,3.3l3.7,0l0,1.4l-3.7,0l0,4.8c0,0.7,0.2,1.2,0.5,1.4c0.3,0.3,0.8,0.4,1.5,0.4c0.7,0,1.4-0.1,2.1-0.4
	l0,1.4c-0.8,0.3-1.6,0.4-2.5,0.4c-0.9,0-1.7-0.2-2.3-0.8c-0.6-0.5-0.8-1.3-0.8-2.3l0-5.1l-1.8,0l0-1.4l1.8,0L246.4,550z"/>
<path d="M226.2,431.7v-34h0.9v34h154.9v-34h0.9v34.9H227.1v22.8h-0.9v-22.8H70.4v-34.9h0.9v34H226.2z"/>
<path class="st0" d="M226.2,508.4v22.1h-68.3v53.1h137.3v-53.1h-68.1v-22.1h68.1v-53H157.9v53H226.2z M294.3,531.3H158.8v51.3h135.5
	V531.3z M158.8,456.3h135.5v51.2H158.8V456.3z"/>
<g>
	<defs>
		<rect id="SVGID_1_" x="177.1" y="468.3" width="25" height="27.1"/>
	</defs>
	<clipPath id="SVGID_2_">
		<use xlink:href="#SVGID_1_"  style="overflow:visible;"/>
	</clipPath>
	<g class="st1">
		<path class="st2" d="M184.2,468.3l-3.3,1.8l3.6,0.5l-0.1,3.9l3.3-1.8l0.1-4L184.2,468.3z"/>
		<path class="st2" d="M180.6,471.8l-3.3,1.8l3.6,0.5l3.3-1.8L180.6,471.8z"/>
		<path class="st2" d="M187.7,472.8l-3.3,1.8l-0.1,4l3.3-1.8L187.7,472.8z"/>
		<path class="st3" d="M184.5,470.7l-0.1,3.9l-0.1,4l-3.6-0.5l-3.5-0.5v-4l3.6,0.5l0.1-3.9L184.5,470.7z"/>
		<path class="st2" d="M194.4,469.9l-3.4,1.8l3.6,0.5l3.3-1.8L194.4,469.9z"/>
		<path class="st2" d="M197.9,470.4l-3.3,1.8l0,4l3.6,0.5l-0.1,4l3.4-1.8v-4l-3.5-0.5L197.9,470.4z"/>
		<path class="st3" d="M194.6,472.2l-0.1,4l3.6,0.5l-0.1,4l-3.5-0.6l-3.6-0.5l0.1-3.9v-4L194.6,472.2z"/>
		<path class="st2" d="M194.2,483.7l-3.3,1.8l3.6,0.5l3.6,0.6l-0.1,3.9l3.3-1.8l0.1-4L194.2,483.7z"/>
		<path class="st2" d="M197.7,488.2l-3.3,1.8l-0.1,4l3.3-1.8L197.7,488.2z"/>
		<path class="st3" d="M198,486.6l-0.1,3.9l-3.6-0.5l-0.1,4l-3.6-0.5l0.1-4l0.1-4l3.6,0.5L198,486.6z"/>
		<path class="st2" d="M180.5,481.6l-3.3,1.8l7.2,1l-0.1,7.9l3.3-1.8l0.1-8L180.5,481.6z"/>
		<path class="st3" d="M184.3,484.5l-0.1,4l-0.1,3.9l-3.6-0.5l0.1-3.9l-3.6-0.6l0.1-3.9l3.6,0.5L184.3,484.5z"/>
	</g>
</g>
<path class="st4" d="M210.6,476.6h0.9v8.9h-0.9V476.6z"/>
<path class="st4" d="M225.4,476.6v8.9h-0.8l-5.7-7.3v7.3h-0.9v-8.9h0.8l5.8,7.3v-7.3H225.4z"/>
<path class="st4" d="M239.1,476.6l-4,8.9h-0.9l-4-8.9h1l3.4,7.8l3.4-7.8H239.1z"/>
<path class="st4" d="M250.1,484.8v0.8h-6.3v-8.9h6.1v0.8h-5.2v3.2h4.6v0.8h-4.6v3.3H250.1z"/>
<path class="st4" d="M265.1,476.6v8.9h-0.9v-7.2l-3.5,6h-0.4l-3.5-6v7.1h-0.9v-8.9h0.8l3.9,6.6l3.8-6.6H265.1z"/>
<path class="st4" d="M275.4,485.7c-0.9,0-1.7-0.2-2.4-0.6c-0.7-0.4-1.3-0.9-1.7-1.6c-0.4-0.7-0.6-1.5-0.6-2.3c0-0.9,0.2-1.6,0.6-2.3
	c0.4-0.7,1-1.2,1.7-1.6c0.7-0.4,1.5-0.6,2.4-0.6c0.9,0,1.7,0.2,2.4,0.6c0.7,0.4,1.3,0.9,1.7,1.6c0.4,0.7,0.6,1.5,0.6,2.3
	c0,0.9-0.2,1.6-0.6,2.3c-0.4,0.7-1,1.2-1.7,1.6C277,485.5,276.2,485.7,275.4,485.7z M275.4,484.8c0.7,0,1.3-0.2,1.9-0.5
	c0.6-0.3,1-0.8,1.3-1.3c0.3-0.6,0.5-1.2,0.5-1.9c0-0.7-0.2-1.3-0.5-1.9c-0.3-0.6-0.8-1-1.3-1.3c-0.6-0.3-1.2-0.5-1.9-0.5
	s-1.3,0.2-1.9,0.5c-0.6,0.3-1,0.8-1.4,1.3c-0.3,0.6-0.5,1.2-0.5,1.9c0,0.7,0.2,1.3,0.5,1.9c0.3,0.6,0.8,1,1.4,1.3
	C274,484.7,274.6,484.8,275.4,484.8z"/>
<path d="M124.3,10.2l19.1-0.1l0,2.6l-8.1,0l0.1,20.5l-2.8,0l-0.1-20.5l-8.1,0L124.3,10.2z M144.9,20.2c0.6-1,1.6-1.8,2.8-2.4
	c1.3-0.6,2.6-0.8,4-0.7l0,2.6c-1.5-0.2-2.9,0.1-4.1,0.8c-1.2,0.7-2,1.6-2.5,2.9l0,9.9l-2.7,0l0-15.9l2.4,0L144.9,20.2z M167.4,29.9
	c0,0.8,0.4,1.2,1.2,1.2c0.4,0,0.8-0.1,1.2-0.2l0,2.2c-0.7,0.2-1.3,0.4-2,0.4c-1.5,0-2.5-0.6-2.9-1.9c-1.7,1.4-3.8,2.1-6.2,2.1
	c-1.5,0-2.9-0.4-4-1.2c-1.1-0.8-1.6-2-1.6-3.6c0-1.9,0.7-3.2,2.1-4.1c1.4-0.9,3.1-1.3,5.1-1.3c1.5,0,2.9,0.2,4.4,0.5l0-0.6
	c0-1.2-0.4-2.2-1.2-2.9c-0.8-0.7-1.9-1.1-3.3-1.1c-2,0-3.9,0.4-5.8,1.2l0-2.6c2.1-0.7,4.1-1.1,6.1-1.1c2.2,0,3.9,0.6,5.1,1.7
	c1.2,1.1,1.9,2.8,1.9,5L167.4,29.9z M155.9,28.7c0,0.9,0.3,1.6,1,2c0.7,0.4,1.5,0.7,2.5,0.7c2.2,0,4-0.8,5.4-2.3l0-2.9
	c-1.5-0.3-2.8-0.5-4-0.5c-1.3,0-2.5,0.2-3.4,0.7C156.3,26.9,155.9,27.6,155.9,28.7z M185.5,10l2.7,0l0.1,23.2l-2.4,0l0-2.6
	c-1.8,2-3.9,3.1-6.4,3.1c-2.3,0-4.2-0.8-5.7-2.4c-1.5-1.6-2.3-3.6-2.3-6c0-2.4,0.7-4.4,2.2-6c1.5-1.6,3.4-2.4,5.7-2.4
	c2.5,0,4.6,0.9,6.2,2.8L185.5,10z M185.5,23.2c-0.5-1.1-1.3-2-2.3-2.8s-2.2-1.1-3.6-1.1c-1.6,0-2.9,0.5-4,1.6
	c-1.1,1.1-1.6,2.5-1.6,4.3c0,1.8,0.5,3.2,1.6,4.3c1.1,1.1,2.4,1.6,4,1.6c1.3,0,2.5-0.4,3.6-1.1s1.8-1.7,2.3-2.8L185.5,23.2z
	 M195.8,33.2l-2.6,0l0-15.9l2.6,0L195.8,33.2z M195.7,11c0.3,0.3,0.5,0.7,0.5,1.2c0,0.5-0.2,0.9-0.5,1.3c-0.3,0.3-0.7,0.4-1.2,0.4
	c-0.5,0-0.9-0.1-1.2-0.4c-0.3-0.3-0.5-0.7-0.5-1.3c0-0.5,0.2-0.9,0.5-1.2c0.3-0.3,0.7-0.5,1.2-0.5C194.9,10.5,195.3,10.7,195.7,11z
	 M203.1,19.6c0.6-0.8,1.4-1.4,2.4-2c1-0.5,2.2-0.8,3.3-0.8c1.9,0,3.5,0.6,4.7,1.8c1.3,1.2,1.9,2.7,1.9,4.7l0,9.8l-2.7,0l0-9.5
	c0-1.4-0.4-2.5-1.2-3.2c-0.8-0.7-1.8-1.1-3.1-1.1c-2,0-3.8,1.1-5.2,3.2l0,10.7l-2.6,0l0-15.9l2.4,0L203.1,19.6z M221.4,31.1
	c-1.5-1.6-2.3-3.6-2.3-6c0-2.4,0.7-4.4,2.2-6c1.5-1.6,3.4-2.4,5.7-2.4c2.5,0,4.6,1,6.4,3l0-2.6l2.4,0l0,15.9c0,2.6-0.8,4.5-2.5,5.8
	c-1.7,1.3-3.7,1.9-6.2,1.9c-2.4,0-4.5-0.5-6.5-1.5l0-2.6c1.9,1.1,4,1.6,6.1,1.6c1.9,0,3.4-0.4,4.6-1.3c1.2-0.8,1.8-2.1,1.7-4l0-2.5
	c-1.5,1.9-3.6,2.9-6.2,2.9C224.8,33.5,222.9,32.7,221.4,31.1z M233.2,23.1c-0.5-1.1-1.3-2-2.3-2.8c-1-0.7-2.2-1.1-3.6-1.1
	c-1.6,0-2.9,0.5-4,1.6c-1.1,1.1-1.6,2.5-1.6,4.3c0,1.8,0.5,3.2,1.6,4.3c1.1,1.1,2.4,1.6,4,1.6c1.3,0,2.5-0.3,3.6-1
	c1-0.7,1.8-1.6,2.3-2.6L233.2,23.1z M262,29.7c0,0.8,0.4,1.2,1.2,1.2c0.4,0,0.8-0.1,1.2-0.2l0,2.2c-0.7,0.2-1.3,0.4-2,0.4
	c-1.5,0-2.5-0.6-2.9-1.9c-1.7,1.4-3.8,2.1-6.2,2.1c-1.5,0-2.9-0.4-4-1.2c-1.1-0.8-1.6-2-1.6-3.6c0-1.9,0.7-3.2,2.1-4.1
	c1.4-0.9,3.1-1.3,5.1-1.3c1.5,0,2.9,0.2,4.4,0.5l0-0.6c0-1.2-0.4-2.2-1.2-2.9c-0.8-0.7-1.9-1.1-3.3-1.1c-2,0-3.9,0.4-5.8,1.2l0-2.6
	c2.1-0.7,4.1-1.1,6.1-1.1c2.2,0,3.9,0.6,5.1,1.7c1.2,1.1,1.9,2.8,1.9,5L262,29.7z M250.4,28.4c0,0.9,0.3,1.6,1,2
	c0.7,0.4,1.5,0.7,2.5,0.7c2.2,0,4-0.8,5.4-2.3l0-2.9c-1.5-0.3-2.9-0.5-4-0.5c-1.3,0-2.5,0.2-3.4,0.7
	C250.9,26.6,250.4,27.4,250.4,28.4z M266.1,21.2c0-1.5,0.6-2.7,1.7-3.4c1.2-0.8,2.6-1.2,4.3-1.2c2.1,0,3.9,0.4,5.6,1.3l0,2.5
	c-0.7-0.4-1.5-0.8-2.5-1.1c-1-0.3-2-0.4-2.9-0.4c-1,0-1.8,0.2-2.5,0.5c-0.7,0.3-1,0.9-1,1.6c0,0.5,0.2,1,0.7,1.4
	c0.5,0.4,1.1,0.7,1.9,0.9c0.8,0.2,1.6,0.4,2.4,0.8c0.9,0.3,1.7,0.6,2.5,0.9c0.8,0.3,1.4,0.8,1.9,1.5c0.5,0.6,0.8,1.4,0.8,2.3
	c0,1.5-0.6,2.7-1.8,3.4c-1.2,0.7-2.8,1.1-4.7,1.1c-2.5,0-4.6-0.5-6.2-1.5l0-2.6c1.7,1.1,3.7,1.7,6,1.7c2.7,0,4-0.7,4-2
	c0-0.6-0.4-1.1-1.1-1.5c-0.7-0.4-1.5-0.8-2.5-1c-1-0.3-2-0.6-3-1c-1-0.4-1.8-0.9-2.6-1.6C266.5,23.2,266.1,22.3,266.1,21.2z
	 M293.5,32.9l-2.6,0l0-15.9l2.6,0L293.5,32.9z M293.3,10.7c0.3,0.3,0.5,0.7,0.5,1.2c0,0.5-0.2,0.9-0.5,1.3c-0.3,0.3-0.7,0.4-1.2,0.4
	c-0.5,0-0.9-0.1-1.2-0.4c-0.3-0.3-0.5-0.7-0.5-1.3c0-0.5,0.2-0.9,0.5-1.2c0.3-0.3,0.7-0.5,1.2-0.5C292.6,10.2,293,10.4,293.3,10.7z
	 M297.5,21.2c0-1.5,0.6-2.7,1.7-3.4c1.2-0.8,2.6-1.2,4.3-1.2c2.1,0,3.9,0.4,5.6,1.3l0,2.5c-0.7-0.4-1.5-0.8-2.5-1.1
	c-1-0.3-2-0.4-2.9-0.4c-1,0-1.8,0.2-2.5,0.5c-0.7,0.3-1,0.9-1,1.6c0,0.5,0.2,1,0.7,1.4c0.5,0.4,1.1,0.7,1.9,0.9
	c0.8,0.2,1.6,0.4,2.4,0.8c0.9,0.3,1.7,0.6,2.5,0.9c0.8,0.3,1.4,0.8,1.9,1.5c0.5,0.6,0.8,1.4,0.8,2.3c0,1.5-0.6,2.7-1.8,3.4
	c-1.2,0.7-2.8,1.1-4.7,1.1c-2.5,0-4.5-0.5-6.2-1.5l0-2.6c1.7,1.1,3.7,1.7,6,1.7c2.7,0,4-0.7,4-2c0-0.6-0.4-1.1-1.1-1.5
	c-0.7-0.4-1.5-0.8-2.5-1c-1-0.3-2-0.6-3-1c-1-0.4-1.8-0.9-2.6-1.6C297.8,23.1,297.5,22.2,297.5,21.2z"/>
<line class="st5" x1="71.2" y1="113.8" x2="71.2" y2="148.7"/>
<line class="st5" x1="227" y1="113.8" x2="227" y2="174.4"/>
<line class="st5" x1="382.8" y1="113.8" x2="382.8" y2="148.7"/>
<line class="st5" x1="70.7" y1="148.3" x2="382.4" y2="148.3"/>
<path d="M201.5,199.6c0-1.5,0.3-2.8,1.1-3.9c0.7-1.1,1.6-1.9,2.7-2.5c1.1-0.5,2.2-0.8,3.4-0.8c1.4,0,2.7,0.3,3.8,0.9l0,1.6
	c-1-0.7-2.2-1-3.6-1c-1.6,0-2.9,0.5-4,1.4c-1.1,0.9-1.7,2.3-1.7,4.1c0,1.2,0.3,2.2,0.9,3c0.6,0.8,1.3,1.4,2.2,1.8
	c0.9,0.4,1.8,0.6,2.8,0.6c1.5,0,2.7-0.3,3.6-1l0,1.6c-1.2,0.6-2.5,0.9-3.9,0.9c-0.9,0-1.7-0.1-2.6-0.4c-0.8-0.3-1.6-0.7-2.3-1.3
	c-0.7-0.6-1.2-1.3-1.7-2.2C201.7,201.7,201.5,200.7,201.5,199.6z M214.8,192l1.6,0l0,14.2l-1.6,0L214.8,192z M220.9,206.2l-1.6,0
	l0-9.3l1.6,0L220.9,206.2z M220.8,193.2c0.2,0.2,0.3,0.4,0.3,0.7c0,0.3-0.1,0.6-0.3,0.7c-0.2,0.2-0.4,0.3-0.7,0.3
	c-0.3,0-0.5-0.1-0.7-0.3c-0.2-0.2-0.3-0.4-0.3-0.7c0-0.3,0.1-0.6,0.3-0.7c0.2-0.2,0.4-0.3,0.7-0.3
	C220.4,192.9,220.6,193,220.8,193.2z M223.2,201.6c0-1.5,0.5-2.7,1.4-3.6c0.9-0.9,2-1.3,3.2-1.3c1.1,0,2.1,0.3,2.8,0.8
	c0.8,0.6,1.3,1.3,1.5,2.1c0.2,0.8,0.3,1.7,0,2.6l-7.4,0c0.1,0.9,0.5,1.6,1.2,2.1c0.7,0.5,1.6,0.7,2.6,0.7c1.1,0,2.2-0.3,3.1-0.8
	l0,1.5c-0.9,0.5-2,0.7-3.3,0.7c-1.5,0-2.7-0.4-3.7-1.3S223.2,203.1,223.2,201.6z M230.8,200.9c0-0.3,0-0.6-0.1-0.9
	c-0.1-0.3-0.2-0.6-0.4-0.9c-0.2-0.3-0.5-0.5-0.9-0.7c-0.4-0.2-0.9-0.3-1.5-0.3c-0.8,0-1.6,0.3-2.2,0.7c-0.6,0.5-0.9,1.2-1,2
	L230.8,200.9z M235.9,198.2c0.3-0.5,0.8-0.8,1.4-1.2c0.6-0.3,1.3-0.5,2-0.5c1.1,0,2.1,0.4,2.8,1.1c0.7,0.7,1.1,1.6,1.1,2.7l0,5.8
	l-1.6,0l0-5.6c0-0.8-0.2-1.5-0.7-1.9c-0.5-0.4-1.1-0.7-1.8-0.7c-1.2,0-2.2,0.6-3,1.9l0,6.3l-1.6,0l0-9.3l1.4,0L235.9,198.2z
	 M246.4,193.9l1.5-0.4l0,3.3l3.7,0l0,1.4l-3.7,0l0,4.8c0,0.7,0.2,1.2,0.5,1.4c0.3,0.3,0.8,0.4,1.5,0.4c0.7,0,1.4-0.1,2.1-0.4l0,1.4
	c-0.8,0.3-1.6,0.4-2.5,0.4c-0.9,0-1.7-0.2-2.3-0.8c-0.6-0.5-0.8-1.3-0.8-2.3l0-5.1l-1.8,0l0-1.4l1.8,0L246.4,193.9z"/>
<rect x="158.4" y="174.8" class="st5" width="136.4" height="52.2"/>
<path class="st6" d="M8.5,81.3l5.2-5.2l5.2,5.2l3-3l-8.2-8.2l-8.2,8.2L8.5,81.3z"/>
<path class="st6" d="M0.3,83.5l3-3l3,3l-3,3L0.3,83.5z"/>
<path class="st6" d="M8.5,85.6l5.2,5.2l5.2-5.2l3,3l0,0l-8.2,8.2l-8.2-8.2l0,0L8.5,85.6z"/>
<path class="st6" d="M21,83.5l3-3l3,3l-3,3L21,83.5z"/>
<path class="st6" d="M16.8,83.5l-3.1-3.1l-2.3,2.3l-0.3,0.3l-0.5,0.5l0,0l0,0l3.1,3.1L16.8,83.5L16.8,83.5L16.8,83.5z"/>
<path class="st6" d="M31.8,76.6h6.6c1.6,0,2.9,0.4,3.7,1.3c0.3,0.3,0.6,0.7,0.7,1.1c0.2,0.4,0.2,0.9,0.2,1.3v0c0,0.4,0,0.7-0.1,1.1
	c-0.1,0.3-0.2,0.6-0.4,0.8c-0.2,0.2-0.4,0.5-0.6,0.7c-0.2,0.2-0.5,0.4-0.7,0.5c0.7,0.3,1.4,0.7,1.9,1.3c0.5,0.5,0.7,1.3,0.7,2.2v0
	c0,0.6-0.1,1.2-0.4,1.7c-0.3,0.5-0.6,0.9-1.1,1.2c-0.5,0.3-1.1,0.6-1.7,0.7c-0.7,0.2-1.4,0.3-2.2,0.2h-6.7V76.6z M37.7,82.3
	c0.6,0,1.1-0.1,1.6-0.4c0.2-0.1,0.4-0.3,0.5-0.5c0.1-0.2,0.2-0.4,0.1-0.7v0c0-0.2,0-0.4-0.1-0.6c-0.1-0.2-0.2-0.4-0.4-0.5
	c-0.4-0.2-0.9-0.4-1.5-0.4h-3.1v3H37.7z M38.5,88c0.6,0,1.1-0.1,1.6-0.4c0.2-0.1,0.3-0.3,0.5-0.5c0.1-0.2,0.1-0.4,0.1-0.7v0
	c0-0.2,0-0.4-0.1-0.6c-0.1-0.2-0.2-0.4-0.4-0.5c-0.4-0.3-0.9-0.4-1.8-0.4h-3.6V88H38.5z"/>
<path class="st6" d="M47.7,76.6h3.1v14.2h-3.1V76.6z"/>
<path class="st6" d="M55.5,76.6h2.9l6.6,8.7v-8.7h3.1v14.2h-2.7l-6.9-9v9h-3.1V76.6z"/>
<path class="st6" d="M77.6,76.5h2.9l6.1,14.3h-3.3L82,87.6h-6l-1.3,3.2h-3.2L77.6,76.5z M80.9,84.8L79,80.2l-1.9,4.6H80.9z"/>
<path class="st6" d="M89.9,76.6h2.9l6.6,8.7v-8.7h3.1v14.2h-2.7l-6.9-9v9h-3.1V76.6z"/>
<path class="st6" d="M113.7,91c-1,0-2-0.2-2.9-0.6c-0.9-0.4-1.6-0.9-2.3-1.5c-0.7-0.7-1.2-1.5-1.5-2.3c-0.4-0.9-0.6-1.9-0.5-2.9v0
	c0-1.9,0.7-3.8,2.1-5.2c0.7-0.7,1.4-1.2,2.3-1.6c0.9-0.4,2-0.6,3-0.6c0.6,0,1.2,0,1.8,0.2c0.5,0.1,1,0.2,1.5,0.4
	c0.4,0.2,0.8,0.4,1.2,0.7c0.4,0.3,0.7,0.6,1.1,0.9l-2,2.3c-0.5-0.5-1.1-0.9-1.7-1.2c-0.6-0.3-1.3-0.4-1.9-0.4
	c-0.6,0-1.1,0.1-1.6,0.3c-0.5,0.2-1,0.6-1.3,1c-0.4,0.4-0.7,0.9-0.9,1.4c-0.2,0.5-0.3,1.1-0.3,1.7v0c0,0.6,0.1,1.2,0.3,1.7
	c0.2,0.5,0.5,1,0.8,1.4c0.4,0.4,0.8,0.8,1.3,1c0.5,0.2,1.1,0.3,1.6,0.3c0.7,0,1.4-0.1,2.1-0.4c0.6-0.3,1.2-0.7,1.7-1.2l2,2
	c-0.3,0.4-0.7,0.7-1.1,1.1c-0.4,0.3-0.8,0.6-1.3,0.8c-0.5,0.2-1,0.4-1.5,0.5C114.9,90.9,114.3,91,113.7,91L113.7,91z"/>
<path class="st6" d="M123.2,76.6h10.7v2.8h-7.6v2.9h6.7V85h-6.7v3h7.7v2.8h-10.8L123.2,76.6z"/>
<path class="st7" d="M331.2,74.7c1.8-0.1,3.7,0.2,5.3,1.1c2.4,1.2,4.3,3.3,5.2,5.9c0.4,1.1,0.6,2.3,0.6,3.5v4.4c0,0.2,0,0.4,0,0.5
	c-0.1,0.4-0.4,0.8-0.8,1c-0.3,0.1-0.6,0.2-0.9,0.1c-0.7-0.1-1.2-0.8-1.2-1.4c0-1.4,0-2.7,0-4.1c0-0.4,0-0.8-0.2-1.1
	c-0.3-0.6-1.2-0.9-1.8-0.7c-0.6,0.2-1,0.8-1,1.4c0,1.4,0,2.8,0,4.2c0,0.3,0,0.5-0.1,0.8c-0.1,0.5-0.5,0.9-1,1
	c-0.6,0.2-1.4-0.1-1.7-0.7c-0.2-0.4-0.2-0.8-0.2-1.2c0-1.4,0-2.8,0-4.1c0-0.7-0.6-1.3-1.3-1.4c-0.5-0.1-0.9,0.1-1.3,0.4
	c-0.3,0.3-0.5,0.7-0.5,1.1v4c0,0.3,0,0.7-0.1,1c-0.2,0.6-0.8,1-1.4,1c-0.6,0-1.2-0.4-1.4-1c-0.1-0.3-0.1-0.6-0.1-0.9
	c0-1.4,0-2.8,0-4.2c0-0.7-0.5-1.3-1.2-1.4c-0.6-0.1-1.3,0.2-1.6,0.7c-0.1,0.2-0.2,0.5-0.2,0.8v4.5c0,0.4-0.2,0.9-0.5,1.2
	c-0.5,0.4-1.3,0.5-1.9,0.1c-0.4-0.3-0.6-0.7-0.6-1.2v-4.6c0-1.7,0.4-3.4,1.3-5c0.7-1.2,1.6-2.3,2.7-3.2
	C327,75.6,329.1,74.8,331.2,74.7z"/>
<path class="st7" d="M372.2,80h-2.3c0.1-1.6,0.4-3,1.9-3.9c1.5-0.9,3.1-1.1,4.7-1c0.9,0.1,1.8,0.3,2.6,0.6c1.5,0.7,2.2,1.8,2.2,3.4
	c0,2.8,0,5.6,0,8.5c0,1,0.2,1.2,1.2,1.1c0.1,0,0.2,0,0.3-0.1c0,0.1,0,0.1,0,0.1v1.7c-0.8,0.3-1.7,0.4-2.5,0.1
	c-0.6-0.2-1-0.6-1.2-1.2c-0.1-0.3-0.2-0.6-0.3-0.9c-0.1,0.1-0.2,0.2-0.2,0.3c-1.8,1.8-3.9,2.6-6.5,1.9c-1.8-0.5-3-2.1-3.1-3.9
	c0-0.6,0-1.2,0.2-1.8c0.3-1.3,1.3-2.1,2.5-2.7c0.8-0.4,1.8-0.5,2.7-0.6c1.1-0.1,2.1-0.3,3.2-0.4c0.7-0.1,1.1-0.5,1.2-1.2
	c0.2-1.5-0.4-2.4-1.8-2.8c-0.8-0.2-1.7-0.2-2.6-0.1c-1.3,0.2-2,0.9-2.2,2.2C372.3,79.6,372.2,79.8,372.2,80z M378.9,82.8
	c-1.1,0.6-2.1,0.7-3.1,0.9c-0.9,0.1-1.7,0.3-2.6,0.5c-1.1,0.4-1.6,1.3-1.5,2.5c0.1,1,0.8,1.8,1.9,2c1.7,0.3,3.2-0.2,4.4-1.5
	c0.4-0.4,0.6-0.9,0.7-1.4C378.9,84.9,378.8,83.9,378.9,82.8z M411.4,85.7c-0.1,0.2-0.1,0.5-0.1,0.6c-1,3-3,4.3-5.4,4.6
	c-4.2,0.5-6.6-2.3-7.2-5.2c-0.5-2.3-0.4-4.6,0.6-6.8c1-2.1,2.5-3.4,4.8-3.8c2.8-0.5,6.6,0.9,7.3,5.2c0.2,1.1,0.2,2.2,0.3,3.4H401
	c0.1,1.6,0.3,3.1,1.5,4.2c0.5,0.5,1.1,0.7,1.8,0.8c2.2,0.4,3.9-0.6,4.6-2.7c0.1-0.2,0.2-0.3,0.4-0.3C410,85.7,410.7,85.7,411.4,85.7
	z M401.1,81.7h8c-0.1-0.9-0.2-1.8-0.7-2.6c-0.4-0.8-1-1.3-1.9-1.6C403.8,76.5,400.9,78.7,401.1,81.7z M417.1,90.4h-2.4v-15h2.3v2.1
	c0.2-0.2,0.3-0.3,0.4-0.4c1.6-1.9,3.7-2.4,6.1-1.8c1.6,0.4,2.5,1.6,2.9,3.2c0.1,0.7,0.2,1.4,0.2,2c0,3.2,0,6.5,0,9.7
	c0,0.1,0,0.2,0,0.3h-2.5V90c0-3,0-6,0-9c0-0.7-0.1-1.4-0.3-2c-0.3-1.1-1.2-1.6-2.3-1.7c-2-0.1-3.6,1-4.1,2.8c-0.2,0.6-0.2,1.3-0.2,2
	c0,2.6,0,5.3,0,7.9V90.4z M385.2,75.4h2.3v6.4c0.1-0.1,0.2-0.2,0.3-0.3c1.9-1.9,3.8-3.9,5.7-5.9c0.2-0.2,0.3-0.2,0.6-0.2
	c0.9,0,1.8,0,2.8,0c-0.1,0.1-0.2,0.2-0.3,0.3c-1.7,1.7-3.3,3.4-5,5c-0.2,0.2-0.2,0.3-0.1,0.5c1.8,2.9,3.7,5.9,5.5,8.8
	c0.1,0.1,0.1,0.2,0.2,0.4c-0.1,0-0.2,0-0.3,0c-0.8,0-1.7,0-2.5,0c-0.2,0-0.3-0.1-0.5-0.3c-1.4-2.3-2.8-4.7-4.2-7.1
	c-0.1-0.1-0.1-0.2-0.2-0.3c-0.6,0.6-1.3,1.3-1.9,1.9c-0.1,0.1-0.1,0.2-0.1,0.4c0,1.6,0,3.3,0,4.9v0.4c-0.5,0-0.9,0-1.4,0
	c-0.3,0-0.8,0.1-0.9-0.1c-0.2-0.1-0.1-0.6-0.1-0.9V75.8C385.2,75.7,385.2,75.6,385.2,75.4z M358.3,75.4c-1.9,1.9-3.7,3.7-5.6,5.6
	c2,3.2,3.9,6.3,5.9,9.5c-0.2,0-0.3,0-0.4,0c-0.8,0-1.6,0-2.4,0c-0.2,0-0.4-0.1-0.5-0.3c-1.4-2.3-2.8-4.7-4.2-7.1
	c-0.1-0.1-0.1-0.2-0.2-0.3c-0.4,0.4-0.7,0.8-1.1,1.1c-0.8,0.6-1,1.3-1,2.3c0.1,1.3,0,2.6,0,3.9v0.4h-2.3v-15h2.3v6.3
	c0.1,0,0.1,0.1,0.1,0.1c0.1-0.1,0.1-0.2,0.2-0.3c1.9-1.9,3.8-3.9,5.7-5.8c0.2-0.2,0.3-0.3,0.6-0.2c0.8,0,1.6,0,2.4,0
	C358,75.4,358.1,75.4,358.3,75.4z M362.9,77.9c1.2-1.7,2.4-3.2,4.7-2.7v2.6c-0.6,0-1.2,0-1.8,0.1c-1.4,0.3-2.5,1.6-2.8,3.2
	c0,0.3-0.1,0.6-0.1,0.9c0,2.7,0,5.4,0,8v0.4h-2.4v-15h2.3C362.9,76.2,362.9,77,362.9,77.9z"/>
<g>
	<path class="st8" d="M209.7,70.3c-0.5,0-1,0.2-1.4,0.6s-0.6,0.8-0.6,1.4h0c0,0.5,0.2,1.1,0.6,1.4c0.4,0.4,0.9,0.6,1.4,0.6
		c0.5,0,1.1-0.2,1.4-0.6c0.4-0.4,0.6-0.9,0.6-1.4c0-0.5-0.3-1-0.6-1.4S210.2,70.3,209.7,70.3z"/>
	<rect x="208.1" y="76.6" class="st8" width="3.2" height="14.5"/>
	<path class="st8" d="M220.8,76.3c-2.3,0-4.5,0.4-6.6,1.2h0v13.6h3.2V79.7c0.9-0.3,2-0.4,3.1-0.4c1.8,0,3.1,0.8,3.1,2.8v9h3.2v-9.3
		C226.9,77.7,224.6,76.3,220.8,76.3z"/>
	<path class="st8" d="M198.6,76.3c-4.3,0-7.5,3.1-7.5,7.6c0,4.5,3.1,7.6,7.5,7.6c4.4,0,7.5-3.1,7.5-7.6
		C206.1,79.4,202.9,76.3,198.6,76.3z M198.6,88.7c-2.4,0-4.2-1.9-4.2-4.8c0-2.9,1.8-4.8,4.2-4.8c2.5,0,4.2,1.9,4.2,4.8
		C202.8,86.8,201.1,88.7,198.6,88.7z"/>
	<path class="st8" d="M187.4,88.6c-2.8,0-4.8-1.8-4.8-4.7c0-3,2-4.7,4.6-4.7c0.8,0,1.5,0.1,2.2,0.4l1.4-2.3c-1.2-0.6-2.4-1-3.9-1
		c-4.3,0-7.6,2.9-7.6,7.6c0,4.7,3.2,7.6,7.6,7.6c1.4,0,2.9-0.3,4.1-1c0,0-1.5-2.2-1.5-2.3C189,88.5,188.2,88.6,187.4,88.6z"/>
	<path class="st8" d="M263.6,82.5c-1.7-0.5-2.3-0.9-2.3-1.9c0-0.9,0.8-1.6,2.2-1.6c1.5,0,2.9,0.5,4.1,1.5v-3
		c-1.2-0.8-2.5-1.1-4.2-1.1c-3,0-5.2,1.4-5.2,4.4c0,2.5,1.3,3.7,4.3,4.4c1.9,0.5,2.7,0.9,2.7,2.1c0,1.1-0.9,1.6-2.4,1.6
		c-1.6-0.1-3.2-0.6-4.4-1.6v3.1c1.4,0.8,2.9,1.2,4.5,1.2c3.1,0,5.5-1.4,5.5-4.4C268.4,84.4,266.9,83.2,263.6,82.5z"/>
	<path class="st8" d="M282.9,84.6V83c0-4-2-6.7-6.2-6.7c-4,0-7,3.1-7,7.7c0,4.6,3.1,7.5,7.6,7.5c1.9,0,3.8-0.4,5.1-1.3v-2.8
		c-1.4,0.9-2.9,1.4-4.9,1.4c-2.3,0-4.5-1.4-4.7-4v-0.1H282.9z M276.6,79c2.1,0,3.2,1.2,3.3,3.5h-6.9C273.3,80.3,274.7,79,276.6,79z"
		/>
	<path class="st8" d="M236.2,76.3c-1.3,0-2.6,0.4-3.3,0.7v-8.2h-3.2v21.6c1.5,0.5,3.3,0.9,5.4,0.9c5.4,0,8.5-3.1,8.5-7.8
		C243.5,79,240.4,76.3,236.2,76.3z M235.1,88.7c-0.8,0-1.6-0.1-2.3-0.3v-8.5c0.7-0.4,1.6-0.7,2.9-0.7c2.5,0,4.5,1.7,4.5,4.5
		C240.2,87,238.1,88.7,235.1,88.7z"/>
	<path class="st8" d="M250.6,76.3c-1.6,0-3.3,0.4-4.7,1.2v2.8c1.2-0.7,2.5-1.2,4.2-1.2c1.6,0,2.8,0.7,2.8,2.3h0v1.2h-1.6
		c-4.2,0-6.7,1.4-6.7,4.4c0,3.3,2.8,4.4,6.5,4.4c1.6,0,3.6-0.2,5-0.6v-9.6C256,77.6,253.8,76.3,250.6,76.3z M252.9,84.8v4.1
		c-0.6,0.1-1.3,0.2-1.8,0.2c-2,0-3.3-0.6-3.3-2.1c0-1.5,1.5-2.1,3.7-2.1L252.9,84.8L252.9,84.8z"/>
	<polygon class="st8" points="258.4,87.2 258.4,87.2 258.4,87.2 	"/>
</g>
</svg>
