<svg width="427" height="584" viewBox="0 0 427 584" fill="none" xmlns="http://www.w3.org/2000/svg">
<path d="M124.256 293.985L143.333 293.933L143.34 296.582L135.193 296.605L135.249 317.139L132.467 317.147L132.411 296.612L124.263 296.635L124.256 293.985Z" fill="black"/>
<path d="M144.924 304.03C145.54 302.991 146.487 302.182 147.766 301.604C149.045 301.005 150.38 300.758 151.772 300.865L151.779 303.514C150.233 303.342 148.865 303.6 147.674 304.287C146.506 304.953 145.68 305.927 145.198 307.209L145.225 317.112L142.576 317.119L142.532 301.221L144.917 301.215L144.924 304.03Z" fill="black"/>
<path d="M167.418 313.739C167.421 314.556 167.83 314.963 168.647 314.961C169 314.96 169.409 314.882 169.872 314.726L169.878 316.879C169.216 317.123 168.554 317.246 167.892 317.248C166.368 317.252 165.395 316.615 164.972 315.335C163.275 316.753 161.213 317.465 158.784 317.472C157.239 317.476 155.913 317.071 154.806 316.257C153.722 315.421 153.178 314.22 153.174 312.652C153.168 310.775 153.86 309.415 155.249 308.572C156.66 307.707 158.359 307.272 160.346 307.267C161.803 307.263 163.272 307.424 164.752 307.751L164.751 307.188C164.747 305.974 164.347 305.015 163.55 304.31C162.754 303.584 161.638 303.222 160.202 303.226C158.193 303.232 156.262 303.635 154.41 304.435L154.403 301.851C156.476 301.139 158.495 300.78 160.461 300.775C162.624 300.769 164.315 301.349 165.533 302.516C166.772 303.661 167.395 305.326 167.401 307.512L167.418 313.739ZM155.889 312.512C155.891 313.395 156.225 314.068 156.888 314.529C157.574 314.969 158.391 315.188 159.341 315.185C161.527 315.179 163.335 314.401 164.766 312.852L164.758 309.937C163.256 309.632 161.909 309.481 160.716 309.485C159.369 309.488 158.222 309.734 157.274 310.223C156.348 310.689 155.886 311.452 155.889 312.512Z" fill="black"/>
<path d="M185.479 293.817L188.128 293.81L188.192 316.994L185.807 317L185.8 314.351C184.017 316.387 181.878 317.409 179.383 317.416C177.109 317.422 175.208 316.632 173.68 315.046C172.174 313.461 171.418 311.476 171.411 309.091C171.405 306.706 172.15 304.717 173.647 303.123C175.166 301.529 177.063 300.729 179.337 300.723C181.854 300.716 183.91 301.638 185.505 303.488L185.479 293.817ZM185.515 307.065C185.026 305.962 184.262 305.037 183.222 304.289C182.182 303.541 180.989 303.169 179.642 303.173C178.052 303.177 176.718 303.722 175.639 304.807C174.582 305.892 174.056 307.317 174.061 309.084C174.066 310.85 174.6 312.273 175.662 313.352C176.747 314.431 178.085 314.968 179.674 314.964C181.021 314.96 182.213 314.581 183.248 313.828C184.284 313.074 185.043 312.145 185.526 311.04L185.515 307.065Z" fill="black"/>
<path d="M195.813 316.973L193.163 316.98L193.119 301.083L195.769 301.075L195.813 316.973ZM195.652 294.783C195.984 295.069 196.151 295.477 196.153 296.007C196.154 296.537 195.99 296.957 195.659 297.267C195.329 297.555 194.921 297.699 194.435 297.701C193.949 297.702 193.54 297.56 193.208 297.274C192.876 296.965 192.71 296.546 192.708 296.016C192.707 295.486 192.871 295.077 193.202 294.789C193.532 294.479 193.94 294.324 194.426 294.322C194.911 294.321 195.32 294.475 195.652 294.783Z" fill="black"/>
<path d="M203.142 303.407C203.714 302.632 204.507 301.979 205.521 301.446C206.558 300.913 207.672 300.645 208.864 300.642C210.785 300.637 212.366 301.24 213.606 302.451C214.867 303.639 215.501 305.194 215.506 307.115L215.533 316.919L212.883 316.926L212.857 307.454C212.854 306.019 212.453 304.938 211.656 304.211C210.881 303.463 209.854 303.09 208.573 303.094C206.542 303.099 204.822 304.164 203.415 306.287L203.444 316.952L200.795 316.959L200.751 301.062L203.136 301.055L203.142 303.407Z" fill="black"/>
<path d="M221.387 314.916C219.881 313.33 219.125 311.345 219.119 308.96C219.112 306.576 219.857 304.586 221.354 302.992C222.874 301.398 224.77 300.598 227.044 300.592C229.54 300.585 231.684 301.595 233.478 303.622L233.471 300.972L235.856 300.965L235.899 316.863C235.906 319.424 235.072 321.348 233.398 322.633C231.723 323.918 229.672 324.564 227.243 324.571C224.88 324.577 222.726 324.086 220.78 323.098L220.773 320.515C222.697 321.591 224.741 322.127 226.905 322.121C228.782 322.116 230.315 321.692 231.505 320.85C232.695 320.029 233.277 318.703 233.25 316.87L233.243 314.419C231.702 316.323 229.652 317.278 227.09 317.285C224.816 317.291 222.915 316.501 221.387 314.916ZM233.222 306.934C232.733 305.832 231.969 304.906 230.929 304.158C229.89 303.411 228.696 303.038 227.349 303.042C225.76 303.047 224.425 303.591 223.346 304.676C222.289 305.761 221.763 307.187 221.768 308.953C221.773 310.719 222.307 312.142 223.37 313.221C224.455 314.3 225.792 314.837 227.382 314.833C228.729 314.829 229.92 314.484 230.956 313.796C231.992 313.087 232.751 312.235 233.234 311.24L233.222 306.934Z" fill="black"/>
<path d="M249.408 295.993L252.022 295.324L252.038 300.921L258.397 300.904L258.403 303.354L252.044 303.372L252.067 311.586C252.07 312.756 252.337 313.572 252.868 314.034C253.422 314.497 254.294 314.726 255.487 314.723C256.635 314.72 257.805 314.473 258.996 313.984L259.002 316.435C257.657 316.925 256.233 317.172 254.732 317.176C253.12 317.18 251.838 316.753 250.886 315.895C249.934 315.014 249.456 313.735 249.452 312.057L249.428 303.379L246.447 303.387L246.44 300.936L249.421 300.928L249.408 295.993Z" fill="black"/>
<path d="M263.408 314.966C261.726 313.469 260.882 311.429 260.874 308.846C260.867 306.262 261.701 304.229 263.375 302.745C265.049 301.239 267.034 300.482 269.33 300.476C271.649 300.47 273.638 301.215 275.298 302.712C276.98 304.187 277.825 306.216 277.832 308.799C277.839 311.383 277.006 313.427 275.332 314.933C273.68 316.417 271.695 317.162 269.376 317.169C267.08 317.175 265.091 316.441 263.408 314.966ZM273.538 313.083C274.639 312.021 275.187 310.595 275.182 308.806C275.177 307.018 274.622 305.606 273.515 304.572C272.408 303.515 271.015 302.989 269.337 302.993C267.659 302.998 266.27 303.532 265.168 304.594C264.067 305.635 263.519 307.05 263.524 308.838C263.529 310.627 264.085 312.05 265.192 313.106C266.299 314.141 267.691 314.656 269.369 314.652C271.047 314.647 272.437 314.124 273.538 313.083Z" fill="black"/>
<path d="M289.838 293.531L292.488 293.524L292.515 303.195C294.099 301.336 296.15 300.403 298.667 300.396C300.942 300.389 302.832 301.179 304.337 302.765C305.865 304.35 306.632 306.335 306.639 308.72C306.646 311.105 305.889 313.094 304.37 314.688C302.873 316.282 300.987 317.082 298.713 317.088C296.218 317.095 294.073 316.085 292.279 314.059L292.287 316.708L289.902 316.715L289.838 293.531ZM302.378 313.004C303.457 311.919 303.994 310.494 303.989 308.727C303.985 306.961 303.44 305.538 302.355 304.459C301.292 303.38 299.966 302.843 298.376 302.847C297.029 302.851 295.838 303.23 294.802 303.983C293.766 304.737 293.007 305.666 292.524 306.772L292.535 310.746C293.024 311.849 293.788 312.774 294.828 313.522C295.868 314.27 297.061 314.642 298.408 314.638C299.998 314.634 301.321 314.089 302.378 313.004Z" fill="black"/>
<path d="M309.358 308.713C309.351 306.107 310.14 304.063 311.726 302.579C313.334 301.095 315.175 300.35 317.251 300.345C319.194 300.339 320.796 300.821 322.057 301.789C323.341 302.757 324.183 303.958 324.584 305.392C324.986 306.804 325.012 308.283 324.663 309.83L312.011 309.865C312.17 311.432 312.868 312.611 314.107 313.403C315.346 314.194 316.837 314.588 318.582 314.583C320.525 314.577 322.268 314.142 323.811 313.277L323.818 315.86C322.341 316.637 320.465 317.029 318.191 317.035C315.674 317.042 313.574 316.33 311.892 314.899C310.21 313.469 309.365 311.406 309.358 308.713ZM322.305 307.518C322.37 307.054 322.335 306.568 322.201 306.061C322.068 305.553 321.823 305.046 321.469 304.539C321.136 304.032 320.616 303.614 319.909 303.285C319.201 302.956 318.373 302.793 317.423 302.795C315.988 302.799 314.742 303.222 313.684 304.064C312.649 304.906 312.089 306.067 312.004 307.546L322.305 307.518Z" fill="black"/>
<path d="M20.9414 354.276C20.9373 352.771 21.2906 351.466 22.0013 350.361C22.7119 349.243 23.5986 348.423 24.6612 347.901C25.7238 347.379 26.8651 347.116 28.0848 347.113C29.4863 347.109 30.7653 347.411 31.9219 348.017L31.9264 349.652C30.9383 348.993 29.7501 348.666 28.3616 348.669C26.8044 348.674 25.4562 349.158 24.3169 350.121C23.1776 351.071 22.6039 352.455 22.5959 354.272C22.5991 355.427 22.8938 356.425 23.4801 357.267C24.0793 358.109 24.8076 358.717 25.6651 359.09C26.5356 359.464 27.4639 359.65 28.4501 359.647C29.9165 359.643 31.1159 359.309 32.0484 358.645L32.0528 360.28C30.8737 360.893 29.5574 361.201 28.104 361.205C27.2346 361.208 26.3778 361.061 25.5335 360.765C24.6891 360.456 23.9223 360.023 23.2331 359.467C22.5437 358.898 21.9902 358.166 21.5725 357.272C21.1548 356.365 20.9444 355.366 20.9414 354.276Z" fill="black"/>
<path d="M33.3007 356.286C33.2965 354.755 33.7604 353.553 34.6923 352.681C35.6372 351.809 36.7195 351.372 37.9393 351.368C39.0812 351.365 40.0228 351.648 40.764 352.217C41.5182 352.786 42.0133 353.492 42.2492 354.335C42.485 355.164 42.5004 356.034 42.2952 356.943L34.8597 356.963C34.9531 357.884 35.3638 358.577 36.0917 359.042C36.8197 359.508 37.6962 359.739 38.7214 359.736C39.8633 359.733 40.8878 359.477 41.7947 358.968L41.7989 360.487C40.9307 360.943 39.8283 361.173 38.4918 361.177C37.0124 361.181 35.7785 360.763 34.79 359.922C33.8015 359.081 33.3051 357.869 33.3007 356.286ZM40.9095 355.584C40.9477 355.311 40.9274 355.026 40.8488 354.728C40.7701 354.429 40.6265 354.131 40.4181 353.833C40.2226 353.536 39.917 353.29 39.5012 353.096C39.0854 352.903 38.5986 352.807 38.0406 352.808C37.1971 352.811 36.4646 353.059 35.8431 353.554C35.2346 354.049 34.9055 354.731 34.856 355.601L40.9095 355.584Z" fill="black"/>
<path d="M45.9992 352.962C46.3353 352.507 46.8015 352.123 47.3975 351.809C48.0066 351.496 48.6614 351.339 49.3622 351.337C50.4911 351.334 51.4199 351.688 52.1485 352.4C52.8901 353.099 53.2625 354.012 53.2656 355.141L53.2814 360.903L51.7242 360.907L51.7089 355.34C51.7066 354.497 51.4713 353.862 51.003 353.435C50.5476 352.995 49.9436 352.776 49.1909 352.778C47.9971 352.781 46.9866 353.407 46.1596 354.655L46.1768 360.922L44.6196 360.927L44.594 351.584L45.9954 351.58L45.9992 352.962Z" fill="black"/>
<path d="M56.5189 348.651L58.0555 348.257L58.0646 351.547L61.8018 351.536L61.8057 352.977L58.0685 352.987L58.0818 357.814C58.0836 358.502 58.2407 358.982 58.5529 359.253C58.878 359.525 59.391 359.66 60.0917 359.658C60.7665 359.656 61.4538 359.511 62.1538 359.224L62.1577 360.664C61.3669 360.952 60.5303 361.097 59.6479 361.099C58.7007 361.102 57.9473 360.851 57.388 360.347C56.8286 359.829 56.5475 359.077 56.5448 358.091L56.5308 352.991L54.779 352.996L54.775 351.556L56.5269 351.551L56.5189 348.651Z" fill="black"/>
<path d="M65.2935 353.181C65.6552 352.57 66.2119 352.095 66.9636 351.756C67.7153 351.403 68.4999 351.258 69.3176 351.321L69.3219 352.878C68.4133 352.777 67.6091 352.928 66.9095 353.333C66.2228 353.724 65.7378 354.296 65.4544 355.049L65.4703 360.869L63.9132 360.874L63.8875 351.531L65.289 351.527L65.2935 353.181Z" fill="black"/>
<path d="M78.5131 358.887C78.5145 359.367 78.7552 359.607 79.2353 359.605C79.4429 359.605 79.6829 359.559 79.9551 359.467L79.9586 360.732C79.5697 360.876 79.1806 360.949 78.7913 360.95C77.8959 360.952 77.3239 360.577 77.0753 359.825C76.0784 360.659 74.8663 361.077 73.4389 361.081C72.5305 361.084 71.7513 360.846 71.1011 360.367C70.4639 359.876 70.1441 359.17 70.1415 358.248C70.1385 357.145 70.5451 356.346 71.3612 355.851C72.1903 355.342 73.1888 355.087 74.3567 355.083C75.2132 355.081 76.0764 355.176 76.9463 355.368L76.9454 355.037C76.9434 354.324 76.7083 353.76 76.24 353.346C75.7717 352.919 75.1158 352.707 74.2723 352.709C73.0915 352.712 71.9567 352.949 70.8679 353.419L70.8638 351.901C72.0824 351.482 73.2692 351.271 74.4241 351.268C75.6958 351.265 76.6894 351.606 77.405 352.292C78.1336 352.964 78.4996 353.943 78.5031 355.228L78.5131 358.887ZM71.7374 358.166C71.7388 358.685 71.9346 359.08 72.3246 359.352C72.7276 359.61 73.2081 359.739 73.7661 359.737C75.0507 359.734 76.1136 359.277 76.9545 358.366L76.9498 356.653C76.0669 356.474 75.2751 356.385 74.5744 356.387C73.7828 356.389 73.1085 356.534 72.5513 356.821C72.007 357.095 71.7357 357.543 71.7374 358.166Z" fill="black"/>
<path d="M81.5149 346.616L83.0721 346.612L83.1111 360.821L81.5539 360.825L81.5149 346.616Z" fill="black"/>
<path d="M87.6351 360.809L86.0779 360.813L86.0523 351.47L87.6095 351.466L87.6351 360.809ZM87.5409 347.767C87.736 347.936 87.834 348.175 87.8349 348.487C87.8357 348.798 87.7391 349.045 87.5449 349.227C87.3507 349.397 87.1109 349.482 86.8254 349.482C86.5399 349.483 86.2996 349.399 86.1045 349.231C85.9094 349.05 85.8114 348.804 85.8105 348.492C85.8097 348.181 85.9063 347.941 86.1005 347.771C86.2947 347.589 86.5345 347.498 86.82 347.497C87.1055 347.496 87.3458 347.586 87.5409 347.767Z" fill="black"/>
<path d="M90.0313 351.459L97.1164 351.439L97.1202 352.821L91.6493 359.435L97.5081 359.419L97.5119 360.782L89.8233 360.803L89.8195 359.421L95.2905 352.807L90.035 352.821L90.0313 351.459Z" fill="black"/>
<path d="M98.7848 356.106C98.7806 354.575 99.2444 353.374 100.176 352.502C101.121 351.63 102.204 351.192 103.423 351.189C104.565 351.185 105.507 351.468 106.248 352.037C107.002 352.606 107.497 353.312 107.733 354.155C107.969 354.985 107.984 355.854 107.779 356.763L100.344 356.783C100.437 357.705 100.848 358.398 101.576 358.863C102.304 359.328 103.18 359.559 104.205 359.556C105.347 359.553 106.372 359.297 107.279 358.789L107.283 360.307C106.415 360.764 105.312 360.994 103.976 360.997C102.497 361.001 101.263 360.583 100.274 359.742C99.2856 358.902 98.7891 357.69 98.7848 356.106ZM106.394 355.404C106.432 355.132 106.412 354.846 106.333 354.548C106.254 354.25 106.111 353.952 105.902 353.654C105.707 353.356 105.401 353.11 104.985 352.917C104.57 352.723 104.083 352.627 103.525 352.629C102.681 352.631 101.949 352.88 101.327 353.374C100.719 353.869 100.39 354.551 100.34 355.421L106.394 355.404Z" fill="black"/>
<path d="M117.716 347.101L119.273 347.096L119.31 360.722L117.909 360.726L117.905 359.168C116.857 360.365 115.6 360.965 114.133 360.969C112.797 360.973 111.68 360.509 110.782 359.577C109.897 358.645 109.452 357.479 109.449 356.077C109.445 354.676 109.883 353.507 110.763 352.57C111.655 351.633 112.77 351.163 114.107 351.159C115.586 351.155 116.794 351.697 117.731 352.784L117.716 347.101ZM117.737 354.887C117.45 354.239 117.001 353.695 116.39 353.255C115.779 352.816 115.077 352.597 114.286 352.599C113.351 352.602 112.567 352.922 111.933 353.559C111.312 354.197 111.003 355.035 111.006 356.073C111.009 357.111 111.322 357.947 111.947 358.581C112.584 359.215 113.37 359.531 114.305 359.529C115.096 359.526 115.796 359.304 116.405 358.861C117.014 358.418 117.46 357.872 117.744 357.222L117.737 354.887Z" fill="black"/>
<path d="M24.0551 381.312C24.0509 379.78 24.5148 378.579 25.4467 377.707C26.3916 376.835 27.474 376.397 28.6937 376.394C29.8357 376.391 30.7772 376.673 31.5185 377.242C32.2727 377.811 32.7677 378.517 33.0036 379.36C33.2394 380.19 33.2548 381.059 33.0497 381.968L25.6142 381.989C25.7075 382.91 26.1182 383.603 26.8462 384.068C27.5741 384.533 28.4507 384.764 29.4758 384.761C30.6177 384.758 31.6422 384.502 32.5491 383.994L32.5533 385.512C31.6851 385.969 30.5828 386.199 29.2462 386.202C27.7669 386.206 26.533 385.788 25.5444 384.947C24.5559 384.107 24.0595 382.895 24.0551 381.312ZM31.6639 380.609C31.7021 380.337 31.6819 380.051 31.6032 379.753C31.5245 379.455 31.381 379.157 31.1725 378.859C30.9771 378.561 30.6714 378.315 30.2557 378.122C29.8399 377.928 29.353 377.832 28.795 377.834C27.9515 377.836 27.2191 378.085 26.5975 378.579C25.989 379.074 25.66 379.756 25.6104 380.626L31.6639 380.609Z" fill="black"/>
<path d="M41.0362 376.593L42.8269 376.588L39.4136 381.133L43.0472 385.931L41.2565 385.936L38.5213 382.245L35.7869 385.951L33.9961 385.956L37.6228 381.138L34.1652 376.612L35.9559 376.607L38.5152 380.046L41.0362 376.593Z" fill="black"/>
<path d="M43.6339 381.297C43.6317 380.479 43.7789 379.746 44.0756 379.096C44.3723 378.446 44.7601 377.926 45.2392 377.536C45.7312 377.145 46.269 376.852 46.8524 376.655C47.4487 376.446 48.0583 376.341 48.6812 376.339C49.8361 376.336 50.797 376.586 51.564 377.09L51.5682 378.608C50.853 378.052 49.9568 377.776 48.8798 377.779C47.8676 377.781 46.999 378.076 46.2739 378.662C45.5488 379.248 45.1879 380.112 45.191 381.254C45.1941 382.383 45.5533 383.244 46.2687 383.839C46.9969 384.421 47.8607 384.711 48.8599 384.708C49.898 384.705 50.8381 384.45 51.6802 383.941L51.6844 385.499C50.8032 385.929 49.7916 386.146 48.6497 386.149C47.3002 386.153 46.1246 385.734 45.1231 384.894C44.1346 384.053 43.6382 382.854 43.6339 381.297Z" fill="black"/>
<path d="M53.8509 372.276L55.408 372.272L55.423 377.741C55.7853 377.338 56.245 376.999 56.8023 376.725C57.3725 376.451 57.982 376.313 58.6308 376.312C59.7598 376.308 60.6886 376.663 61.4172 377.374C62.1588 378.073 62.5311 378.987 62.5342 380.116L62.55 385.877L60.9928 385.882L60.9776 380.315C60.9753 379.471 60.7399 378.836 60.2716 378.409C59.8162 377.969 59.2122 377.75 58.4596 377.752C57.2658 377.756 56.2553 378.381 55.4282 379.629L55.4454 385.897L53.8882 385.901L53.8509 372.276Z" fill="black"/>
<path d="M72.8982 383.903C72.8995 384.383 73.1402 384.622 73.6204 384.621C73.828 384.62 74.0679 384.574 74.3402 384.483L74.3436 385.748C73.9547 385.892 73.5656 385.964 73.1764 385.965C72.281 385.968 71.709 385.593 71.4604 384.841C70.4635 385.674 69.2513 386.093 67.8239 386.097C66.9155 386.099 66.1363 385.861 65.4862 385.383C64.849 384.891 64.5291 384.185 64.5266 383.264C64.5236 382.161 64.9301 381.362 65.7463 380.866C66.5754 380.358 67.5739 380.102 68.7418 380.099C69.5982 380.097 70.4614 380.192 71.3314 380.384L71.3304 380.053C71.3285 379.339 71.0934 378.775 70.6251 378.361C70.1567 377.934 69.5009 377.722 68.6574 377.724C67.4765 377.728 66.3417 377.964 65.253 378.435L65.2488 376.916C66.4675 376.498 67.6542 376.287 68.8092 376.284C70.0808 376.28 71.0745 376.621 71.7901 377.307C72.5186 377.98 72.8846 378.959 72.8881 380.243L72.8982 383.903ZM66.1225 383.182C66.1239 383.701 66.3196 384.096 66.7097 384.367C67.1126 384.626 67.5931 384.754 68.1511 384.753C69.4358 384.749 70.4986 384.292 71.3396 383.381L71.3349 381.668C70.452 381.489 69.6602 381.401 68.9594 381.402C68.1679 381.405 67.4935 381.549 66.9363 381.836C66.392 382.11 66.1208 382.559 66.1225 383.182Z" fill="black"/>
<path d="M77.2796 377.876C77.6158 377.421 78.0819 377.037 78.6779 376.724C79.287 376.411 79.9419 376.253 80.6426 376.251C81.7715 376.248 82.7003 376.602 83.429 377.314C84.1705 378.013 84.5429 378.927 84.546 380.056L84.5618 385.817L83.0046 385.821L82.9893 380.255C82.987 379.411 82.7517 378.776 82.2834 378.349C81.828 377.909 81.224 377.69 80.4714 377.692C79.2775 377.695 78.2671 378.321 77.44 379.569L77.4572 385.837L75.9 385.841L75.8744 376.498L77.2758 376.494L77.2796 377.876Z" fill="black"/>
<path d="M88.0021 384.64C87.1172 383.708 86.6728 382.541 86.6689 381.14C86.6651 379.738 87.1031 378.569 87.9829 377.633C88.8757 376.696 89.9904 376.226 91.327 376.222C92.7933 376.218 94.0537 376.811 95.1081 378.002L95.1038 376.445L96.5052 376.441L96.5309 385.784C96.535 387.29 96.045 388.42 95.0608 389.175C94.0767 389.931 92.8709 390.31 91.4435 390.314C90.055 390.318 88.789 390.029 87.6455 389.449L87.6413 387.93C88.772 388.563 89.9732 388.878 91.2449 388.874C92.3479 388.871 93.2491 388.622 93.9485 388.127C94.6479 387.645 94.9896 386.866 94.9737 385.789L94.9697 384.348C94.0645 385.467 92.8592 386.028 91.3539 386.032C90.0173 386.036 88.9001 385.572 88.0021 384.64ZM94.9577 379.949C94.6704 379.301 94.2212 378.757 93.6101 378.318C92.999 377.878 92.2977 377.66 91.5061 377.662C90.5718 377.664 89.7876 377.984 89.1535 378.622C88.5324 379.26 88.2233 380.097 88.2261 381.136C88.229 382.174 88.5427 383.01 89.1673 383.644C89.8049 384.278 90.5908 384.594 91.5251 384.591C92.3167 384.589 93.0169 384.386 93.6257 383.982C94.2344 383.565 94.6807 383.064 94.9646 382.48L94.9577 379.949Z" fill="black"/>
<path d="M98.7583 381.107C98.7541 379.575 99.218 378.374 100.15 377.502C101.095 376.63 102.177 376.192 103.397 376.189C104.539 376.186 105.48 376.469 106.222 377.037C106.976 377.606 107.471 378.312 107.707 379.155C107.943 379.985 107.958 380.854 107.753 381.763L100.317 381.784C100.411 382.705 100.821 383.398 101.549 383.863C102.277 384.328 103.154 384.559 104.179 384.556C105.321 384.553 106.345 384.298 107.252 383.789L107.256 385.307C106.388 385.764 105.286 385.994 103.949 385.998C102.47 386.002 101.236 385.583 100.248 384.742C99.2591 383.902 98.7627 382.69 98.7583 381.107ZM106.367 380.404C106.405 380.132 106.385 379.846 106.306 379.548C106.228 379.25 106.084 378.952 105.876 378.654C105.68 378.356 105.375 378.11 104.959 377.917C104.543 377.723 104.056 377.627 103.498 377.629C102.655 377.631 101.922 377.88 101.301 378.375C100.692 378.869 100.363 379.552 100.314 380.421L106.367 380.404Z" fill="black"/>
<path d="M109.513 378.858C109.511 377.963 109.853 377.294 110.539 376.85C111.239 376.394 112.082 376.165 113.068 376.162C114.275 376.159 115.378 376.422 116.379 376.951L116.383 378.431C115.993 378.172 115.499 377.966 114.902 377.812C114.305 377.645 113.727 377.562 113.169 377.563C112.598 377.565 112.105 377.67 111.691 377.879C111.289 378.075 111.089 378.387 111.09 378.815C111.091 379.126 111.234 379.398 111.52 379.631C111.819 379.851 112.19 380.019 112.631 380.134C113.073 380.25 113.547 380.398 114.053 380.578C114.573 380.745 115.053 380.926 115.495 381.119C115.937 381.3 116.301 381.584 116.588 381.973C116.887 382.348 117.038 382.802 117.039 383.334C117.041 384.242 116.68 384.912 115.954 385.342C115.229 385.759 114.308 385.969 113.192 385.972C111.726 385.976 110.518 385.675 109.569 385.067L109.565 383.549C110.553 384.208 111.735 384.536 113.11 384.532C114.693 384.528 115.484 384.143 115.482 383.377C115.481 383.027 115.273 382.735 114.857 382.503C114.454 382.257 113.96 382.058 113.376 381.904C112.791 381.736 112.207 381.55 111.622 381.344C111.038 381.138 110.537 380.828 110.121 380.414C109.718 380 109.515 379.481 109.513 378.858Z" fill="black"/>
<path d="M192.022 347.339L193.657 347.335L193.69 359.403L201.242 359.382L201.246 360.94L192.059 360.965L192.022 347.339Z" fill="black"/>
<path d="M204.577 360.93L203.02 360.935L202.994 351.592L204.551 351.587L204.577 360.93ZM204.483 347.889C204.678 348.057 204.776 348.297 204.777 348.609C204.778 348.92 204.681 349.167 204.487 349.349C204.293 349.518 204.053 349.603 203.767 349.604C203.482 349.605 203.241 349.521 203.046 349.353C202.851 349.172 202.753 348.926 202.752 348.614C202.751 348.303 202.848 348.062 203.042 347.893C203.236 347.711 203.476 347.619 203.762 347.619C204.047 347.618 204.288 347.708 204.483 347.889Z" fill="black"/>
<path d="M208.183 359.753C207.298 358.821 206.853 357.654 206.85 356.253C206.846 354.851 207.284 353.682 208.164 352.745C209.056 351.809 210.171 351.338 211.508 351.335C212.974 351.331 214.234 351.924 215.289 353.115L215.284 351.558L216.686 351.554L216.723 365.179L215.166 365.184L215.151 359.5C214.219 360.592 213.014 361.141 211.535 361.145C210.198 361.149 209.081 360.684 208.183 359.753ZM215.138 355.062C214.851 354.414 214.402 353.87 213.791 353.431C213.18 352.991 212.478 352.772 211.687 352.775C210.753 352.777 209.968 353.097 209.334 353.735C208.713 354.372 208.404 355.21 208.407 356.248C208.41 357.286 208.723 358.123 209.348 358.757C209.986 359.391 210.772 359.707 211.706 359.704C212.497 359.702 213.198 359.479 213.806 359.036C214.415 358.594 214.861 358.047 215.145 357.398L215.138 355.062Z" fill="black"/>
<path d="M226.556 351.527L228.114 351.523L228.139 360.866L226.738 360.87L226.734 359.488C226.398 359.943 225.925 360.327 225.316 360.64C224.72 360.953 224.072 361.11 223.371 361.112C222.164 361.116 221.209 360.774 220.507 360.089C219.817 359.39 219.471 358.463 219.468 357.308L219.452 351.546L221.009 351.542L221.024 357.109C221.029 358.822 221.868 359.676 223.542 359.672C224.736 359.668 225.746 359.043 226.574 357.795L226.556 351.527Z" fill="black"/>
<path d="M232.614 360.853L231.057 360.858L231.032 351.515L232.589 351.51L232.614 360.853ZM232.52 347.812C232.715 347.98 232.813 348.22 232.814 348.532C232.815 348.843 232.718 349.09 232.524 349.272C232.33 349.441 232.09 349.526 231.805 349.527C231.519 349.528 231.279 349.444 231.084 349.276C230.889 349.095 230.791 348.849 230.79 348.537C230.789 348.226 230.886 347.986 231.08 347.816C231.274 347.634 231.514 347.543 231.799 347.542C232.085 347.541 232.325 347.631 232.52 347.812Z" fill="black"/>
<path d="M243.154 347.199L244.712 347.195L244.749 360.82L243.348 360.824L243.343 359.267C242.295 360.464 241.038 361.064 239.572 361.068C238.235 361.072 237.118 360.608 236.22 359.676C235.335 358.744 234.891 357.577 234.887 356.176C234.883 354.774 235.321 353.605 236.201 352.668C237.094 351.732 238.209 351.261 239.545 351.258C241.024 351.254 242.233 351.795 243.17 352.883L243.154 347.199ZM243.176 354.985C242.889 354.337 242.439 353.793 241.828 353.354C241.217 352.914 240.516 352.696 239.724 352.698C238.79 352.7 238.006 353.02 237.372 353.658C236.751 354.295 236.441 355.133 236.444 356.171C236.447 357.21 236.761 358.046 237.385 358.68C238.023 359.314 238.809 359.63 239.743 359.627C240.535 359.625 241.235 359.402 241.844 358.96C242.452 358.517 242.899 357.97 243.182 357.321L243.176 354.985Z" fill="black"/>
<path d="M249.228 360.808L247.671 360.812L247.645 351.469L249.202 351.465L249.228 360.808ZM249.134 347.767C249.329 347.935 249.427 348.175 249.427 348.486C249.428 348.798 249.332 349.044 249.138 349.227C248.943 349.396 248.704 349.481 248.418 349.482C248.133 349.482 247.892 349.399 247.697 349.231C247.502 349.049 247.404 348.803 247.403 348.492C247.402 348.18 247.499 347.94 247.693 347.771C247.887 347.589 248.127 347.497 248.413 347.496C248.698 347.495 248.938 347.586 249.134 347.767Z" fill="black"/>
<path d="M252.745 348.555L254.282 348.161L254.291 351.451L258.028 351.441L258.032 352.881L254.295 352.891L254.308 357.719C254.31 358.406 254.467 358.886 254.779 359.158C255.104 359.429 255.617 359.564 256.318 359.562C256.992 359.56 257.68 359.416 258.38 359.128L258.384 360.569C257.593 360.856 256.756 361.001 255.874 361.004C254.927 361.006 254.173 360.755 253.614 360.251C253.055 359.733 252.774 358.981 252.771 357.995L252.757 352.896L251.005 352.9L251.001 351.46L252.753 351.455L252.745 348.555Z" fill="black"/>
<path d="M264.066 358.996L267.199 351.416L268.853 351.411L264.289 362.168C263.399 364.247 262.228 365.288 260.774 365.292C260.424 365.293 260.087 365.249 259.762 365.159L259.758 363.816C260.031 363.893 260.304 363.931 260.576 363.93C261.575 363.927 262.378 363.166 262.983 361.646L263.331 360.789L258.868 351.438L260.522 351.434L264.066 358.996Z" fill="black"/>
<path d="M190.344 378.184C191.392 376.987 192.649 376.387 194.115 376.382C195.452 376.379 196.563 376.843 197.448 377.775C198.346 378.707 198.797 379.873 198.8 381.275C198.804 382.676 198.36 383.845 197.467 384.782C196.587 385.719 195.479 386.189 194.142 386.193C192.663 386.197 191.455 385.655 190.517 384.568L190.533 390.251L188.976 390.256L188.938 376.63L190.34 376.626L190.344 378.184ZM196.296 383.793C196.93 383.155 197.246 382.317 197.243 381.279C197.24 380.241 196.92 379.405 196.283 378.771C195.658 378.137 194.879 377.821 193.944 377.823C193.153 377.826 192.453 378.048 191.844 378.491C191.235 378.934 190.789 379.48 190.505 380.13L190.512 382.465C190.799 383.113 191.248 383.657 191.859 384.097C192.47 384.536 193.172 384.755 193.963 384.753C194.898 384.75 195.675 384.43 196.296 383.793Z" fill="black"/>
<path d="M202.434 378.248C202.796 377.637 203.352 377.162 204.104 376.822C204.856 376.47 205.64 376.325 206.458 376.388L206.462 377.945C205.554 377.843 204.749 377.995 204.05 378.399C203.363 378.79 202.878 379.363 202.595 380.116L202.611 385.936L201.053 385.94L201.028 376.597L202.429 376.593L202.434 378.248Z" fill="black"/>
<path d="M208.674 384.849C207.685 383.969 207.189 382.77 207.184 381.252C207.18 379.734 207.67 378.538 208.654 377.666C209.638 376.781 210.804 376.337 212.154 376.333C213.516 376.329 214.685 376.767 215.661 377.647C216.65 378.514 217.146 379.706 217.15 381.224C217.154 382.743 216.665 383.944 215.681 384.829C214.71 385.702 213.543 386.139 212.181 386.143C210.831 386.147 209.662 385.715 208.674 384.849ZM214.627 383.742C215.274 383.118 215.596 382.28 215.593 381.229C215.59 380.178 215.263 379.348 214.613 378.74C213.962 378.119 213.144 377.81 212.158 377.812C211.172 377.815 210.355 378.129 209.708 378.753C209.061 379.365 208.739 380.196 208.742 381.248C208.744 382.299 209.071 383.135 209.722 383.756C210.372 384.364 211.19 384.667 212.177 384.664C213.163 384.661 213.98 384.354 214.627 383.742Z" fill="black"/>
<path d="M226.017 376.529L227.749 376.524L223.648 385.878L222.013 385.883L217.861 376.551L219.593 376.546L222.826 384.129L226.017 376.529Z" fill="black"/>
<path d="M231.086 385.858L229.529 385.862L229.503 376.519L231.061 376.515L231.086 385.858ZM230.992 372.817C231.187 372.985 231.285 373.225 231.286 373.536C231.287 373.847 231.19 374.094 230.996 374.276C230.802 374.446 230.562 374.531 230.277 374.531C229.991 374.532 229.751 374.449 229.556 374.28C229.361 374.099 229.263 373.853 229.262 373.542C229.261 373.23 229.357 372.99 229.552 372.821C229.746 372.638 229.986 372.547 230.271 372.546C230.557 372.545 230.797 372.635 230.992 372.817Z" fill="black"/>
<path d="M241.626 372.204L243.184 372.199L243.221 385.824L241.819 385.828L241.815 384.271C240.767 385.468 239.51 386.068 238.044 386.072C236.707 386.076 235.59 385.612 234.692 384.68C233.807 383.748 233.363 382.581 233.359 381.18C233.355 379.779 233.793 378.609 234.673 377.673C235.566 376.736 236.68 376.266 238.017 376.262C239.496 376.258 240.705 376.8 241.642 377.887L241.626 372.204ZM241.648 379.989C241.36 379.341 240.911 378.798 240.3 378.358C239.689 377.918 238.988 377.7 238.196 377.702C237.262 377.705 236.478 378.025 235.844 378.662C235.222 379.3 234.913 380.138 234.916 381.176C234.919 382.214 235.233 383.05 235.857 383.684C236.495 384.318 237.281 384.634 238.215 384.631C239.007 384.629 239.707 384.407 240.316 383.964C240.924 383.521 241.37 382.975 241.654 382.325L241.648 379.989Z" fill="black"/>
<path d="M245.448 381.147C245.444 379.616 245.908 378.414 246.84 377.542C247.785 376.67 248.867 376.232 250.087 376.229C251.229 376.226 252.17 376.509 252.912 377.078C253.666 377.647 254.161 378.352 254.397 379.195C254.633 380.025 254.648 380.895 254.443 381.803L247.007 381.824C247.101 382.745 247.511 383.438 248.239 383.903C248.967 384.368 249.844 384.599 250.869 384.597C252.011 384.594 253.035 384.338 253.942 383.829L253.946 385.347C253.078 385.804 251.976 386.034 250.639 386.038C249.16 386.042 247.926 385.623 246.938 384.783C245.949 383.942 245.453 382.73 245.448 381.147ZM253.057 380.445C253.095 380.172 253.075 379.887 252.996 379.588C252.918 379.29 252.774 378.992 252.566 378.694C252.37 378.396 252.065 378.151 251.649 377.957C251.233 377.764 250.746 377.668 250.188 377.669C249.345 377.671 248.612 377.92 247.991 378.415C247.382 378.91 247.053 379.592 247.004 380.461L253.057 380.445Z" fill="black"/>
<path d="M258.148 378.095C258.509 377.484 259.066 377.009 259.818 376.669C260.569 376.317 261.354 376.172 262.172 376.235L262.176 377.792C261.267 377.691 260.463 377.842 259.764 378.246C259.077 378.637 258.592 379.21 258.308 379.963L258.324 385.783L256.767 385.787L256.742 376.444L258.143 376.44L258.148 378.095Z" fill="black"/>
<path d="M263.331 378.879C263.329 377.983 263.671 377.314 264.358 376.871C265.057 376.415 265.9 376.186 266.886 376.183C268.093 376.18 269.197 376.443 270.197 376.972L270.201 378.451C269.811 378.193 269.318 377.986 268.72 377.832C268.123 377.665 267.545 377.583 266.987 377.584C266.416 377.586 265.924 377.691 265.509 377.9C265.107 378.095 264.907 378.407 264.908 378.836C264.909 379.147 265.052 379.419 265.338 379.652C265.638 379.872 266.008 380.039 266.449 380.155C266.891 380.27 267.365 380.418 267.871 380.599C268.391 380.766 268.872 380.946 269.313 381.14C269.755 381.32 270.119 381.605 270.406 381.993C270.705 382.369 270.856 382.822 270.857 383.355C270.86 384.263 270.498 384.932 269.773 385.362C269.047 385.78 268.126 385.99 267.01 385.993C265.544 385.997 264.336 385.695 263.387 385.088L263.383 383.57C264.371 384.229 265.553 384.556 266.929 384.553C268.512 384.548 269.302 384.163 269.3 383.398C269.299 383.047 269.091 382.756 268.675 382.524C268.272 382.278 267.778 382.078 267.194 381.924C266.609 381.757 266.025 381.571 265.44 381.364C264.856 381.158 264.356 380.848 263.939 380.434C263.536 380.02 263.333 379.502 263.331 378.879Z" fill="black"/>
<path d="M361.875 356.694C361.574 355.864 361.423 355.001 361.42 354.106C361.418 353.211 361.565 352.347 361.861 351.516C362.17 350.685 362.609 349.937 363.178 349.274C363.748 348.598 364.492 348.057 365.412 347.652C366.333 347.247 367.37 347.043 368.525 347.04C369.68 347.037 370.719 347.235 371.641 347.635C372.564 348.035 373.311 348.571 373.884 349.245C374.457 349.905 374.894 350.65 375.194 351.479C375.508 352.309 375.666 353.172 375.669 354.067C375.671 354.962 375.518 355.826 375.208 356.657C374.912 357.488 374.48 358.242 373.911 358.919C373.341 359.582 372.597 360.116 371.677 360.521C370.756 360.926 369.719 361.13 368.564 361.133C367.409 361.136 366.37 360.938 365.448 360.538C364.525 360.138 363.778 359.608 363.205 358.948C362.632 358.275 362.189 357.523 361.875 356.694ZM373.669 356.116C373.901 355.467 374.016 354.785 374.014 354.072C374.012 353.358 373.893 352.677 373.658 352.029C373.436 351.38 373.103 350.797 372.661 350.28C372.231 349.762 371.659 349.355 370.944 349.058C370.23 348.749 369.425 348.595 368.529 348.597C367.634 348.6 366.83 348.758 366.117 349.071C365.404 349.372 364.828 349.782 364.388 350.302C363.961 350.823 363.632 351.407 363.4 352.057C363.181 352.706 363.073 353.388 363.075 354.102C363.077 354.815 363.189 355.496 363.411 356.144C363.647 356.793 363.979 357.376 364.409 357.893C364.852 358.411 365.43 358.825 366.145 359.134C366.859 359.431 367.664 359.578 368.56 359.576C369.455 359.573 370.259 359.422 370.972 359.121C371.685 358.808 372.255 358.391 372.681 357.871C373.121 357.351 373.45 356.766 373.669 356.116Z" fill="black"/>
<path d="M390.09 351.497L391.725 351.493L388.559 360.844L386.865 360.849L384.315 353.635L381.804 360.863L380.111 360.867L376.893 351.533L378.528 351.529L380.963 359.152L383.608 351.515L385.01 351.511L387.697 359.134L390.09 351.497Z" fill="black"/>
<path d="M394.918 352.866C395.254 352.411 395.72 352.027 396.317 351.714C396.926 351.4 397.58 351.243 398.281 351.241C399.41 351.238 400.339 351.592 401.068 352.304C401.809 353.003 402.181 353.916 402.185 355.045L402.2 360.807L400.643 360.811L400.628 355.244C400.626 354.401 400.39 353.766 399.922 353.339C399.467 352.899 398.863 352.68 398.11 352.682C396.916 352.685 395.906 353.311 395.079 354.559L395.096 360.826L393.539 360.831L393.513 351.488L394.914 351.484L394.918 352.866Z" fill="black"/>
<path d="M347.474 371.748L349.031 371.744L349.07 385.953L347.513 385.957L347.474 371.748Z" fill="black"/>
<path d="M353.594 385.94L352.037 385.945L352.011 376.602L353.568 376.597L353.594 385.94ZM353.5 372.899C353.695 373.067 353.793 373.307 353.794 373.619C353.794 373.93 353.698 374.177 353.504 374.359C353.309 374.528 353.07 374.613 352.784 374.614C352.499 374.615 352.258 374.531 352.063 374.363C351.868 374.182 351.77 373.936 351.769 373.624C351.768 373.313 351.865 373.072 352.059 372.903C352.253 372.721 352.493 372.629 352.779 372.629C353.064 372.628 353.304 372.718 353.5 372.899Z" fill="black"/>
<path d="M357.2 384.763C356.315 383.831 355.87 382.664 355.867 381.263C355.863 379.861 356.301 378.692 357.181 377.755C358.073 376.818 359.188 376.348 360.525 376.345C361.991 376.341 363.251 376.934 364.306 378.125L364.301 376.568L365.703 376.564L365.74 390.189L364.183 390.194L364.167 384.51C363.236 385.602 362.031 386.151 360.552 386.155C359.215 386.158 358.098 385.694 357.2 384.763ZM364.155 380.072C363.868 379.424 363.419 378.88 362.808 378.441C362.197 378.001 361.495 377.782 360.704 377.785C359.769 377.787 358.985 378.107 358.351 378.745C357.73 379.382 357.421 380.22 357.424 381.258C357.427 382.296 357.74 383.132 358.365 383.767C359.002 384.401 359.788 384.716 360.723 384.714C361.514 384.712 362.214 384.489 362.823 384.046C363.432 383.603 363.878 383.057 364.162 382.408L364.155 380.072Z" fill="black"/>
<path d="M375.573 376.537L377.13 376.533L377.156 385.876L375.755 385.88L375.751 384.498C375.415 384.953 374.942 385.337 374.333 385.65C373.737 385.963 373.089 386.12 372.388 386.122C371.181 386.126 370.226 385.784 369.524 385.099C368.834 384.4 368.488 383.473 368.484 382.318L368.469 376.556L370.026 376.552L370.041 382.119C370.046 383.832 370.885 384.686 372.559 384.681C373.753 384.678 374.763 384.053 375.59 382.805L375.573 376.537Z" fill="black"/>
<path d="M381.631 385.863L380.074 385.868L380.048 376.525L381.606 376.52L381.631 385.863ZM381.537 372.822C381.732 372.99 381.83 373.23 381.831 373.542C381.832 373.853 381.735 374.1 381.541 374.282C381.347 374.451 381.107 374.536 380.822 374.537C380.536 374.538 380.296 374.454 380.101 374.286C379.906 374.105 379.808 373.859 379.807 373.547C379.806 373.236 379.903 372.995 380.097 372.826C380.291 372.644 380.531 372.553 380.816 372.552C381.102 372.551 381.342 372.641 381.537 372.822Z" fill="black"/>
<path d="M392.171 372.209L393.729 372.205L393.766 385.83L392.364 385.834L392.36 384.277C391.312 385.474 390.055 386.074 388.589 386.078C387.252 386.082 386.135 385.617 385.237 384.686C384.352 383.754 383.908 382.587 383.904 381.186C383.9 379.784 384.338 378.615 385.218 377.678C386.111 376.742 387.225 376.271 388.562 376.268C390.041 376.264 391.25 376.805 392.187 377.893L392.171 372.209ZM392.193 379.995C391.905 379.347 391.456 378.803 390.845 378.364C390.234 377.924 389.533 377.705 388.741 377.708C387.807 377.71 387.023 378.03 386.389 378.668C385.767 379.305 385.458 380.143 385.461 381.181C385.464 382.219 385.778 383.056 386.402 383.69C387.04 384.324 387.826 384.64 388.76 384.637C389.552 384.635 390.252 384.412 390.861 383.969C391.469 383.527 391.915 382.98 392.199 382.331L392.193 379.995Z" fill="black"/>
<path d="M398.245 385.818L396.687 385.822L396.662 376.479L398.219 376.475L398.245 385.818ZM398.15 372.777C398.346 372.945 398.444 373.185 398.444 373.496C398.445 373.808 398.349 374.054 398.154 374.237C397.96 374.406 397.72 374.491 397.435 374.492C397.149 374.492 396.909 374.409 396.714 374.24C396.519 374.059 396.421 373.813 396.42 373.502C396.419 373.19 396.516 372.95 396.71 372.781C396.904 372.598 397.144 372.507 397.43 372.506C397.715 372.505 397.955 372.596 398.15 372.777Z" fill="black"/>
<path d="M401.762 373.565L403.298 373.171L403.307 376.461L407.045 376.451L407.049 377.891L403.311 377.901L403.325 382.728C403.327 383.416 403.484 383.896 403.796 384.168C404.121 384.439 404.634 384.574 405.335 384.572C406.009 384.57 406.697 384.426 407.397 384.138L407.401 385.579C406.61 385.866 405.773 386.011 404.891 386.014C403.944 386.016 403.19 385.765 402.631 385.261C402.071 384.743 401.79 383.991 401.788 383.005L401.774 377.905L400.022 377.91L400.018 376.47L401.77 376.465L401.762 373.565Z" fill="black"/>
<path d="M413.083 384.006L416.216 376.425L417.87 376.421L413.306 387.178C412.416 389.257 411.245 390.298 409.791 390.302C409.441 390.303 409.103 390.258 408.779 390.169L408.775 388.825C409.048 388.903 409.32 388.941 409.593 388.94C410.592 388.937 411.395 388.176 412 386.656L412.348 385.799L407.885 376.448L409.539 376.444L413.083 384.006Z" fill="black"/>
<path d="M201.5 555.601C201.495 554.096 201.848 552.791 202.558 551.686C203.268 550.568 204.154 549.749 205.217 549.227C206.279 548.706 207.42 548.443 208.64 548.441C210.041 548.437 211.321 548.739 212.478 549.347L212.483 550.982C211.494 550.322 210.306 549.994 208.918 549.997C207.36 550.001 206.012 550.484 204.874 551.447C203.735 552.397 203.162 553.78 203.155 555.597C203.158 556.752 203.453 557.75 204.04 558.593C204.64 559.435 205.368 560.043 206.226 560.417C207.097 560.791 208.025 560.977 209.011 560.975C210.478 560.972 211.677 560.638 212.609 559.974L212.614 561.609C211.435 562.222 210.119 562.53 208.666 562.533C207.797 562.535 206.94 562.388 206.095 562.091C205.251 561.782 204.484 561.349 203.794 560.793C203.105 560.223 202.551 559.491 202.133 558.597C201.714 557.69 201.504 556.691 201.5 555.601Z" fill="black"/>
<path d="M214.796 548.076L216.353 548.072L216.399 562.281L214.842 562.285L214.796 548.076Z" fill="black"/>
<path d="M220.923 562.271L219.366 562.275L219.336 552.931L220.893 552.928L220.923 562.271ZM220.823 549.23C221.018 549.398 221.116 549.638 221.117 549.949C221.118 550.261 221.021 550.507 220.827 550.69C220.633 550.859 220.393 550.944 220.108 550.944C219.822 550.945 219.582 550.861 219.387 550.693C219.192 550.512 219.093 550.265 219.092 549.954C219.091 549.643 219.188 549.402 219.382 549.233C219.576 549.051 219.816 548.96 220.101 548.959C220.387 548.958 220.627 549.048 220.823 549.23Z" fill="black"/>
<path d="M223.193 557.594C223.189 556.063 223.652 554.861 224.583 553.99C225.528 553.118 226.61 552.681 227.83 552.678C228.972 552.675 229.913 552.959 230.655 553.528C231.409 554.097 231.905 554.803 232.141 555.646C232.377 556.476 232.393 557.345 232.188 558.254L224.753 558.272C224.847 559.193 225.258 559.886 225.986 560.351C226.714 560.817 227.591 561.048 228.616 561.046C229.758 561.043 230.782 560.788 231.689 560.28L231.694 561.798C230.826 562.254 229.723 562.484 228.387 562.487C226.908 562.49 225.673 562.072 224.684 561.23C223.696 560.389 223.199 559.177 223.193 557.594ZM230.802 556.895C230.84 556.622 230.82 556.337 230.741 556.039C230.662 555.74 230.518 555.442 230.31 555.144C230.114 554.846 229.808 554.6 229.392 554.407C228.977 554.213 228.49 554.117 227.932 554.118C227.088 554.12 226.356 554.368 225.735 554.863C225.126 555.358 224.798 556.04 224.748 556.909L230.802 556.895Z" fill="black"/>
<path d="M235.89 554.275C236.226 553.82 236.692 553.436 237.288 553.123C237.897 552.81 238.552 552.653 239.253 552.651C240.382 552.649 241.31 553.003 242.039 553.715C242.781 554.414 243.154 555.328 243.158 556.457L243.176 562.219L241.619 562.223L241.601 556.656C241.599 555.812 241.363 555.177 240.894 554.75C240.439 554.31 239.835 554.09 239.082 554.092C237.888 554.095 236.878 554.72 236.052 555.968L236.072 562.235L234.515 562.239L234.484 552.896L235.886 552.893L235.89 554.275Z" fill="black"/>
<path d="M246.408 549.968L247.945 549.575L247.955 552.865L251.692 552.856L251.697 554.296L247.96 554.305L247.975 559.132C247.978 559.82 248.135 560.3 248.447 560.572C248.772 560.843 249.285 560.978 249.986 560.977C250.661 560.975 251.348 560.831 252.048 560.544L252.053 561.984C251.262 562.271 250.425 562.416 249.543 562.418C248.596 562.42 247.842 562.169 247.283 561.664C246.723 561.147 246.442 560.395 246.438 559.408L246.422 554.309L244.67 554.313L244.666 552.872L246.417 552.868L246.408 549.968Z" fill="black"/>
<path d="M226.248 431.686V397.669H227.133V431.686H382.066V397.67L382.951 397.67V432.57L227.133 432.57V455.376H226.248V432.57L70.4258 432.57V397.67L71.3105 397.67L71.3105 431.686H226.248Z" fill="black"/>
<path fill-rule="evenodd" clip-rule="evenodd" d="M226.248 508.376V530.429H157.94V583.512H295.196V530.429H227.133V508.376H295.196V455.376H157.94V508.376H226.248ZM294.311 531.314H158.825V582.627H294.311V531.314ZM158.825 456.261H294.311V507.491H158.825V456.261Z" fill="black"/>
<g clip-path="url(#clip0)">
<path d="M184.199 468.337L180.878 470.176L184.454 470.687L184.403 474.621L187.724 472.833L187.775 468.848L184.199 468.337Z" fill="#500B06"/>
<path d="M180.571 471.76L177.25 473.599L180.826 474.11L184.147 472.322L180.571 471.76Z" fill="#500B06"/>
<path d="M187.724 472.833L184.403 474.621L184.352 478.606L187.673 476.767L187.724 472.833Z" fill="#500B06"/>
<path d="M184.453 470.687L184.402 474.621L184.351 478.607L180.774 478.096L177.249 477.585V473.599L180.826 474.11L180.877 470.176L184.453 470.687Z" fill="#C22A1D"/>
<path d="M194.416 469.87L191.044 471.709L194.62 472.22L197.941 470.432L194.416 469.87Z" fill="#500B06"/>
<path d="M197.941 470.432L194.62 472.22L194.57 476.205L198.146 476.716L198.095 480.701L201.467 478.862V474.877L197.942 474.366L197.941 470.432Z" fill="#500B06"/>
<path d="M194.621 472.22L194.57 476.205L198.146 476.716L198.095 480.701L194.57 480.139L190.993 479.628L191.044 475.694V471.709L194.621 472.22Z" fill="#C22A1D"/>
<path d="M194.212 483.716L190.891 485.504L194.467 486.015L198.044 486.577L197.992 490.511L201.313 488.723L201.365 484.738L194.212 483.716Z" fill="#500B06"/>
<path d="M197.737 488.212L194.416 490L194.365 493.985L197.686 492.146L197.737 488.212Z" fill="#500B06"/>
<path d="M198.043 486.577L197.992 490.511L194.416 490L194.365 493.985L190.788 493.474L190.839 489.489L190.89 485.504L194.467 486.015L198.043 486.577Z" fill="#C22A1D"/>
<path d="M180.468 481.621L177.146 483.46L184.299 484.482L184.197 492.401L187.518 490.613L187.62 482.643L180.468 481.621Z" fill="#500B06"/>
<path d="M184.3 484.482L184.249 488.467L184.198 492.401L180.621 491.89L180.672 487.956L177.096 487.394L177.147 483.46L180.723 483.971L184.3 484.482Z" fill="#C22A1D"/>
</g>
<path d="M210.579 476.636H211.524V485.577H210.579V476.636Z" fill="#181818"/>
<path d="M225.355 476.636V485.577H224.575L218.827 478.322V485.577H217.882V476.636H218.661L224.422 483.891V476.636H225.355Z" fill="#181818"/>
<path d="M239.056 476.636L235.096 485.577H234.164L230.204 476.636H231.226L234.649 484.402L238.098 476.636H239.056Z" fill="#181818"/>
<path d="M250.125 484.759V485.577H243.802V476.636H249.933V477.453H244.747V480.634H249.371V481.438H244.747V484.759H250.125Z" fill="#181818"/>
<path d="M265.082 476.636V485.577H264.175V478.424L260.662 484.44H260.215L256.702 478.462V485.577H255.796V476.636H256.575L260.458 483.265L264.302 476.636H265.082Z" fill="#181818"/>
<path d="M275.352 485.654C274.467 485.654 273.662 485.458 272.938 485.066C272.223 484.666 271.661 484.121 271.252 483.431C270.852 482.741 270.652 481.966 270.652 481.106C270.652 480.246 270.852 479.471 271.252 478.782C271.661 478.092 272.223 477.551 272.938 477.159C273.662 476.759 274.467 476.559 275.352 476.559C276.238 476.559 277.034 476.755 277.741 477.147C278.456 477.538 279.018 478.083 279.427 478.782C279.836 479.471 280.04 480.246 280.04 481.106C280.04 481.966 279.836 482.746 279.427 483.444C279.018 484.134 278.456 484.674 277.741 485.066C277.034 485.458 276.238 485.654 275.352 485.654ZM275.352 484.811C276.059 484.811 276.698 484.653 277.268 484.338C277.839 484.014 278.286 483.572 278.609 483.01C278.933 482.439 279.095 481.805 279.095 481.106C279.095 480.408 278.933 479.778 278.609 479.216C278.286 478.645 277.839 478.203 277.268 477.887C276.698 477.564 276.059 477.402 275.352 477.402C274.645 477.402 274.003 477.564 273.423 477.887C272.853 478.203 272.402 478.645 272.07 479.216C271.746 479.778 271.584 480.408 271.584 481.106C271.584 481.805 271.746 482.439 272.07 483.01C272.402 483.572 272.853 484.014 273.423 484.338C274.003 484.653 274.645 484.811 275.352 484.811Z" fill="#181818"/>
<path d="M124.255 10.1676L143.333 10.1153L143.34 12.7649L135.192 12.7872L135.249 33.3217L132.467 33.3293L132.41 12.7949L124.263 12.8172L124.255 10.1676ZM144.924 20.2126C145.539 19.1732 146.487 18.3646 147.766 17.787C149.045 17.1874 150.38 16.9408 151.771 17.0474L151.778 19.697C150.232 19.5246 148.864 19.7823 147.674 20.47C146.505 21.1357 145.68 22.1095 145.198 23.3914L145.225 33.2944L142.575 33.3016L142.532 17.404L144.916 17.3974L144.924 20.2126ZM167.418 29.9214C167.42 30.7384 167.83 31.1458 168.647 31.1435C169 31.1426 169.408 31.0642 169.871 30.9083L169.877 33.0611C169.216 33.3058 168.554 33.4291 167.891 33.4309C166.368 33.4351 165.394 32.7974 164.971 31.5179C163.275 32.9357 161.213 33.6479 158.784 33.6546C157.238 33.6589 155.912 33.254 154.806 32.4401C153.722 31.604 153.177 30.4021 153.173 28.8344C153.168 26.9576 153.86 25.5978 155.249 24.7549C156.659 23.8899 158.358 23.4547 160.345 23.4492C161.803 23.4452 163.272 23.6068 164.752 23.934L164.75 23.3709C164.747 22.1565 164.347 21.1971 163.55 20.4927C162.753 19.7663 161.637 19.405 160.202 19.409C158.193 19.4145 156.262 19.8172 154.409 20.6172L154.402 18.0338C156.476 17.3215 158.495 16.9627 160.46 16.9573C162.624 16.9514 164.315 17.5319 165.532 18.6988C166.772 19.8436 167.395 21.5089 167.401 23.6949L167.418 29.9214ZM155.889 28.6945C155.891 29.5777 156.224 30.2502 156.888 30.7121C157.573 31.1518 158.391 31.3704 159.34 31.3678C161.526 31.3618 163.335 30.584 164.766 29.0345L164.758 26.1199C163.256 25.8149 161.908 25.664 160.716 25.6673C159.369 25.671 158.222 25.917 157.273 26.4054C156.347 26.8716 155.886 27.6346 155.889 28.6945ZM185.478 9.99967L188.128 9.99241L188.191 33.1765L185.807 33.183L185.8 30.5334C184.017 32.5697 181.878 33.5913 179.383 33.5981C177.108 33.6043 175.207 32.8147 173.679 31.2291C172.174 29.6434 171.417 27.6583 171.411 25.2736C171.404 22.889 172.15 20.8997 173.647 19.3058C175.166 17.7119 177.063 16.9118 179.337 16.9056C181.854 16.8987 183.91 17.8204 185.505 19.6708L185.478 9.99967ZM185.515 23.2477C185.026 22.1451 184.262 21.2198 183.222 20.4719C182.182 19.724 180.989 19.3519 179.642 19.3556C178.052 19.36 176.718 19.9046 175.639 20.9895C174.582 22.0743 174.056 23.5 174.06 25.2664C174.065 27.0328 174.599 28.4555 175.662 29.5345C176.747 30.6135 178.084 31.1508 179.674 31.1464C181.021 31.1427 182.212 30.7641 183.248 30.0105C184.284 29.2569 185.043 28.3275 185.526 27.2221L185.515 23.2477ZM195.812 33.1556L193.163 33.1629L193.119 17.2652L195.769 17.2579L195.812 33.1556ZM195.652 10.9654C195.984 11.2515 196.151 11.6595 196.152 12.1895C196.154 12.7194 195.989 13.1394 195.659 13.4494C195.328 13.7373 194.92 13.882 194.435 13.8833C193.949 13.8846 193.54 13.7422 193.208 13.4561C192.876 13.1479 192.709 12.7288 192.708 12.1989C192.706 11.669 192.871 11.2601 193.201 10.9721C193.531 10.6621 193.94 10.5064 194.425 10.5051C194.911 10.5037 195.32 10.6572 195.652 10.9654ZM203.142 19.5893C203.714 18.8149 204.507 18.1613 205.521 17.6286C206.557 17.0959 207.672 16.8278 208.864 16.8246C210.785 16.8193 212.365 17.4222 213.605 18.6332C214.867 19.8221 215.501 21.377 215.506 23.298L215.533 33.1015L212.883 33.1088L212.857 23.6364C212.853 22.2012 212.453 21.1204 211.656 20.3939C210.881 19.6453 209.853 19.2728 208.573 19.2763C206.541 19.2819 204.822 20.3464 203.415 22.47L203.444 33.1347L200.794 33.1419L200.751 17.2443L203.135 17.2377L203.142 19.5893ZM221.387 31.0982C219.881 29.5126 219.125 27.5274 219.118 25.1428C219.112 22.7581 219.857 20.7689 221.354 19.175C222.873 17.581 224.77 16.7809 227.044 16.7747C229.539 16.7679 231.684 17.7777 233.478 19.8041L233.47 17.1545L235.855 17.148L235.899 33.0457C235.906 35.6069 235.072 37.5302 233.397 38.8155C231.723 40.1007 229.671 40.7467 227.242 40.7533C224.88 40.7598 222.726 40.2689 220.78 39.2806L220.773 36.6973C222.697 37.7739 224.741 38.3093 226.904 38.3033C228.781 38.2982 230.315 37.8745 231.505 37.0322C232.695 36.2119 233.276 34.8855 233.249 33.0529L233.242 30.602C231.702 32.5052 229.651 33.4602 227.09 33.4673C224.816 33.4735 222.915 32.6838 221.387 31.0982ZM233.222 23.1169C232.733 22.0142 231.969 21.0889 230.929 20.3411C229.889 19.5932 228.696 19.2211 227.349 19.2248C225.759 19.2291 224.425 19.7738 223.346 20.8587C222.289 21.9435 221.763 23.3691 221.768 25.1355C221.773 26.9019 222.306 28.3246 223.369 29.4037C224.454 30.4826 225.791 31.0199 227.381 31.0156C228.728 31.0119 229.919 30.6663 230.955 29.979C231.991 29.2696 232.751 28.4174 233.234 27.4225L233.222 23.1169ZM261.959 29.6621C261.961 30.4791 262.371 30.8865 263.188 30.8842C263.541 30.8833 263.949 30.8049 264.413 30.649L264.419 32.8018C263.757 33.0465 263.095 33.1698 262.432 33.1716C260.909 33.1758 259.936 32.5381 259.513 31.2586C257.816 32.6764 255.754 33.3886 253.325 33.3953C251.779 33.3995 250.453 32.9947 249.347 32.1808C248.263 31.3447 247.719 30.1428 247.714 28.5751C247.709 26.6983 248.401 25.3385 249.79 24.4956C251.2 23.6306 252.899 23.1954 254.887 23.1899C256.344 23.1859 257.813 23.3475 259.293 23.6747L259.291 23.1116C259.288 21.8972 258.888 20.9378 258.091 20.2334C257.294 19.507 256.178 19.1457 254.743 19.1496C252.734 19.1552 250.803 19.5579 248.95 20.3579L248.943 17.7745C251.017 17.0622 253.036 16.7034 255.001 16.698C257.165 16.6921 258.856 17.2726 260.074 18.4395C261.313 19.5843 261.936 21.2496 261.942 23.4355L261.959 29.6621ZM250.43 28.4352C250.432 29.3184 250.765 29.9909 251.429 30.4528C252.115 30.8925 252.932 31.1111 253.882 31.1085C256.068 31.1025 257.876 30.3247 259.307 28.7752L259.299 25.8606C257.797 25.5556 256.449 25.4047 255.257 25.408C253.91 25.4117 252.763 25.6577 251.815 26.1461C250.888 26.6123 250.427 27.3753 250.43 28.4352ZM266.107 21.2382C266.103 19.7147 266.685 18.5759 267.853 17.822C269.044 17.0459 270.478 16.6556 272.156 16.651C274.209 16.6453 276.087 17.0928 277.79 17.9935L277.797 20.5106C277.133 20.0708 276.293 19.7198 275.277 19.4576C274.26 19.1734 273.277 19.0326 272.328 19.0352C271.356 19.0378 270.518 19.2168 269.812 19.572C269.129 19.9051 268.788 20.4359 268.79 21.1646C268.791 21.6945 269.035 22.1575 269.522 22.5536C270.031 22.9276 270.661 23.2129 271.413 23.4096C272.164 23.6062 272.97 23.8579 273.832 24.1647C274.716 24.4493 275.534 24.7562 276.286 25.0853C277.037 25.3924 277.657 25.8765 278.145 26.5375C278.654 27.1765 278.91 27.9486 278.913 28.8539C278.917 30.3995 278.302 31.5383 277.067 32.2703C275.833 32.9803 274.266 33.3379 272.367 33.3431C269.872 33.3499 267.817 32.8367 266.203 31.8033L266.195 29.22C267.877 30.3414 269.887 30.899 272.228 30.8925C274.922 30.8852 276.267 30.2301 276.263 28.9274C276.262 28.3312 275.907 27.8354 275.199 27.4399C274.514 27.0222 273.674 26.6823 272.679 26.4201C271.685 26.1357 270.69 25.8183 269.696 25.4677C268.701 25.1172 267.85 24.5896 267.141 23.885C266.455 23.1803 266.11 22.298 266.107 21.2382ZM293.458 32.8878L290.809 32.895L290.765 16.9974L293.415 16.9901L293.458 32.8878ZM293.298 10.6976C293.63 10.9837 293.797 11.3917 293.798 11.9216C293.8 12.4516 293.635 12.8715 293.305 13.1816C292.975 13.4695 292.567 13.6142 292.081 13.6155C291.595 13.6168 291.186 13.4744 290.854 13.1883C290.522 12.8801 290.355 12.461 290.354 11.9311C290.352 11.4012 290.517 10.9922 290.847 10.7043C291.178 10.3942 291.586 10.2386 292.071 10.2372C292.557 10.2359 292.966 10.3893 293.298 10.6976ZM297.481 21.1521C297.477 19.6286 298.059 18.4899 299.227 17.7359C300.417 16.9599 301.851 16.5695 303.529 16.5649C305.583 16.5593 307.461 17.0068 309.163 17.9074L309.17 20.4245C308.507 19.9848 307.667 19.6338 306.65 19.3716C305.634 19.0873 304.651 18.9465 303.701 18.9491C302.73 18.9518 301.891 19.1307 301.186 19.4859C300.502 19.819 300.161 20.3499 300.163 21.0785C300.165 21.6085 300.409 22.0715 300.896 22.4676C301.405 22.8415 302.035 23.1269 302.786 23.3235C303.537 23.5202 304.344 23.7719 305.206 24.0787C306.09 24.3633 306.908 24.6702 307.659 24.9993C308.411 25.3064 309.031 25.7904 309.518 26.4515C310.028 27.0904 310.284 27.8625 310.286 28.7678C310.29 30.3134 309.675 31.4522 308.441 32.1843C307.206 32.8942 305.64 33.2518 303.741 33.257C301.246 33.2639 299.191 32.7506 297.576 31.7173L297.569 29.1339C299.25 30.2554 301.261 30.8129 303.602 30.8065C306.295 30.7991 307.64 30.144 307.637 28.8413C307.635 28.2452 307.281 27.7493 306.573 27.3538C305.887 26.9362 305.047 26.5962 304.053 26.334C303.059 26.0497 302.064 25.7323 301.07 25.3817C300.075 25.0311 299.223 24.5035 298.515 23.7989C297.828 23.0942 297.484 22.212 297.481 21.1521Z" fill="black"/>
<line x1="71.1904" y1="113.845" x2="71.1904" y2="148.746" stroke="black" stroke-width="0.88476"/>
<line x1="227.013" y1="113.846" x2="227.013" y2="174.4" stroke="black" stroke-width="0.88476"/>
<line x1="382.831" y1="113.845" x2="382.831" y2="148.746" stroke="black" stroke-width="0.88476"/>
<line x1="70.748" y1="148.304" x2="382.39" y2="148.304" stroke="black" stroke-width="0.88476"/>
<path d="M201.5 199.57C201.495 198.065 201.848 196.76 202.558 195.655C203.268 194.538 204.154 193.718 205.217 193.197C206.279 192.675 207.42 192.413 208.64 192.41C210.041 192.407 211.321 192.709 212.477 193.316L212.483 194.951C211.494 194.292 210.306 193.963 208.917 193.967C207.36 193.97 206.012 194.454 204.873 195.416C203.735 196.366 203.162 197.75 203.154 199.566C203.158 200.721 203.453 201.72 204.04 202.562C204.64 203.404 205.368 204.012 206.226 204.387C207.097 204.761 208.025 204.947 209.011 204.945C210.478 204.941 211.677 204.607 212.609 203.943L212.614 205.578C211.435 206.191 210.119 206.499 208.666 206.503C207.796 206.505 206.94 206.357 206.095 206.061C205.251 205.751 204.484 205.318 203.794 204.762C203.104 204.193 202.551 203.461 202.132 202.566C201.714 201.659 201.503 200.66 201.5 199.57ZM214.796 192.045L216.353 192.042L216.399 206.251L214.842 206.255L214.796 192.045ZM220.923 206.24L219.366 206.244L219.336 196.901L220.893 196.897L220.923 206.24ZM220.822 193.199C221.018 193.367 221.116 193.607 221.117 193.919C221.118 194.23 221.021 194.477 220.827 194.659C220.633 194.828 220.393 194.913 220.108 194.914C219.822 194.914 219.582 194.831 219.387 194.662C219.192 194.481 219.093 194.235 219.092 193.923C219.091 193.612 219.188 193.372 219.382 193.203C219.576 193.02 219.816 192.929 220.101 192.928C220.387 192.928 220.627 193.018 220.822 193.199ZM223.193 201.563C223.188 200.032 223.652 198.831 224.583 197.959C225.528 197.088 226.61 196.65 227.83 196.648C228.972 196.645 229.913 196.928 230.655 197.497C231.409 198.067 231.905 198.773 232.141 199.616C232.377 200.446 232.393 201.315 232.188 202.224L224.753 202.241C224.847 203.162 225.258 203.855 225.986 204.321C226.714 204.786 227.591 205.018 228.616 205.016C229.758 205.013 230.782 204.757 231.689 204.249L231.694 205.767C230.826 206.224 229.723 206.453 228.387 206.456C226.907 206.46 225.673 206.041 224.684 205.2C223.695 204.359 223.198 203.147 223.193 201.563ZM230.802 200.864C230.84 200.592 230.82 200.306 230.741 200.008C230.662 199.71 230.518 199.412 230.31 199.114C230.114 198.816 229.808 198.57 229.392 198.376C228.977 198.183 228.49 198.086 227.932 198.088C227.088 198.09 226.356 198.338 225.734 198.832C225.126 199.327 224.797 200.009 224.748 200.879L230.802 200.864ZM235.89 198.244C236.226 197.789 236.692 197.405 237.288 197.093C237.897 196.78 238.552 196.622 239.252 196.621C240.381 196.618 241.31 196.973 242.039 197.685C242.781 198.384 243.154 199.298 243.158 200.427L243.176 206.188L241.619 206.192L241.601 200.625C241.598 199.782 241.363 199.146 240.894 198.719C240.439 198.279 239.835 198.06 239.082 198.062C237.888 198.064 236.878 198.69 236.051 199.937L236.072 206.205L234.515 206.209L234.484 196.866L235.886 196.862L235.89 198.244ZM246.408 193.937L247.944 193.545L247.955 196.834L251.692 196.825L251.697 198.266L247.96 198.274L247.975 203.102C247.977 203.789 248.135 204.269 248.447 204.541C248.772 204.813 249.285 204.948 249.986 204.946C250.661 204.945 251.348 204.8 252.048 204.513L252.053 205.953C251.262 206.241 250.425 206.386 249.543 206.388C248.596 206.39 247.842 206.139 247.283 205.634C246.723 205.116 246.442 204.364 246.438 203.378L246.422 198.278L244.67 198.282L244.665 196.842L246.417 196.838L246.408 193.937Z" fill="black"/>
<rect x="158.383" y="174.841" width="136.371" height="52.1985" stroke="black" stroke-width="0.88476"/>
<path d="M8.51693 81.3249L13.7062 76.1377L18.8976 81.3291L21.9153 78.3093L13.7062 70.098L5.49707 78.3072L8.51693 81.3249Z" fill="#F3BA2F"/>
<path d="M0.344727 83.4578L3.36349 80.439L6.38224 83.4578L3.36348 86.4765L0.344727 83.4578Z" fill="#F3BA2F"/>
<path d="M8.51725 85.5898L13.7065 90.779L18.8979 85.5876L21.9178 88.6033L21.9156 88.6054L13.7065 96.8166L5.49738 88.6096L5.49316 88.6054L8.51725 85.5898Z" fill="#F3BA2F"/>
<path d="M21.0254 83.4586L24.0441 80.4399L27.0629 83.4586L24.0441 86.4774L21.0254 83.4586Z" fill="#F3BA2F"/>
<path d="M16.769 83.4564L13.7069 80.3922L11.4425 82.6566L11.1809 82.9162L10.6448 83.4522L10.6406 83.4564L10.6448 83.4627L13.7069 86.5227L16.769 83.4585L16.7711 83.4564H16.769Z" fill="#F3BA2F"/>
<path d="M31.7725 76.572H38.3398C39.9689 76.572 41.2014 76.9941 42.037 77.8382C42.3519 78.15 42.6001 78.5226 42.7666 78.9332C42.9331 79.3439 43.0145 79.7841 43.0057 80.2271V80.2672C43.0113 80.6301 42.9608 80.9917 42.8558 81.3392C42.7623 81.6384 42.6266 81.9226 42.4528 82.1834C42.2907 82.4292 42.0946 82.6509 41.8703 82.8418C41.6512 83.0304 41.4112 83.1932 41.1549 83.3271C41.8939 83.5845 42.5583 84.0193 43.0901 84.5933C43.56 85.1279 43.7949 85.8666 43.7949 86.8092V86.8493C43.8083 87.438 43.6802 88.0213 43.4214 88.5502C43.1707 89.0375 42.8031 89.4551 42.3515 89.7657C41.8409 90.108 41.2725 90.3547 40.6738 90.4938C39.9625 90.6625 39.2333 90.744 38.5023 90.7365H31.7725V76.572ZM37.6813 82.2994C38.2495 82.3269 38.815 82.2046 39.3211 81.9449C39.5184 81.8296 39.6796 81.6614 39.7862 81.4592C39.8929 81.2571 39.9408 81.0291 39.9246 80.8011V80.761C39.9351 80.5509 39.8924 80.3416 39.8005 80.1524C39.7087 79.9632 39.5707 79.8002 39.3991 79.6784C39.0488 79.4294 38.5431 79.3049 37.8818 79.3049H34.8092V82.2994H37.6813ZM38.5107 88.0078C39.0768 88.0395 39.6402 87.91 40.1356 87.6343C40.3286 87.5103 40.4849 87.3368 40.588 87.132C40.6912 86.9271 40.7376 86.6983 40.7223 86.4694V86.4293C40.7299 86.2118 40.6841 85.9957 40.5888 85.7999C40.4935 85.6042 40.3517 85.4348 40.1757 85.3066C39.8128 85.0252 39.2261 84.8846 38.4157 84.8846H34.8092V88.0078H38.5107Z" fill="#F3BA2F"/>
<path d="M47.707 76.5725H50.824V90.7412H47.707V76.5725Z" fill="#F3BA2F"/>
<path d="M55.54 76.5725H58.4143L65.0576 85.2923V76.5725H68.1344V90.7412H65.4817L58.6211 81.7343V90.7412H55.54V76.5725Z" fill="#F3BA2F"/>
<path d="M77.5725 76.4712H80.4425L86.5139 90.7411H83.2598L81.9641 87.563H75.9729L74.6772 90.7411H71.499L77.5725 76.4712ZM80.8519 84.8112L78.9653 80.2149L77.0871 84.8112H80.8519Z" fill="#F3BA2F"/>
<path d="M89.8848 76.5725H92.759L99.3981 85.2923V76.5725H102.475V90.7412H99.8222L92.9616 81.7343V90.7412H89.8848V76.5725Z" fill="#F3BA2F"/>
<path d="M113.693 90.9902C112.7 90.9987 111.715 90.8063 110.798 90.4246C109.934 90.0681 109.151 89.5424 108.494 88.8784C107.837 88.2144 107.319 87.4256 106.972 86.5585C106.605 85.6515 106.419 84.6816 106.425 83.7033V83.6632C106.409 81.7348 107.151 79.8773 108.491 78.4908C109.151 77.8136 109.94 77.2766 110.812 76.9123C111.761 76.5193 112.78 76.3233 113.807 76.3362C114.414 76.3316 115.021 76.3861 115.618 76.4987C116.128 76.5952 116.628 76.7445 117.107 76.9439C117.543 77.1273 117.957 77.358 118.342 77.6319C118.718 77.8991 119.071 78.197 119.397 78.5225L117.416 80.81C116.909 80.3429 116.341 79.9474 115.727 79.6346C115.124 79.3462 114.463 79.2018 113.794 79.2125C113.238 79.2066 112.687 79.3191 112.178 79.5425C111.668 79.7659 111.212 80.0951 110.84 80.5083C110.471 80.9204 110.182 81.3977 109.987 81.9158C109.784 82.4634 109.682 83.0433 109.686 83.6273V83.6674C109.684 84.2506 109.786 84.8295 109.987 85.3768C110.179 85.8967 110.465 86.3768 110.831 86.7928C111.201 87.2111 111.656 87.5451 112.165 87.7723C112.675 87.9995 113.228 88.1146 113.786 88.1096C114.496 88.132 115.202 87.9791 115.839 87.6643C116.446 87.3336 117.007 86.9249 117.508 86.4488L119.492 88.4536C119.142 88.8338 118.763 89.1865 118.359 89.5088C117.962 89.8227 117.531 90.091 117.074 90.3086C116.587 90.5378 116.074 90.7072 115.546 90.8129C114.936 90.9352 114.315 90.9946 113.693 90.9902V90.9902Z" fill="#F3BA2F"/>
<path d="M123.17 76.5725H133.833V79.3455H126.236V82.2197H132.926V84.9927H126.247V87.9682H133.939V90.7412H123.176L123.17 76.5725Z" fill="#F3BA2F"/>
<path fill-rule="evenodd" clip-rule="evenodd" d="M187.414 88.6075C188.216 88.6075 188.967 88.4608 189.674 88.1762C189.674 88.202 191.115 90.4364 191.141 90.4451C189.866 91.1282 188.438 91.4756 186.991 91.4544C182.566 91.4631 179.356 88.5385 179.356 83.8885C179.356 79.204 182.721 76.2967 186.991 76.2967C188.501 76.2967 189.7 76.6246 190.899 77.263L189.519 79.5923C188.794 79.3076 188.052 79.1782 187.276 79.1782C184.662 79.1782 182.635 80.8432 182.635 83.8885C182.635 86.7699 184.593 88.6075 187.414 88.6075ZM198.569 76.2967C202.917 76.2967 206.066 79.3766 206.066 83.8885C206.066 88.3746 202.917 91.4544 198.56 91.4544C194.247 91.4544 191.098 88.3746 191.098 83.8885C191.098 79.3766 194.247 76.2967 198.569 76.2967V76.2967ZM198.569 79.0746C196.145 79.0746 194.376 80.9467 194.376 83.8885C194.376 86.8045 196.145 88.6765 198.569 88.6765C201.053 88.6765 202.796 86.8045 202.796 83.8885C202.796 80.9467 201.053 79.0746 198.569 79.0746V79.0746ZM208.128 91.1266V76.6246H211.371V91.118H208.128V91.1266ZM207.696 72.1644C207.73 71.6484 207.959 71.1646 208.336 70.8111C208.713 70.4576 209.211 70.2609 209.728 70.2609C210.245 70.2609 210.743 70.4576 211.12 70.8111C211.497 71.1646 211.726 71.6484 211.76 72.1644C211.76 72.7061 211.547 73.2263 211.168 73.6134C210.789 74.0005 210.274 74.2236 209.732 74.2349C209.191 74.2236 208.675 74.0005 208.296 73.6134C207.917 73.2263 207.705 72.7061 207.705 72.1644H207.696ZM214.201 77.539C216.326 76.7404 218.574 76.3199 220.844 76.2967C224.553 76.2967 226.9 77.7029 226.9 81.7922V91.1266H223.699V82.0941C223.699 79.9977 222.397 79.2472 220.594 79.2472C219.446 79.2472 218.299 79.4025 217.445 79.6699V91.118H214.21V77.539H214.201ZM229.618 68.8602H232.861V77.0128C233.551 76.6504 234.889 76.2967 236.165 76.2967C240.358 76.2967 243.498 78.9711 243.498 83.6297C243.498 88.3142 240.393 91.4544 235.027 91.4544C232.93 91.4544 231.093 91.0231 229.618 90.5055V68.8602V68.8602ZM232.861 88.3746C233.482 88.573 234.302 88.6765 235.122 88.6765C238.098 88.6765 240.229 87.0374 240.229 83.6987C240.229 80.8777 238.227 79.2127 235.777 79.2127C234.5 79.2127 233.517 79.5405 232.861 79.9028V88.3746V88.3746ZM252.876 81.4039C252.876 79.8338 251.685 79.1091 250.081 79.1091C248.416 79.1091 247.105 79.6009 245.897 80.291V77.47C247.342 76.6848 248.963 76.281 250.607 76.2967C253.782 76.2967 256.042 77.608 256.042 81.24V90.8333C254.662 91.1956 252.703 91.4199 251.064 91.4199C247.303 91.4199 244.551 90.2812 244.551 87.0029C244.551 84.0524 247.07 82.6117 251.263 82.6117H252.867V81.4039H252.876ZM252.876 84.7685H251.496C249.235 84.7685 247.76 85.4328 247.76 86.908C247.76 88.4091 249.141 88.9957 251.099 88.9957C251.591 88.9957 252.281 88.9353 252.867 88.8404V84.7771L252.876 84.7685ZM258.397 87.2013C259.662 88.2029 261.211 88.7769 262.823 88.8404C264.264 88.8404 265.213 88.3487 265.213 87.2013C265.213 86.0194 264.359 85.5967 262.495 85.1049C259.476 84.4148 258.208 83.207 258.208 80.6793C258.208 77.7374 260.433 76.2967 263.384 76.2967C265.023 76.2967 266.326 76.6504 267.542 77.4096V80.3859C266.386 79.4632 264.958 78.9477 263.479 78.9193C262.072 78.9193 261.322 79.6095 261.322 80.5585C261.322 81.5075 261.934 81.9906 263.608 82.4564C266.921 83.1725 268.353 84.4148 268.353 87.0288C268.353 90.0827 266.032 91.4544 262.892 91.4544C261.317 91.4859 259.764 91.0797 258.406 90.2812V87.2013H258.397ZM272.796 84.6132V84.6736C272.994 87.2617 275.211 88.6765 277.48 88.6765C279.473 88.6765 280.914 88.2107 282.355 87.2617V90.1086C281.043 91.0317 279.111 91.4544 277.247 91.4544C272.727 91.4544 269.656 88.573 269.656 83.992C269.656 79.3766 272.666 76.2967 276.661 76.2967C280.888 76.2967 282.881 79.0142 282.881 82.9741V84.6132H272.787H272.796ZM279.835 82.5168C279.766 80.2565 278.654 79.0142 276.557 79.0142C274.694 79.0142 273.322 80.3256 272.891 82.5168H279.835Z" fill="#1652F0"/>
<path d="M331.212 74.7033C333.035 74.5805 334.894 74.9487 336.525 75.7728C338.944 76.9652 340.873 79.1044 341.767 81.6293C342.171 82.7515 342.381 83.9263 342.381 85.1186V89.5197C342.381 89.6951 342.381 89.8879 342.346 90.0633C342.241 90.5017 341.925 90.9049 341.504 91.0978C341.206 91.2381 340.873 91.2556 340.575 91.203C339.909 91.0803 339.383 90.4491 339.383 89.7652C339.383 88.3975 339.383 87.0299 339.383 85.6622C339.4 85.2764 339.4 84.8556 339.19 84.5225C338.857 83.8912 338.015 83.5931 337.366 83.8562C336.805 84.049 336.402 84.6277 336.384 85.2238C336.384 86.609 336.384 87.9942 336.384 89.3795C336.384 89.6425 336.402 89.9055 336.314 90.151C336.174 90.6419 335.771 91.0277 335.28 91.168C334.631 91.3433 333.895 91.0628 333.579 90.4666C333.351 90.1159 333.368 89.6775 333.386 89.2742C333.386 87.889 333.386 86.5214 333.386 85.1362C333.368 84.4348 332.79 83.8036 332.106 83.7159C331.65 83.6457 331.177 83.8036 330.844 84.1192C330.545 84.3997 330.388 84.803 330.388 85.2063V89.2216C330.388 89.5548 330.423 89.9055 330.3 90.2211C330.107 90.7997 329.528 91.2206 328.915 91.203C328.284 91.2381 327.67 90.7997 327.477 90.2211C327.372 89.923 327.389 89.6249 327.389 89.3093C327.389 87.9241 327.389 86.5389 327.389 85.1537C327.389 84.4699 326.846 83.8386 326.179 83.7159C325.566 83.5931 324.899 83.8912 324.584 84.4523C324.461 84.6803 324.391 84.9433 324.391 85.2063V89.7126C324.391 90.151 324.198 90.5893 323.865 90.8699C323.356 91.3082 322.532 91.3433 322.006 90.94C321.621 90.677 321.393 90.2211 321.393 89.7477V85.1888C321.393 83.4704 321.831 81.752 322.655 80.2266C323.321 78.9816 324.251 77.877 325.355 77.0002C326.986 75.6326 329.073 74.826 331.212 74.7033Z" fill="#5741D9"/>
<path d="M372.189 79.9811H369.91C369.998 78.3855 370.331 76.9476 371.786 76.0359C373.241 75.1416 374.837 74.9312 376.503 75.0715C377.397 75.1416 378.291 75.3345 379.115 75.7202C380.571 76.3866 381.29 77.5263 381.29 79.1219C381.29 81.9449 381.29 84.7679 381.29 87.591C381.29 88.6255 381.5 88.8184 382.535 88.7132C382.64 88.6956 382.763 88.6781 382.868 88.6606C382.885 88.7132 382.885 88.7658 382.885 88.8008V90.5192C382.061 90.7997 381.22 90.8874 380.395 90.6595C379.782 90.4841 379.396 90.0458 379.186 89.4671C379.08 89.169 379.01 88.8534 378.923 88.5203C378.835 88.6255 378.765 88.7132 378.677 88.8008C376.871 90.6244 374.732 91.3959 372.207 90.7471C370.418 90.2912 369.191 88.6606 369.138 86.8019C369.121 86.2058 369.174 85.6096 369.314 85.031C369.647 83.6984 370.594 82.8918 371.786 82.3482C372.628 81.9625 373.54 81.8572 374.451 81.7345C375.521 81.5942 376.573 81.4715 377.643 81.3137C378.361 81.2085 378.73 80.8227 378.835 80.1038C379.063 78.6485 378.414 77.6841 377.011 77.3334C376.17 77.123 375.311 77.0879 374.451 77.2457C373.189 77.4737 372.487 78.1926 372.242 79.4375C372.26 79.6129 372.224 79.7882 372.189 79.9811ZM378.905 82.7866C377.853 83.3477 376.836 83.4879 375.801 83.6457C374.942 83.786 374.066 83.9088 373.224 84.1718C372.119 84.54 371.611 85.4518 371.716 86.6792C371.804 87.6962 372.488 88.5203 373.592 88.6956C375.293 88.9762 376.801 88.5027 377.993 87.2403C378.344 86.8721 378.624 86.346 378.695 85.8551C378.852 84.8731 378.835 83.8737 378.905 82.7866ZM411.396 85.7323C411.343 85.9778 411.308 86.1882 411.256 86.3811C410.274 89.3795 408.275 90.6595 405.855 90.94C401.665 91.3959 399.262 88.6606 398.649 85.7499C398.158 83.4353 398.228 81.1383 399.245 78.9641C400.209 76.9126 401.752 75.5624 404.049 75.1591C406.802 74.6682 410.695 76.0359 411.343 80.3318C411.519 81.4364 411.554 82.5762 411.659 83.7334H400.998C401.086 85.3115 401.331 86.7844 402.489 87.9241C402.962 88.3975 403.576 88.6255 404.242 88.7482C406.399 89.134 408.187 88.0995 408.889 86.0129C408.959 85.7849 409.064 85.7148 409.292 85.7323C409.976 85.7323 410.66 85.7323 411.396 85.7323ZM401.086 81.6994H409.064C408.976 80.7701 408.819 79.9109 408.38 79.1044C407.959 78.3329 407.346 77.7718 406.504 77.4912C403.751 76.5444 400.911 78.7361 401.086 81.6994ZM417.13 90.4315H414.71V75.3871H417.007V77.4912C417.182 77.2983 417.288 77.1756 417.393 77.0529C419.041 75.1767 421.11 74.6857 423.46 75.2644C425.09 75.6676 426.002 76.8249 426.318 78.4381C426.441 79.1044 426.528 79.7882 426.528 80.4545C426.546 83.6808 426.546 86.9071 426.546 90.1334C426.546 90.2211 426.528 90.3088 426.528 90.414H424.056V90.0107C424.056 86.9948 424.073 83.9789 424.038 80.963C424.038 80.2967 423.933 79.6129 423.74 78.9641C423.425 77.912 422.583 77.3509 421.478 77.2983C419.462 77.2282 417.866 78.2978 417.375 80.0863C417.2 80.7351 417.147 81.4189 417.147 82.1027C417.13 84.7504 417.13 87.3806 417.13 89.9932V90.4315ZM385.235 75.3871H387.567V81.7696C387.707 81.6293 387.795 81.5592 387.883 81.4715C389.794 79.5252 391.705 77.5613 393.616 75.615C393.774 75.4397 393.932 75.3696 394.177 75.3696C395.072 75.3871 395.983 75.3696 396.965 75.3696C396.825 75.5098 396.755 75.5975 396.667 75.6852C394.984 77.3685 393.318 79.0693 391.617 80.7351C391.425 80.9279 391.425 81.0507 391.547 81.2611C393.388 84.1893 395.212 87.1175 397.036 90.0458C397.106 90.151 397.158 90.2562 397.246 90.414C397.123 90.4315 397.036 90.4315 396.93 90.4315C396.089 90.4315 395.265 90.4315 394.423 90.4315C394.195 90.4315 394.09 90.3438 393.967 90.1685C392.564 87.8189 391.162 85.4693 389.759 83.1022C389.689 82.997 389.636 82.8918 389.548 82.769C388.9 83.4178 388.268 84.0315 387.637 84.6803C387.549 84.7679 387.532 84.9258 387.532 85.0485C387.532 86.6967 387.532 88.3449 387.532 89.9932V90.414C387.076 90.414 386.62 90.414 386.182 90.414C385.866 90.414 385.428 90.5017 385.252 90.3263C385.095 90.186 385.182 89.7301 385.182 89.4145V75.7904C385.235 75.7027 385.235 75.5624 385.235 75.3871ZM358.32 75.3696C356.426 77.2457 354.585 79.0868 352.726 80.9279C354.725 84.1192 356.672 87.2403 358.653 90.4315C358.495 90.4315 358.39 90.4491 358.285 90.4491C357.478 90.4491 356.654 90.4491 355.847 90.4491C355.62 90.4491 355.479 90.3614 355.356 90.1685C353.954 87.8189 352.551 85.4693 351.148 83.1022C351.096 82.997 351.026 82.9093 350.938 82.769C350.587 83.1373 350.272 83.5405 349.886 83.8211C349.097 84.4173 348.869 85.1537 348.921 86.1356C349.009 87.4156 348.939 88.7132 348.939 89.9932V90.414H346.624V75.3871H348.939V81.6644C348.992 81.6994 349.044 81.7345 349.079 81.7696C349.149 81.6644 349.184 81.5416 349.255 81.454C351.148 79.5077 353.06 77.5789 354.953 75.615C355.129 75.4397 355.286 75.352 355.549 75.3696C356.338 75.3871 357.127 75.3696 357.917 75.3696C358.039 75.3696 358.144 75.3696 358.32 75.3696ZM362.949 77.877C364.124 76.1586 365.369 74.7208 367.683 75.1416V77.7192C367.069 77.7542 366.456 77.7367 365.877 77.8594C364.457 78.1575 363.352 79.455 363.124 81.0331C363.089 81.3488 363.054 81.6644 363.054 81.98C363.054 84.6627 363.054 87.3455 363.054 90.0282V90.4491H360.669V75.4222H362.949C362.949 76.2112 362.949 77.0002 362.949 77.877Z" fill="#5741D9"/>
<defs>
<clipPath id="clip0">
<rect width="25.0354" height="27.0791" fill="white" transform="translate(177.096 468.337)"/>
</clipPath>
</defs>
</svg>
