<svg width="55" height="52" viewBox="0 0 55 52" fill="none" xmlns="http://www.w3.org/2000/svg">
<path fill-rule="evenodd" clip-rule="evenodd" d="M0.234375 3.0534H13.4118V5.28744H2.46842V49.1513H52.7344V5.28744H41.0764V3.0534H54.9684V51.3854H0.234375V3.0534Z" fill="#3B3C3D"/>
<path fill-rule="evenodd" clip-rule="evenodd" d="M28.653 38.0832C25.3363 40.6712 21.2592 41.7458 18.1221 41.7458V39.5117C20.8183 39.5117 24.3974 38.5702 27.2787 36.3219C30.1177 34.1066 32.3176 30.5981 32.3176 25.3162H34.5516C34.5516 31.3146 32.0119 35.4623 28.653 38.0832Z" fill="#3B3C3D"/>
<path fill-rule="evenodd" clip-rule="evenodd" d="M11.5598 38.8291C10.5659 38.8291 9.76017 39.6348 9.76017 40.6287C9.76017 41.6226 10.5659 42.4284 11.5598 42.4284C12.5537 42.4284 13.3595 41.6226 13.3595 40.6287C13.3595 39.6348 12.5537 38.8291 11.5598 38.8291ZM7.52612 40.6287C7.52612 38.401 9.33207 36.595 11.5598 36.595C13.7876 36.595 15.5935 38.401 15.5935 40.6287C15.5935 42.8565 13.7876 44.6624 11.5598 44.6624C9.33207 44.6624 7.52612 42.8565 7.52612 40.6287Z" fill="#3B3C3D"/>
<path fill-rule="evenodd" clip-rule="evenodd" d="M34.1638 14.7666C33.1699 14.7666 32.3642 15.5723 32.3642 16.5662C32.3642 17.5601 33.1699 18.3659 34.1638 18.3659C35.1577 18.3659 35.9635 17.5601 35.9635 16.5662C35.9635 15.5723 35.1577 14.7666 34.1638 14.7666ZM30.1301 16.5662C30.1301 14.3385 31.9361 12.5325 34.1638 12.5325C36.3916 12.5325 38.1975 14.3385 38.1975 16.5662C38.1975 18.794 36.3916 20.5999 34.1638 20.5999C31.9361 20.5999 30.1301 18.794 30.1301 16.5662Z" fill="#3B3C3D"/>
<path fill-rule="evenodd" clip-rule="evenodd" d="M33.545 23.0099L38.2597 28.4413L36.5726 29.9058L33.3248 26.1643L29.5894 29.4179L28.1221 27.7333L33.545 23.0099Z" fill="#3B3C3D"/>
<path fill-rule="evenodd" clip-rule="evenodd" d="M15.145 23.2405L9.98975 18.0853L11.5695 16.5056L16.7247 21.6608L15.145 23.2405Z" fill="#3B3C3D"/>
<path fill-rule="evenodd" clip-rule="evenodd" d="M9.98975 21.6608L15.145 16.5056L16.7247 18.0853L11.5695 23.2405L9.98975 21.6608Z" fill="#3B3C3D"/>
<path fill-rule="evenodd" clip-rule="evenodd" d="M45.0917 41.4186L39.9365 36.2634L41.5162 34.6837L46.6714 39.8389L45.0917 41.4186Z" fill="#3B3C3D"/>
<path fill-rule="evenodd" clip-rule="evenodd" d="M39.9365 39.8389L45.0917 34.6837L46.6714 36.2634L41.5162 41.4186L39.9365 39.8389Z" fill="#3B3C3D"/>
<path fill-rule="evenodd" clip-rule="evenodd" d="M15.5469 0.136719H38.9268V8.20409H15.5469V0.136719ZM17.7809 2.37076V5.97005H36.6927V2.37076H17.7809Z" fill="#3B3C3D"/>
</svg>
